%TF.GenerationSoftware,KiCad,Pcbnew,9.0.3*%
%TF.CreationDate,2025-12-08T06:42:03-06:00*%
%TF.ProjectId,roboboat bms v2,726f626f-626f-4617-9420-626d73207632,rev?*%
%TF.SameCoordinates,Original*%
%TF.FileFunction,Copper,L4,Bot*%
%TF.FilePolarity,Positive*%
%FSLAX46Y46*%
G04 Gerber Fmt 4.6, Leading zero omitted, Abs format (unit mm)*
G04 Created by KiCad (PCBNEW 9.0.3) date 2025-12-08 06:42:03*
%MOMM*%
%LPD*%
G01*
G04 APERTURE LIST*
G04 Aperture macros list*
%AMRoundRect*
0 Rectangle with rounded corners*
0 $1 Rounding radius*
0 $2 $3 $4 $5 $6 $7 $8 $9 X,Y pos of 4 corners*
0 Add a 4 corners polygon primitive as box body*
4,1,4,$2,$3,$4,$5,$6,$7,$8,$9,$2,$3,0*
0 Add four circle primitives for the rounded corners*
1,1,$1+$1,$2,$3*
1,1,$1+$1,$4,$5*
1,1,$1+$1,$6,$7*
1,1,$1+$1,$8,$9*
0 Add four rect primitives between the rounded corners*
20,1,$1+$1,$2,$3,$4,$5,0*
20,1,$1+$1,$4,$5,$6,$7,0*
20,1,$1+$1,$6,$7,$8,$9,0*
20,1,$1+$1,$8,$9,$2,$3,0*%
G04 Aperture macros list end*
%TA.AperFunction,Conductor*%
%ADD10C,0.000000*%
%TD*%
%TA.AperFunction,ComponentPad*%
%ADD11R,1.700000X1.700000*%
%TD*%
%TA.AperFunction,ComponentPad*%
%ADD12C,1.700000*%
%TD*%
%TA.AperFunction,ComponentPad*%
%ADD13C,2.000000*%
%TD*%
%TA.AperFunction,ComponentPad*%
%ADD14RoundRect,0.250000X-0.550000X-0.550000X0.550000X-0.550000X0.550000X0.550000X-0.550000X0.550000X0*%
%TD*%
%TA.AperFunction,ComponentPad*%
%ADD15C,1.600000*%
%TD*%
%TA.AperFunction,ComponentPad*%
%ADD16RoundRect,0.250000X-0.600000X-0.750000X0.600000X-0.750000X0.600000X0.750000X-0.600000X0.750000X0*%
%TD*%
%TA.AperFunction,ComponentPad*%
%ADD17O,1.700000X2.000000*%
%TD*%
%TA.AperFunction,ComponentPad*%
%ADD18RoundRect,0.250000X-0.725000X0.600000X-0.725000X-0.600000X0.725000X-0.600000X0.725000X0.600000X0*%
%TD*%
%TA.AperFunction,ComponentPad*%
%ADD19O,1.950000X1.700000*%
%TD*%
%TA.AperFunction,ComponentPad*%
%ADD20RoundRect,0.249999X0.850001X0.850001X-0.850001X0.850001X-0.850001X-0.850001X0.850001X-0.850001X0*%
%TD*%
%TA.AperFunction,ComponentPad*%
%ADD21C,2.200000*%
%TD*%
%TA.AperFunction,ComponentPad*%
%ADD22R,2.500000X4.500000*%
%TD*%
%TA.AperFunction,ComponentPad*%
%ADD23O,2.500000X4.500000*%
%TD*%
%TA.AperFunction,ComponentPad*%
%ADD24C,4.916000*%
%TD*%
%TA.AperFunction,ComponentPad*%
%ADD25O,2.600000X1.300000*%
%TD*%
%TA.AperFunction,ComponentPad*%
%ADD26R,4.916000X4.916000*%
%TD*%
%TA.AperFunction,ViaPad*%
%ADD27C,0.600000*%
%TD*%
%TA.AperFunction,Conductor*%
%ADD28C,0.200000*%
%TD*%
G04 APERTURE END LIST*
D10*
%TA.AperFunction,Conductor*%
%TO.N,Net-(Q1-D)*%
G36*
X87000000Y-116500000D02*
G01*
X65000000Y-116500000D01*
X65000000Y-112500000D01*
X87000000Y-112500000D01*
X87000000Y-116500000D01*
G37*
%TD.AperFunction*%
%TA.AperFunction,Conductor*%
G36*
X87000000Y-119500000D02*
G01*
X83000000Y-119500000D01*
X83000000Y-112500000D01*
X87000000Y-112500000D01*
X87000000Y-119500000D01*
G37*
%TD.AperFunction*%
%TA.AperFunction,Conductor*%
G36*
X69000000Y-119500000D02*
G01*
X65000000Y-119500000D01*
X65000000Y-112500000D01*
X69000000Y-112500000D01*
X69000000Y-119500000D01*
G37*
%TD.AperFunction*%
%TD*%
D11*
%TO.P,J1,1,Pin_1*%
%TO.N,Net-(J1-Pin_1)*%
X79080000Y-167000000D03*
D12*
%TO.P,J1,2,Pin_2*%
%TO.N,Net-(J1-Pin_2)*%
X76540000Y-167000000D03*
%TO.P,J1,3,Pin_3*%
%TO.N,Net-(J1-Pin_3)*%
X74000000Y-167000000D03*
%TO.P,J1,4,Pin_4*%
%TO.N,GND*%
X71460000Y-167000000D03*
%TD*%
D13*
%TO.P,SW1,1,1*%
%TO.N,Net-(R7-Pad1)*%
X72750000Y-150250000D03*
X79250000Y-150250000D03*
%TO.P,SW1,2,2*%
%TO.N,Net-(U1-VC1)*%
X72750000Y-154750000D03*
X79250000Y-154750000D03*
%TD*%
D14*
%TO.P,C4,1*%
%TO.N,VBUS*%
X67317621Y-141000000D03*
D15*
%TO.P,C4,2*%
%TO.N,GND*%
X69817621Y-141000000D03*
%TD*%
D16*
%TO.P,J7,1,Pin_1*%
%TO.N,Net-(J7-Pin_1)*%
X75000000Y-141500000D03*
D17*
%TO.P,J7,2,Pin_2*%
%TO.N,GND*%
X77500000Y-141500000D03*
%TD*%
D18*
%TO.P,J6,1,Pin_1*%
%TO.N,VBUS*%
X55500000Y-152000000D03*
D19*
%TO.P,J6,2,Pin_2*%
%TO.N,Net-(J6-Pin_2)*%
X55500000Y-154500000D03*
%TO.P,J6,3,Pin_3*%
%TO.N,Net-(J6-Pin_3)*%
X55500000Y-157000000D03*
%TO.P,J6,4,Pin_4*%
%TO.N,Net-(J6-Pin_4)*%
X55500000Y-159500000D03*
%TO.P,J6,5,Pin_5*%
%TO.N,Net-(J3-NEG)*%
X55500000Y-162000000D03*
%TD*%
D20*
%TO.P,D1,1,K*%
%TO.N,Net-(D1-K)*%
X91800000Y-125000000D03*
D21*
%TO.P,D1,2,A*%
%TO.N,Net-(D1-A)*%
X81640000Y-125000000D03*
%TD*%
D22*
%TO.P,Q1,1,G*%
%TO.N,Net-(D1-K)*%
X79500000Y-119500000D03*
D23*
%TO.P,Q1,2,D*%
%TO.N,Net-(Q1-D)*%
X84950000Y-119500000D03*
%TO.P,Q1,3,S*%
%TO.N,GND*%
X90400000Y-119500000D03*
%TD*%
D24*
%TO.P,J4,N,NEG*%
%TO.N,GND*%
X83650000Y-132000000D03*
D25*
%TO.P,J4,NC,NC*%
%TO.N,unconnected-(J4-PadNC)*%
X93050000Y-146900000D03*
%TO.N,unconnected-(J4-PadNC)_1*%
X93050000Y-128000000D03*
D26*
%TO.P,J4,P,POS*%
%TO.N,VBUS*%
X83650000Y-142900000D03*
%TD*%
D24*
%TO.P,J3,N,NEG*%
%TO.N,Net-(J3-NEG)*%
X60900000Y-132000000D03*
D25*
%TO.P,J3,NC,NC*%
%TO.N,unconnected-(J3-PadNC)*%
X52000000Y-128000000D03*
%TO.N,unconnected-(J3-PadNC)_1*%
X52000000Y-146900000D03*
D26*
%TO.P,J3,P,POS*%
%TO.N,VBUS*%
X60900000Y-142900000D03*
%TD*%
D22*
%TO.P,Q5,1,G*%
%TO.N,Net-(Q5-G)*%
X61550000Y-119500000D03*
D23*
%TO.P,Q5,2,D*%
%TO.N,Net-(Q1-D)*%
X67000000Y-119500000D03*
%TO.P,Q5,3,S*%
%TO.N,Net-(Q5-S)*%
X72450000Y-119500000D03*
%TD*%
D27*
%TO.N,GND*%
X76500000Y-162500000D03*
%TO.N,Net-(U1-SRP)*%
X71000000Y-133000000D03*
X75000000Y-161000000D03*
%TO.N,Net-(U1-SRN)*%
X70500000Y-163500000D03*
X71500000Y-136500000D03*
%TO.N,VBUS*%
X76000000Y-159000000D03*
%TO.N,Net-(J7-Pin_1)*%
X83500000Y-162000000D03*
%TO.N,Net-(Q3-S)*%
X80000000Y-128000000D03*
X75000000Y-163275000D03*
%TO.N,Net-(Q5-G)*%
X76500000Y-164500000D03*
%TD*%
D28*
%TO.N,Net-(U1-SRP)*%
X73500000Y-134500000D02*
X72000000Y-133000000D01*
X67000000Y-161500000D02*
X67000000Y-144000000D01*
X67000000Y-144000000D02*
X67500000Y-143500000D01*
X72000000Y-138500000D02*
X73500000Y-137000000D01*
X73500000Y-162500000D02*
X68000000Y-162500000D01*
X71000000Y-143000000D02*
X72000000Y-142000000D01*
X72000000Y-142000000D02*
X72000000Y-138500000D01*
X68000000Y-143000000D02*
X68500000Y-143000000D01*
X68000000Y-162500000D02*
X67000000Y-161500000D01*
X72000000Y-133000000D02*
X71000000Y-133000000D01*
X75000000Y-161000000D02*
X73500000Y-162500000D01*
X68500000Y-143000000D02*
X71000000Y-143000000D01*
X73500000Y-137000000D02*
X73500000Y-134500000D01*
X67500000Y-143500000D02*
X68000000Y-143000000D01*
%TO.N,Net-(U1-SRN)*%
X67500000Y-136500000D02*
X71500000Y-136500000D01*
X66000000Y-162000000D02*
X66000000Y-138000000D01*
X67500000Y-163500000D02*
X66000000Y-162000000D01*
X66000000Y-138000000D02*
X67500000Y-136500000D01*
X70500000Y-163500000D02*
X67500000Y-163500000D01*
%TO.N,Net-(U1-VC1)*%
X79250000Y-154750000D02*
X72750000Y-154750000D01*
%TO.N,Net-(J7-Pin_1)*%
X86000000Y-162000000D02*
X87000000Y-161000000D01*
X76000000Y-147000000D02*
X75000000Y-146000000D01*
X75000000Y-146000000D02*
X75000000Y-141500000D01*
X83500000Y-162000000D02*
X86000000Y-162000000D01*
X87000000Y-161000000D02*
X87000000Y-148500000D01*
X85500000Y-147000000D02*
X76000000Y-147000000D01*
X87000000Y-148500000D02*
X85500000Y-147000000D01*
%TO.N,Net-(Q3-S)*%
X88000000Y-130000000D02*
X86000000Y-128000000D01*
X86225000Y-163275000D02*
X88000000Y-161500000D01*
X88000000Y-161500000D02*
X88000000Y-130000000D01*
X75000000Y-163275000D02*
X86225000Y-163275000D01*
X86000000Y-128000000D02*
X80000000Y-128000000D01*
%TO.N,Net-(Q5-G)*%
X65000000Y-122950000D02*
X61550000Y-119500000D01*
X65000000Y-162500000D02*
X65000000Y-122950000D01*
X67000000Y-164500000D02*
X65000000Y-162500000D01*
X76500000Y-164500000D02*
X67000000Y-164500000D01*
%TO.N,Net-(R7-Pad1)*%
X79250000Y-150250000D02*
X72750000Y-150250000D01*
%TD*%
%TA.AperFunction,Conductor*%
%TO.N,GND*%
G36*
X95442539Y-109520185D02*
G01*
X95488294Y-109572989D01*
X95499500Y-109624500D01*
X95499500Y-170875500D01*
X95479815Y-170942539D01*
X95427011Y-170988294D01*
X95375500Y-170999500D01*
X49624500Y-170999500D01*
X49557461Y-170979815D01*
X49511706Y-170927011D01*
X49500500Y-170875500D01*
X49500500Y-166893713D01*
X72649500Y-166893713D01*
X72649500Y-167106286D01*
X72682753Y-167316239D01*
X72748444Y-167518414D01*
X72844951Y-167707820D01*
X72969890Y-167879786D01*
X73120213Y-168030109D01*
X73292179Y-168155048D01*
X73292181Y-168155049D01*
X73292184Y-168155051D01*
X73481588Y-168251557D01*
X73683757Y-168317246D01*
X73893713Y-168350500D01*
X73893714Y-168350500D01*
X74106286Y-168350500D01*
X74106287Y-168350500D01*
X74316243Y-168317246D01*
X74518412Y-168251557D01*
X74707816Y-168155051D01*
X74794138Y-168092335D01*
X74879786Y-168030109D01*
X74879788Y-168030106D01*
X74879792Y-168030104D01*
X75030104Y-167879792D01*
X75030106Y-167879788D01*
X75030109Y-167879786D01*
X75155048Y-167707820D01*
X75155047Y-167707820D01*
X75155051Y-167707816D01*
X75159514Y-167699054D01*
X75207488Y-167648259D01*
X75275308Y-167631463D01*
X75341444Y-167653999D01*
X75380486Y-167699056D01*
X75384951Y-167707820D01*
X75509890Y-167879786D01*
X75660213Y-168030109D01*
X75832179Y-168155048D01*
X75832181Y-168155049D01*
X75832184Y-168155051D01*
X76021588Y-168251557D01*
X76223757Y-168317246D01*
X76433713Y-168350500D01*
X76433714Y-168350500D01*
X76646286Y-168350500D01*
X76646287Y-168350500D01*
X76856243Y-168317246D01*
X77058412Y-168251557D01*
X77247816Y-168155051D01*
X77419792Y-168030104D01*
X77533329Y-167916566D01*
X77594648Y-167883084D01*
X77664340Y-167888068D01*
X77720274Y-167929939D01*
X77737189Y-167960917D01*
X77786202Y-168092328D01*
X77786206Y-168092335D01*
X77872452Y-168207544D01*
X77872455Y-168207547D01*
X77987664Y-168293793D01*
X77987671Y-168293797D01*
X78122517Y-168344091D01*
X78122516Y-168344091D01*
X78129444Y-168344835D01*
X78182127Y-168350500D01*
X79977872Y-168350499D01*
X80037483Y-168344091D01*
X80172331Y-168293796D01*
X80287546Y-168207546D01*
X80373796Y-168092331D01*
X80424091Y-167957483D01*
X80430500Y-167897873D01*
X80430499Y-166102128D01*
X80424091Y-166042517D01*
X80422810Y-166039083D01*
X80373797Y-165907671D01*
X80373793Y-165907664D01*
X80287547Y-165792455D01*
X80287544Y-165792452D01*
X80172335Y-165706206D01*
X80172328Y-165706202D01*
X80037482Y-165655908D01*
X80037483Y-165655908D01*
X79977883Y-165649501D01*
X79977881Y-165649500D01*
X79977873Y-165649500D01*
X79977864Y-165649500D01*
X78182129Y-165649500D01*
X78182123Y-165649501D01*
X78122516Y-165655908D01*
X77987671Y-165706202D01*
X77987664Y-165706206D01*
X77872455Y-165792452D01*
X77872452Y-165792455D01*
X77786206Y-165907664D01*
X77786203Y-165907669D01*
X77737189Y-166039083D01*
X77695317Y-166095016D01*
X77629853Y-166119433D01*
X77561580Y-166104581D01*
X77533326Y-166083430D01*
X77419786Y-165969890D01*
X77247820Y-165844951D01*
X77058414Y-165748444D01*
X77058413Y-165748443D01*
X77058412Y-165748443D01*
X76856243Y-165682754D01*
X76856241Y-165682753D01*
X76856240Y-165682753D01*
X76694957Y-165657208D01*
X76646287Y-165649500D01*
X76433713Y-165649500D01*
X76385042Y-165657208D01*
X76223760Y-165682753D01*
X76021585Y-165748444D01*
X75832179Y-165844951D01*
X75660213Y-165969890D01*
X75509890Y-166120213D01*
X75384949Y-166292182D01*
X75380484Y-166300946D01*
X75332509Y-166351742D01*
X75264688Y-166368536D01*
X75198553Y-166345998D01*
X75159516Y-166300946D01*
X75155050Y-166292182D01*
X75030109Y-166120213D01*
X74879786Y-165969890D01*
X74707820Y-165844951D01*
X74518414Y-165748444D01*
X74518413Y-165748443D01*
X74518412Y-165748443D01*
X74316243Y-165682754D01*
X74316241Y-165682753D01*
X74316240Y-165682753D01*
X74154957Y-165657208D01*
X74106287Y-165649500D01*
X73893713Y-165649500D01*
X73845042Y-165657208D01*
X73683760Y-165682753D01*
X73481585Y-165748444D01*
X73292179Y-165844951D01*
X73120213Y-165969890D01*
X72969890Y-166120213D01*
X72844951Y-166292179D01*
X72748444Y-166481585D01*
X72682753Y-166683760D01*
X72649500Y-166893713D01*
X49500500Y-166893713D01*
X49500500Y-151349983D01*
X54024500Y-151349983D01*
X54024500Y-152650001D01*
X54024501Y-152650018D01*
X54035000Y-152752796D01*
X54035001Y-152752799D01*
X54090185Y-152919331D01*
X54090187Y-152919336D01*
X54182289Y-153068657D01*
X54306344Y-153192712D01*
X54461120Y-153288178D01*
X54507845Y-153340126D01*
X54519068Y-153409088D01*
X54491224Y-153473171D01*
X54483706Y-153481398D01*
X54344889Y-153620215D01*
X54219951Y-153792179D01*
X54123444Y-153981585D01*
X54057753Y-154183760D01*
X54024500Y-154393713D01*
X54024500Y-154606287D01*
X54057754Y-154816243D01*
X54074602Y-154868097D01*
X54123444Y-155018414D01*
X54219951Y-155207820D01*
X54344890Y-155379786D01*
X54495209Y-155530105D01*
X54495214Y-155530109D01*
X54659793Y-155649682D01*
X54702459Y-155705011D01*
X54708438Y-155774625D01*
X54675833Y-155836420D01*
X54659793Y-155850318D01*
X54495214Y-155969890D01*
X54495209Y-155969894D01*
X54344890Y-156120213D01*
X54219951Y-156292179D01*
X54123444Y-156481585D01*
X54057753Y-156683760D01*
X54024500Y-156893713D01*
X54024500Y-157106286D01*
X54057753Y-157316239D01*
X54123444Y-157518414D01*
X54219951Y-157707820D01*
X54344890Y-157879786D01*
X54495209Y-158030105D01*
X54495214Y-158030109D01*
X54659793Y-158149682D01*
X54702459Y-158205011D01*
X54708438Y-158274625D01*
X54675833Y-158336420D01*
X54659793Y-158350318D01*
X54495214Y-158469890D01*
X54495209Y-158469894D01*
X54344890Y-158620213D01*
X54219951Y-158792179D01*
X54123444Y-158981585D01*
X54057753Y-159183760D01*
X54024500Y-159393713D01*
X54024500Y-159606286D01*
X54057753Y-159816239D01*
X54123444Y-160018414D01*
X54219951Y-160207820D01*
X54344890Y-160379786D01*
X54495209Y-160530105D01*
X54495214Y-160530109D01*
X54659793Y-160649682D01*
X54702459Y-160705011D01*
X54708438Y-160774625D01*
X54675833Y-160836420D01*
X54659793Y-160850318D01*
X54495214Y-160969890D01*
X54495209Y-160969894D01*
X54344890Y-161120213D01*
X54219951Y-161292179D01*
X54123444Y-161481585D01*
X54057753Y-161683760D01*
X54039242Y-161800638D01*
X54024500Y-161893713D01*
X54024500Y-162106287D01*
X54057754Y-162316243D01*
X54111475Y-162481579D01*
X54123444Y-162518414D01*
X54219951Y-162707820D01*
X54344890Y-162879786D01*
X54495213Y-163030109D01*
X54667179Y-163155048D01*
X54667181Y-163155049D01*
X54667184Y-163155051D01*
X54856588Y-163251557D01*
X55058757Y-163317246D01*
X55268713Y-163350500D01*
X55268714Y-163350500D01*
X55731286Y-163350500D01*
X55731287Y-163350500D01*
X55941243Y-163317246D01*
X56143412Y-163251557D01*
X56332816Y-163155051D01*
X56464226Y-163059577D01*
X56504786Y-163030109D01*
X56504792Y-163030104D01*
X56554378Y-162980518D01*
X56655104Y-162879792D01*
X56655106Y-162879788D01*
X56655109Y-162879786D01*
X56780048Y-162707820D01*
X56780047Y-162707820D01*
X56780051Y-162707816D01*
X56876557Y-162518412D01*
X56942246Y-162316243D01*
X56975500Y-162106287D01*
X56975500Y-161893713D01*
X56942246Y-161683757D01*
X56876557Y-161481588D01*
X56780051Y-161292184D01*
X56780049Y-161292181D01*
X56780048Y-161292179D01*
X56655109Y-161120213D01*
X56504792Y-160969896D01*
X56479148Y-160951265D01*
X56340204Y-160850316D01*
X56297540Y-160794989D01*
X56291561Y-160725376D01*
X56324166Y-160663580D01*
X56340199Y-160649686D01*
X56504792Y-160530104D01*
X56655104Y-160379792D01*
X56655106Y-160379788D01*
X56655109Y-160379786D01*
X56780048Y-160207820D01*
X56780047Y-160207820D01*
X56780051Y-160207816D01*
X56876557Y-160018412D01*
X56942246Y-159816243D01*
X56975500Y-159606287D01*
X56975500Y-159393713D01*
X56942246Y-159183757D01*
X56876557Y-158981588D01*
X56780051Y-158792184D01*
X56780049Y-158792181D01*
X56780048Y-158792179D01*
X56655109Y-158620213D01*
X56504792Y-158469896D01*
X56504784Y-158469890D01*
X56340204Y-158350316D01*
X56297540Y-158294989D01*
X56291561Y-158225376D01*
X56324166Y-158163580D01*
X56340199Y-158149686D01*
X56504792Y-158030104D01*
X56655104Y-157879792D01*
X56655106Y-157879788D01*
X56655109Y-157879786D01*
X56780048Y-157707820D01*
X56780047Y-157707820D01*
X56780051Y-157707816D01*
X56876557Y-157518412D01*
X56942246Y-157316243D01*
X56975500Y-157106287D01*
X56975500Y-156893713D01*
X56942246Y-156683757D01*
X56876557Y-156481588D01*
X56780051Y-156292184D01*
X56780049Y-156292181D01*
X56780048Y-156292179D01*
X56655109Y-156120213D01*
X56504792Y-155969896D01*
X56504784Y-155969890D01*
X56340204Y-155850316D01*
X56297540Y-155794989D01*
X56291561Y-155725376D01*
X56324166Y-155663580D01*
X56340199Y-155649686D01*
X56504792Y-155530104D01*
X56655104Y-155379792D01*
X56655106Y-155379788D01*
X56655109Y-155379786D01*
X56780048Y-155207820D01*
X56780047Y-155207820D01*
X56780051Y-155207816D01*
X56876557Y-155018412D01*
X56942246Y-154816243D01*
X56975500Y-154606287D01*
X56975500Y-154393713D01*
X56942246Y-154183757D01*
X56876557Y-153981588D01*
X56780051Y-153792184D01*
X56780049Y-153792181D01*
X56780048Y-153792179D01*
X56655109Y-153620213D01*
X56516294Y-153481398D01*
X56482809Y-153420075D01*
X56487793Y-153350383D01*
X56529665Y-153294450D01*
X56538879Y-153288178D01*
X56544331Y-153284814D01*
X56544334Y-153284814D01*
X56693656Y-153192712D01*
X56817712Y-153068656D01*
X56909814Y-152919334D01*
X56964999Y-152752797D01*
X56975500Y-152650009D01*
X56975499Y-151349992D01*
X56964999Y-151247203D01*
X56909814Y-151080666D01*
X56817712Y-150931344D01*
X56693656Y-150807288D01*
X56544334Y-150715186D01*
X56377797Y-150660001D01*
X56377795Y-150660000D01*
X56275010Y-150649500D01*
X54724998Y-150649500D01*
X54724981Y-150649501D01*
X54622203Y-150660000D01*
X54622200Y-150660001D01*
X54455668Y-150715185D01*
X54455663Y-150715187D01*
X54306342Y-150807289D01*
X54182289Y-150931342D01*
X54090187Y-151080663D01*
X54090186Y-151080666D01*
X54035001Y-151247203D01*
X54035001Y-151247204D01*
X54035000Y-151247204D01*
X54024500Y-151349983D01*
X49500500Y-151349983D01*
X49500500Y-146809448D01*
X50199500Y-146809448D01*
X50199500Y-146990551D01*
X50227829Y-147169410D01*
X50283787Y-147341636D01*
X50283788Y-147341639D01*
X50366006Y-147502997D01*
X50472441Y-147649494D01*
X50472445Y-147649499D01*
X50600500Y-147777554D01*
X50600505Y-147777558D01*
X50684501Y-147838584D01*
X50747006Y-147883996D01*
X50852484Y-147937740D01*
X50908360Y-147966211D01*
X50908363Y-147966212D01*
X50994476Y-147994191D01*
X51080591Y-148022171D01*
X51163429Y-148035291D01*
X51259449Y-148050500D01*
X51259454Y-148050500D01*
X52740551Y-148050500D01*
X52827259Y-148036765D01*
X52919409Y-148022171D01*
X53091639Y-147966211D01*
X53252994Y-147883996D01*
X53399501Y-147777553D01*
X53527553Y-147649501D01*
X53633996Y-147502994D01*
X53716211Y-147341639D01*
X53772171Y-147169409D01*
X53786765Y-147077259D01*
X53800500Y-146990551D01*
X53800500Y-146809448D01*
X53784019Y-146705397D01*
X53772171Y-146630591D01*
X53716211Y-146458361D01*
X53716211Y-146458360D01*
X53686219Y-146399499D01*
X53633996Y-146297006D01*
X53586611Y-146231786D01*
X53527558Y-146150505D01*
X53527554Y-146150500D01*
X53399499Y-146022445D01*
X53399494Y-146022441D01*
X53252997Y-145916006D01*
X53252996Y-145916005D01*
X53252994Y-145916004D01*
X53201300Y-145889664D01*
X53091639Y-145833788D01*
X53091636Y-145833787D01*
X52919410Y-145777829D01*
X52740551Y-145749500D01*
X52740546Y-145749500D01*
X51259454Y-145749500D01*
X51259449Y-145749500D01*
X51080589Y-145777829D01*
X50908363Y-145833787D01*
X50908360Y-145833788D01*
X50747002Y-145916006D01*
X50600505Y-146022441D01*
X50600500Y-146022445D01*
X50472445Y-146150500D01*
X50472441Y-146150505D01*
X50366006Y-146297002D01*
X50283788Y-146458360D01*
X50283789Y-146458361D01*
X50227829Y-146630589D01*
X50199500Y-146809448D01*
X49500500Y-146809448D01*
X49500500Y-140394135D01*
X57941500Y-140394135D01*
X57941500Y-145405870D01*
X57941501Y-145405876D01*
X57947908Y-145465483D01*
X57998202Y-145600328D01*
X57998206Y-145600335D01*
X58084452Y-145715544D01*
X58084455Y-145715547D01*
X58199664Y-145801793D01*
X58199671Y-145801797D01*
X58334517Y-145852091D01*
X58334516Y-145852091D01*
X58341444Y-145852835D01*
X58394127Y-145858500D01*
X63405872Y-145858499D01*
X63465483Y-145852091D01*
X63600331Y-145801796D01*
X63715546Y-145715546D01*
X63801796Y-145600331D01*
X63852091Y-145465483D01*
X63858500Y-145405873D01*
X63858499Y-140394128D01*
X63852091Y-140334517D01*
X63801796Y-140199669D01*
X63801795Y-140199668D01*
X63801793Y-140199664D01*
X63715547Y-140084455D01*
X63715544Y-140084452D01*
X63600335Y-139998206D01*
X63600328Y-139998202D01*
X63465482Y-139947908D01*
X63465483Y-139947908D01*
X63405883Y-139941501D01*
X63405881Y-139941500D01*
X63405873Y-139941500D01*
X63405864Y-139941500D01*
X58394129Y-139941500D01*
X58394123Y-139941501D01*
X58334516Y-139947908D01*
X58199671Y-139998202D01*
X58199664Y-139998206D01*
X58084455Y-140084452D01*
X58084452Y-140084455D01*
X57998206Y-140199664D01*
X57998202Y-140199671D01*
X57947908Y-140334517D01*
X57941501Y-140394116D01*
X57941501Y-140394123D01*
X57941500Y-140394135D01*
X49500500Y-140394135D01*
X49500500Y-131833847D01*
X57941500Y-131833847D01*
X57941500Y-132166152D01*
X57978701Y-132496333D01*
X57978704Y-132496347D01*
X58052645Y-132820307D01*
X58052649Y-132820319D01*
X58162396Y-133133956D01*
X58306569Y-133433334D01*
X58306571Y-133433337D01*
X58483361Y-133714697D01*
X58690541Y-133974493D01*
X58925507Y-134209459D01*
X59185303Y-134416639D01*
X59466663Y-134593429D01*
X59766047Y-134737605D01*
X60001605Y-134820030D01*
X60079680Y-134847350D01*
X60079692Y-134847354D01*
X60403652Y-134921296D01*
X60403661Y-134921297D01*
X60403666Y-134921298D01*
X60623786Y-134946098D01*
X60733848Y-134958499D01*
X60733851Y-134958500D01*
X60733854Y-134958500D01*
X61066149Y-134958500D01*
X61066150Y-134958499D01*
X61234897Y-134939486D01*
X61396333Y-134921298D01*
X61396336Y-134921297D01*
X61396348Y-134921296D01*
X61720308Y-134847354D01*
X62033953Y-134737605D01*
X62333337Y-134593429D01*
X62614697Y-134416639D01*
X62874493Y-134209459D01*
X63109459Y-133974493D01*
X63316639Y-133714697D01*
X63493429Y-133433337D01*
X63637605Y-133133953D01*
X63747354Y-132820308D01*
X63821296Y-132496348D01*
X63822045Y-132489707D01*
X63858499Y-132166152D01*
X63858500Y-132166148D01*
X63858500Y-131833851D01*
X63858499Y-131833847D01*
X63821298Y-131503666D01*
X63821297Y-131503661D01*
X63821296Y-131503652D01*
X63747354Y-131179692D01*
X63637605Y-130866047D01*
X63493429Y-130566663D01*
X63316639Y-130285303D01*
X63109459Y-130025507D01*
X62874493Y-129790541D01*
X62614697Y-129583361D01*
X62333337Y-129406571D01*
X62333334Y-129406569D01*
X62033956Y-129262396D01*
X61720319Y-129152649D01*
X61720307Y-129152645D01*
X61470289Y-129095580D01*
X61396348Y-129078704D01*
X61396345Y-129078703D01*
X61396333Y-129078701D01*
X61066152Y-129041500D01*
X61066146Y-129041500D01*
X60733854Y-129041500D01*
X60733847Y-129041500D01*
X60403666Y-129078701D01*
X60403652Y-129078704D01*
X60079692Y-129152645D01*
X60079680Y-129152649D01*
X59766043Y-129262396D01*
X59466665Y-129406569D01*
X59185304Y-129583360D01*
X58925507Y-129790540D01*
X58690540Y-130025507D01*
X58483360Y-130285304D01*
X58306569Y-130566665D01*
X58162396Y-130866043D01*
X58052649Y-131179680D01*
X58052645Y-131179692D01*
X57978704Y-131503652D01*
X57978701Y-131503666D01*
X57941500Y-131833847D01*
X49500500Y-131833847D01*
X49500500Y-127909448D01*
X50199500Y-127909448D01*
X50199500Y-128090551D01*
X50227829Y-128269410D01*
X50283787Y-128441636D01*
X50283788Y-128441639D01*
X50339664Y-128551300D01*
X50364743Y-128600520D01*
X50366006Y-128602997D01*
X50472441Y-128749494D01*
X50472445Y-128749499D01*
X50600500Y-128877554D01*
X50600505Y-128877558D01*
X50728287Y-128970396D01*
X50747006Y-128983996D01*
X50852484Y-129037740D01*
X50908360Y-129066211D01*
X50908363Y-129066212D01*
X50946811Y-129078704D01*
X51080591Y-129122171D01*
X51163429Y-129135291D01*
X51259449Y-129150500D01*
X51259454Y-129150500D01*
X52740551Y-129150500D01*
X52827259Y-129136765D01*
X52919409Y-129122171D01*
X53091639Y-129066211D01*
X53252994Y-128983996D01*
X53399501Y-128877553D01*
X53527553Y-128749501D01*
X53633996Y-128602994D01*
X53716211Y-128441639D01*
X53772171Y-128269409D01*
X53786765Y-128177259D01*
X53800500Y-128090551D01*
X53800500Y-127909448D01*
X53777858Y-127766498D01*
X53772171Y-127730591D01*
X53716211Y-127558361D01*
X53716211Y-127558360D01*
X53656118Y-127440423D01*
X53633996Y-127397006D01*
X53620340Y-127378210D01*
X53527558Y-127250505D01*
X53527554Y-127250500D01*
X53399499Y-127122445D01*
X53399494Y-127122441D01*
X53252997Y-127016006D01*
X53252996Y-127016005D01*
X53252994Y-127016004D01*
X53201300Y-126989664D01*
X53091639Y-126933788D01*
X53091636Y-126933787D01*
X52919410Y-126877829D01*
X52740551Y-126849500D01*
X52740546Y-126849500D01*
X51259454Y-126849500D01*
X51259449Y-126849500D01*
X51080589Y-126877829D01*
X50908363Y-126933787D01*
X50908360Y-126933788D01*
X50747002Y-127016006D01*
X50600505Y-127122441D01*
X50600500Y-127122445D01*
X50472445Y-127250500D01*
X50472441Y-127250505D01*
X50366006Y-127397002D01*
X50283788Y-127558360D01*
X50283787Y-127558363D01*
X50227829Y-127730589D01*
X50199500Y-127909448D01*
X49500500Y-127909448D01*
X49500500Y-117202135D01*
X59799500Y-117202135D01*
X59799500Y-121797870D01*
X59799501Y-121797876D01*
X59805908Y-121857483D01*
X59856202Y-121992328D01*
X59856206Y-121992335D01*
X59942452Y-122107544D01*
X59942455Y-122107547D01*
X60057664Y-122193793D01*
X60057671Y-122193797D01*
X60192517Y-122244091D01*
X60192516Y-122244091D01*
X60199444Y-122244835D01*
X60252127Y-122250500D01*
X62847872Y-122250499D01*
X62907483Y-122244091D01*
X63042331Y-122193796D01*
X63157545Y-122107547D01*
X63157751Y-122107393D01*
X63223215Y-122082975D01*
X63291488Y-122097826D01*
X63319743Y-122118978D01*
X64363181Y-123162416D01*
X64396666Y-123223739D01*
X64399500Y-123250097D01*
X64399500Y-162413330D01*
X64399499Y-162413348D01*
X64399499Y-162579054D01*
X64399498Y-162579054D01*
X64440423Y-162731786D01*
X64455395Y-162757716D01*
X64455396Y-162757721D01*
X64455398Y-162757721D01*
X64513589Y-162858512D01*
X64519479Y-162868714D01*
X64519481Y-162868717D01*
X64638349Y-162987585D01*
X64638355Y-162987590D01*
X66515139Y-164864374D01*
X66515149Y-164864385D01*
X66519479Y-164868715D01*
X66519480Y-164868716D01*
X66631284Y-164980520D01*
X66682845Y-165010288D01*
X66718095Y-165030639D01*
X66718097Y-165030641D01*
X66756151Y-165052611D01*
X66768215Y-165059577D01*
X66920943Y-165100500D01*
X75920234Y-165100500D01*
X75987273Y-165120185D01*
X75989125Y-165121398D01*
X76120814Y-165209390D01*
X76120827Y-165209397D01*
X76266498Y-165269735D01*
X76266503Y-165269737D01*
X76421153Y-165300499D01*
X76421156Y-165300500D01*
X76421158Y-165300500D01*
X76578844Y-165300500D01*
X76578845Y-165300499D01*
X76733497Y-165269737D01*
X76879179Y-165209394D01*
X77010289Y-165121789D01*
X77121789Y-165010289D01*
X77209394Y-164879179D01*
X77269737Y-164733497D01*
X77300500Y-164578842D01*
X77300500Y-164421158D01*
X77300500Y-164421155D01*
X77300499Y-164421153D01*
X77269738Y-164266510D01*
X77269737Y-164266503D01*
X77269735Y-164266498D01*
X77209397Y-164120827D01*
X77209390Y-164120814D01*
X77174362Y-164068391D01*
X77153484Y-164001713D01*
X77171969Y-163934333D01*
X77223947Y-163887643D01*
X77277464Y-163875500D01*
X86138331Y-163875500D01*
X86138347Y-163875501D01*
X86145943Y-163875501D01*
X86304054Y-163875501D01*
X86304057Y-163875501D01*
X86456785Y-163834577D01*
X86506904Y-163805639D01*
X86593716Y-163755520D01*
X86705520Y-163643716D01*
X86705520Y-163643714D01*
X86715728Y-163633507D01*
X86715730Y-163633504D01*
X88358506Y-161990728D01*
X88358511Y-161990724D01*
X88368714Y-161980520D01*
X88368716Y-161980520D01*
X88480520Y-161868716D01*
X88539532Y-161766503D01*
X88559577Y-161731785D01*
X88600500Y-161579057D01*
X88600500Y-161420943D01*
X88600500Y-146809448D01*
X91249500Y-146809448D01*
X91249500Y-146990551D01*
X91277829Y-147169410D01*
X91333787Y-147341636D01*
X91333788Y-147341639D01*
X91416006Y-147502997D01*
X91522441Y-147649494D01*
X91522445Y-147649499D01*
X91650500Y-147777554D01*
X91650505Y-147777558D01*
X91734501Y-147838584D01*
X91797006Y-147883996D01*
X91902484Y-147937740D01*
X91958360Y-147966211D01*
X91958363Y-147966212D01*
X92044476Y-147994191D01*
X92130591Y-148022171D01*
X92213429Y-148035291D01*
X92309449Y-148050500D01*
X92309454Y-148050500D01*
X93790551Y-148050500D01*
X93877259Y-148036765D01*
X93969409Y-148022171D01*
X94141639Y-147966211D01*
X94302994Y-147883996D01*
X94449501Y-147777553D01*
X94577553Y-147649501D01*
X94683996Y-147502994D01*
X94766211Y-147341639D01*
X94822171Y-147169409D01*
X94836765Y-147077259D01*
X94850500Y-146990551D01*
X94850500Y-146809448D01*
X94834019Y-146705397D01*
X94822171Y-146630591D01*
X94766211Y-146458361D01*
X94766211Y-146458360D01*
X94736219Y-146399499D01*
X94683996Y-146297006D01*
X94636611Y-146231786D01*
X94577558Y-146150505D01*
X94577554Y-146150500D01*
X94449499Y-146022445D01*
X94449494Y-146022441D01*
X94302997Y-145916006D01*
X94302996Y-145916005D01*
X94302994Y-145916004D01*
X94251300Y-145889664D01*
X94141639Y-145833788D01*
X94141636Y-145833787D01*
X93969410Y-145777829D01*
X93790551Y-145749500D01*
X93790546Y-145749500D01*
X92309454Y-145749500D01*
X92309449Y-145749500D01*
X92130589Y-145777829D01*
X91958363Y-145833787D01*
X91958360Y-145833788D01*
X91797002Y-145916006D01*
X91650505Y-146022441D01*
X91650500Y-146022445D01*
X91522445Y-146150500D01*
X91522441Y-146150505D01*
X91416006Y-146297002D01*
X91333788Y-146458360D01*
X91333789Y-146458361D01*
X91277829Y-146630589D01*
X91249500Y-146809448D01*
X88600500Y-146809448D01*
X88600500Y-129920943D01*
X88559577Y-129768216D01*
X88559577Y-129768215D01*
X88559577Y-129768214D01*
X88530639Y-129718095D01*
X88530637Y-129718092D01*
X88480520Y-129631284D01*
X88368716Y-129519480D01*
X88368715Y-129519479D01*
X88364385Y-129515149D01*
X88364374Y-129515139D01*
X86758683Y-127909448D01*
X91249500Y-127909448D01*
X91249500Y-128090551D01*
X91277829Y-128269410D01*
X91333787Y-128441636D01*
X91333788Y-128441639D01*
X91389664Y-128551300D01*
X91414743Y-128600520D01*
X91416006Y-128602997D01*
X91522441Y-128749494D01*
X91522445Y-128749499D01*
X91650500Y-128877554D01*
X91650505Y-128877558D01*
X91778287Y-128970396D01*
X91797006Y-128983996D01*
X91902484Y-129037740D01*
X91958360Y-129066211D01*
X91958363Y-129066212D01*
X91996811Y-129078704D01*
X92130591Y-129122171D01*
X92213429Y-129135291D01*
X92309449Y-129150500D01*
X92309454Y-129150500D01*
X93790551Y-129150500D01*
X93877259Y-129136765D01*
X93969409Y-129122171D01*
X94141639Y-129066211D01*
X94302994Y-128983996D01*
X94449501Y-128877553D01*
X94577553Y-128749501D01*
X94683996Y-128602994D01*
X94766211Y-128441639D01*
X94822171Y-128269409D01*
X94836765Y-128177259D01*
X94850500Y-128090551D01*
X94850500Y-127909448D01*
X94827858Y-127766498D01*
X94822171Y-127730591D01*
X94766211Y-127558361D01*
X94766211Y-127558360D01*
X94706118Y-127440423D01*
X94683996Y-127397006D01*
X94670340Y-127378210D01*
X94577558Y-127250505D01*
X94577554Y-127250500D01*
X94449499Y-127122445D01*
X94449494Y-127122441D01*
X94302997Y-127016006D01*
X94302996Y-127016005D01*
X94302994Y-127016004D01*
X94251300Y-126989664D01*
X94141639Y-126933788D01*
X94141636Y-126933787D01*
X93969410Y-126877829D01*
X93790551Y-126849500D01*
X93790546Y-126849500D01*
X92309454Y-126849500D01*
X92309449Y-126849500D01*
X92130589Y-126877829D01*
X91958363Y-126933787D01*
X91958360Y-126933788D01*
X91797002Y-127016006D01*
X91650505Y-127122441D01*
X91650500Y-127122445D01*
X91522445Y-127250500D01*
X91522441Y-127250505D01*
X91416006Y-127397002D01*
X91333788Y-127558360D01*
X91333787Y-127558363D01*
X91277829Y-127730589D01*
X91249500Y-127909448D01*
X86758683Y-127909448D01*
X86487590Y-127638355D01*
X86487588Y-127638352D01*
X86368717Y-127519481D01*
X86368716Y-127519480D01*
X86281904Y-127469360D01*
X86281904Y-127469359D01*
X86281900Y-127469358D01*
X86231785Y-127440423D01*
X86079057Y-127399499D01*
X85920943Y-127399499D01*
X85913347Y-127399499D01*
X85913331Y-127399500D01*
X80579766Y-127399500D01*
X80512727Y-127379815D01*
X80510875Y-127378602D01*
X80379185Y-127290609D01*
X80379172Y-127290602D01*
X80233501Y-127230264D01*
X80233489Y-127230261D01*
X80078845Y-127199500D01*
X80078842Y-127199500D01*
X79921158Y-127199500D01*
X79921155Y-127199500D01*
X79766510Y-127230261D01*
X79766498Y-127230264D01*
X79620827Y-127290602D01*
X79620814Y-127290609D01*
X79489711Y-127378210D01*
X79489707Y-127378213D01*
X79378213Y-127489707D01*
X79378210Y-127489711D01*
X79290609Y-127620814D01*
X79290602Y-127620827D01*
X79230264Y-127766498D01*
X79230261Y-127766510D01*
X79199500Y-127921153D01*
X79199500Y-128078846D01*
X79230261Y-128233489D01*
X79230264Y-128233501D01*
X79290602Y-128379172D01*
X79290609Y-128379185D01*
X79378210Y-128510288D01*
X79378213Y-128510292D01*
X79489707Y-128621786D01*
X79489711Y-128621789D01*
X79620814Y-128709390D01*
X79620827Y-128709397D01*
X79766498Y-128769735D01*
X79766503Y-128769737D01*
X79921153Y-128800499D01*
X79921156Y-128800500D01*
X79921158Y-128800500D01*
X80078844Y-128800500D01*
X80078845Y-128800499D01*
X80233497Y-128769737D01*
X80379179Y-128709394D01*
X80379185Y-128709390D01*
X80510875Y-128621398D01*
X80577553Y-128600520D01*
X80579766Y-128600500D01*
X85699903Y-128600500D01*
X85766942Y-128620185D01*
X85787584Y-128636819D01*
X87363181Y-130212416D01*
X87396666Y-130273739D01*
X87399500Y-130300097D01*
X87399500Y-147750903D01*
X87379815Y-147817942D01*
X87327011Y-147863697D01*
X87257853Y-147873641D01*
X87194297Y-147844616D01*
X87187819Y-147838584D01*
X85987590Y-146638355D01*
X85987588Y-146638352D01*
X85868717Y-146519481D01*
X85868709Y-146519475D01*
X85762856Y-146458361D01*
X85762856Y-146458362D01*
X85731783Y-146440422D01*
X85675881Y-146425443D01*
X85579057Y-146399499D01*
X85420943Y-146399499D01*
X85413347Y-146399499D01*
X85413331Y-146399500D01*
X76300098Y-146399500D01*
X76233059Y-146379815D01*
X76212417Y-146363181D01*
X75636819Y-145787583D01*
X75603334Y-145726260D01*
X75600500Y-145699902D01*
X75600500Y-143117534D01*
X75620185Y-143050495D01*
X75672989Y-143004740D01*
X75711897Y-142994176D01*
X75752797Y-142989999D01*
X75919334Y-142934814D01*
X76068656Y-142842712D01*
X76192712Y-142718656D01*
X76284814Y-142569334D01*
X76339999Y-142402797D01*
X76350500Y-142300009D01*
X76350499Y-140699992D01*
X76339999Y-140597203D01*
X76284814Y-140430666D01*
X76262282Y-140394135D01*
X80691500Y-140394135D01*
X80691500Y-145405870D01*
X80691501Y-145405876D01*
X80697908Y-145465483D01*
X80748202Y-145600328D01*
X80748206Y-145600335D01*
X80834452Y-145715544D01*
X80834455Y-145715547D01*
X80949664Y-145801793D01*
X80949671Y-145801797D01*
X81084517Y-145852091D01*
X81084516Y-145852091D01*
X81091444Y-145852835D01*
X81144127Y-145858500D01*
X86155872Y-145858499D01*
X86215483Y-145852091D01*
X86350331Y-145801796D01*
X86465546Y-145715546D01*
X86551796Y-145600331D01*
X86602091Y-145465483D01*
X86608500Y-145405873D01*
X86608499Y-140394128D01*
X86602091Y-140334517D01*
X86551796Y-140199669D01*
X86551795Y-140199668D01*
X86551793Y-140199664D01*
X86465547Y-140084455D01*
X86465544Y-140084452D01*
X86350335Y-139998206D01*
X86350328Y-139998202D01*
X86215482Y-139947908D01*
X86215483Y-139947908D01*
X86155883Y-139941501D01*
X86155881Y-139941500D01*
X86155873Y-139941500D01*
X86155864Y-139941500D01*
X81144129Y-139941500D01*
X81144123Y-139941501D01*
X81084516Y-139947908D01*
X80949671Y-139998202D01*
X80949664Y-139998206D01*
X80834455Y-140084452D01*
X80834452Y-140084455D01*
X80748206Y-140199664D01*
X80748202Y-140199671D01*
X80697908Y-140334517D01*
X80691501Y-140394116D01*
X80691501Y-140394123D01*
X80691500Y-140394135D01*
X76262282Y-140394135D01*
X76192712Y-140281344D01*
X76068656Y-140157288D01*
X75950573Y-140084454D01*
X75919336Y-140065187D01*
X75919331Y-140065185D01*
X75917862Y-140064698D01*
X75752797Y-140010001D01*
X75752795Y-140010000D01*
X75650010Y-139999500D01*
X74349998Y-139999500D01*
X74349981Y-139999501D01*
X74247203Y-140010000D01*
X74247200Y-140010001D01*
X74080668Y-140065185D01*
X74080663Y-140065187D01*
X73931342Y-140157289D01*
X73807289Y-140281342D01*
X73715187Y-140430663D01*
X73715186Y-140430666D01*
X73660001Y-140597203D01*
X73660001Y-140597204D01*
X73660000Y-140597204D01*
X73649500Y-140699983D01*
X73649500Y-142300001D01*
X73649501Y-142300018D01*
X73660000Y-142402796D01*
X73660001Y-142402799D01*
X73698666Y-142519480D01*
X73715186Y-142569334D01*
X73807288Y-142718656D01*
X73931344Y-142842712D01*
X74080666Y-142934814D01*
X74247203Y-142989999D01*
X74288103Y-142994177D01*
X74352793Y-143020573D01*
X74392945Y-143077753D01*
X74399500Y-143117535D01*
X74399500Y-145913330D01*
X74399499Y-145913348D01*
X74399499Y-146079054D01*
X74399498Y-146079054D01*
X74440423Y-146231786D01*
X74440424Y-146231787D01*
X74467227Y-146278211D01*
X74516284Y-146363181D01*
X74519481Y-146368717D01*
X74638349Y-146487585D01*
X74638354Y-146487589D01*
X75631284Y-147480520D01*
X75631286Y-147480521D01*
X75631290Y-147480524D01*
X75768209Y-147559573D01*
X75768216Y-147559577D01*
X75920943Y-147600501D01*
X75920945Y-147600501D01*
X76086654Y-147600501D01*
X76086670Y-147600500D01*
X85199903Y-147600500D01*
X85266942Y-147620185D01*
X85287584Y-147636819D01*
X86363181Y-148712416D01*
X86396666Y-148773739D01*
X86399500Y-148800097D01*
X86399500Y-160699902D01*
X86379815Y-160766941D01*
X86363181Y-160787583D01*
X85787584Y-161363181D01*
X85726261Y-161396666D01*
X85699903Y-161399500D01*
X84079766Y-161399500D01*
X84012727Y-161379815D01*
X84010875Y-161378602D01*
X83879185Y-161290609D01*
X83879172Y-161290602D01*
X83733501Y-161230264D01*
X83733489Y-161230261D01*
X83578845Y-161199500D01*
X83578842Y-161199500D01*
X83421158Y-161199500D01*
X83421155Y-161199500D01*
X83266510Y-161230261D01*
X83266498Y-161230264D01*
X83120827Y-161290602D01*
X83120814Y-161290609D01*
X82989711Y-161378210D01*
X82989707Y-161378213D01*
X82878213Y-161489707D01*
X82878210Y-161489711D01*
X82790609Y-161620814D01*
X82790602Y-161620827D01*
X82730264Y-161766498D01*
X82730261Y-161766510D01*
X82699500Y-161921153D01*
X82699500Y-162078846D01*
X82730261Y-162233489D01*
X82730264Y-162233501D01*
X82790602Y-162379172D01*
X82790609Y-162379185D01*
X82859047Y-162481609D01*
X82879925Y-162548287D01*
X82861440Y-162615667D01*
X82809462Y-162662357D01*
X82755945Y-162674500D01*
X75579766Y-162674500D01*
X75512727Y-162654815D01*
X75510875Y-162653602D01*
X75379185Y-162565609D01*
X75379172Y-162565602D01*
X75233501Y-162505264D01*
X75233489Y-162505261D01*
X75078845Y-162474500D01*
X75078842Y-162474500D01*
X74921158Y-162474500D01*
X74921155Y-162474500D01*
X74766510Y-162505261D01*
X74766503Y-162505263D01*
X74621132Y-162565476D01*
X74551663Y-162572944D01*
X74489184Y-162541668D01*
X74453532Y-162481579D01*
X74456027Y-162411754D01*
X74485997Y-162363236D01*
X75014662Y-161834572D01*
X75075983Y-161801089D01*
X75078150Y-161800638D01*
X75136085Y-161789113D01*
X75233497Y-161769737D01*
X75379179Y-161709394D01*
X75510289Y-161621789D01*
X75621789Y-161510289D01*
X75709394Y-161379179D01*
X75769737Y-161233497D01*
X75800500Y-161078842D01*
X75800500Y-160921158D01*
X75800500Y-160921155D01*
X75800499Y-160921153D01*
X75773930Y-160787583D01*
X75769737Y-160766503D01*
X75752702Y-160725376D01*
X75709397Y-160620827D01*
X75709390Y-160620814D01*
X75621789Y-160489711D01*
X75621786Y-160489707D01*
X75510292Y-160378213D01*
X75510288Y-160378210D01*
X75379185Y-160290609D01*
X75379172Y-160290602D01*
X75233501Y-160230264D01*
X75233489Y-160230261D01*
X75078845Y-160199500D01*
X75078842Y-160199500D01*
X74921158Y-160199500D01*
X74921155Y-160199500D01*
X74766510Y-160230261D01*
X74766498Y-160230264D01*
X74620827Y-160290602D01*
X74620814Y-160290609D01*
X74489711Y-160378210D01*
X74489707Y-160378213D01*
X74378213Y-160489707D01*
X74378210Y-160489711D01*
X74290609Y-160620814D01*
X74290602Y-160620827D01*
X74230264Y-160766498D01*
X74230261Y-160766508D01*
X74199361Y-160921850D01*
X74166976Y-160983761D01*
X74165425Y-160985339D01*
X73287584Y-161863181D01*
X73226261Y-161896666D01*
X73199903Y-161899500D01*
X68300098Y-161899500D01*
X68233059Y-161879815D01*
X68212417Y-161863181D01*
X67636819Y-161287583D01*
X67603334Y-161226260D01*
X67600500Y-161199902D01*
X67600500Y-158921153D01*
X75199500Y-158921153D01*
X75199500Y-159078846D01*
X75230261Y-159233489D01*
X75230264Y-159233501D01*
X75290602Y-159379172D01*
X75290609Y-159379185D01*
X75378210Y-159510288D01*
X75378213Y-159510292D01*
X75489707Y-159621786D01*
X75489711Y-159621789D01*
X75620814Y-159709390D01*
X75620827Y-159709397D01*
X75766498Y-159769735D01*
X75766503Y-159769737D01*
X75921153Y-159800499D01*
X75921156Y-159800500D01*
X75921158Y-159800500D01*
X76078844Y-159800500D01*
X76078845Y-159800499D01*
X76233497Y-159769737D01*
X76379179Y-159709394D01*
X76510289Y-159621789D01*
X76621789Y-159510289D01*
X76709394Y-159379179D01*
X76769737Y-159233497D01*
X76800500Y-159078842D01*
X76800500Y-158921158D01*
X76800500Y-158921155D01*
X76800499Y-158921153D01*
X76769738Y-158766510D01*
X76769737Y-158766503D01*
X76769735Y-158766498D01*
X76709397Y-158620827D01*
X76709390Y-158620814D01*
X76621789Y-158489711D01*
X76621786Y-158489707D01*
X76510292Y-158378213D01*
X76510288Y-158378210D01*
X76379185Y-158290609D01*
X76379172Y-158290602D01*
X76233501Y-158230264D01*
X76233489Y-158230261D01*
X76078845Y-158199500D01*
X76078842Y-158199500D01*
X75921158Y-158199500D01*
X75921155Y-158199500D01*
X75766510Y-158230261D01*
X75766498Y-158230264D01*
X75620827Y-158290602D01*
X75620814Y-158290609D01*
X75489711Y-158378210D01*
X75489707Y-158378213D01*
X75378213Y-158489707D01*
X75378210Y-158489711D01*
X75290609Y-158620814D01*
X75290602Y-158620827D01*
X75230264Y-158766498D01*
X75230261Y-158766510D01*
X75199500Y-158921153D01*
X67600500Y-158921153D01*
X67600500Y-154631902D01*
X71249500Y-154631902D01*
X71249500Y-154868097D01*
X71286446Y-155101368D01*
X71359433Y-155325996D01*
X71463432Y-155530103D01*
X71466657Y-155536433D01*
X71605483Y-155727510D01*
X71772490Y-155894517D01*
X71963567Y-156033343D01*
X72062991Y-156084002D01*
X72174003Y-156140566D01*
X72174005Y-156140566D01*
X72174008Y-156140568D01*
X72294412Y-156179689D01*
X72398631Y-156213553D01*
X72631903Y-156250500D01*
X72631908Y-156250500D01*
X72868097Y-156250500D01*
X73101368Y-156213553D01*
X73325992Y-156140568D01*
X73536433Y-156033343D01*
X73727510Y-155894517D01*
X73894517Y-155727510D01*
X74033343Y-155536433D01*
X74093583Y-155418204D01*
X74141558Y-155367409D01*
X74204068Y-155350500D01*
X77795932Y-155350500D01*
X77862971Y-155370185D01*
X77906416Y-155418203D01*
X77966657Y-155536433D01*
X78105483Y-155727510D01*
X78272490Y-155894517D01*
X78463567Y-156033343D01*
X78562991Y-156084002D01*
X78674003Y-156140566D01*
X78674005Y-156140566D01*
X78674008Y-156140568D01*
X78794412Y-156179689D01*
X78898631Y-156213553D01*
X79131903Y-156250500D01*
X79131908Y-156250500D01*
X79368097Y-156250500D01*
X79601368Y-156213553D01*
X79825992Y-156140568D01*
X80036433Y-156033343D01*
X80227510Y-155894517D01*
X80394517Y-155727510D01*
X80533343Y-155536433D01*
X80640568Y-155325992D01*
X80713553Y-155101368D01*
X80726692Y-155018412D01*
X80750500Y-154868097D01*
X80750500Y-154631902D01*
X80713553Y-154398631D01*
X80679689Y-154294412D01*
X80640568Y-154174008D01*
X80640566Y-154174005D01*
X80640566Y-154174003D01*
X80542525Y-153981588D01*
X80533343Y-153963567D01*
X80394517Y-153772490D01*
X80227510Y-153605483D01*
X80036433Y-153466657D01*
X79825996Y-153359433D01*
X79601368Y-153286446D01*
X79368097Y-153249500D01*
X79368092Y-153249500D01*
X79131908Y-153249500D01*
X79131903Y-153249500D01*
X78898631Y-153286446D01*
X78674003Y-153359433D01*
X78463566Y-153466657D01*
X78354550Y-153545862D01*
X78272490Y-153605483D01*
X78272488Y-153605485D01*
X78272487Y-153605485D01*
X78105485Y-153772487D01*
X78105485Y-153772488D01*
X78105483Y-153772490D01*
X78045862Y-153854550D01*
X77966657Y-153963566D01*
X77906417Y-154081795D01*
X77858442Y-154132591D01*
X77795932Y-154149500D01*
X74204068Y-154149500D01*
X74137029Y-154129815D01*
X74093583Y-154081795D01*
X74042525Y-153981588D01*
X74033343Y-153963567D01*
X73894517Y-153772490D01*
X73727510Y-153605483D01*
X73536433Y-153466657D01*
X73325996Y-153359433D01*
X73101368Y-153286446D01*
X72868097Y-153249500D01*
X72868092Y-153249500D01*
X72631908Y-153249500D01*
X72631903Y-153249500D01*
X72398631Y-153286446D01*
X72174003Y-153359433D01*
X71963566Y-153466657D01*
X71854550Y-153545862D01*
X71772490Y-153605483D01*
X71772488Y-153605485D01*
X71772487Y-153605485D01*
X71605485Y-153772487D01*
X71605485Y-153772488D01*
X71605483Y-153772490D01*
X71545862Y-153854550D01*
X71466657Y-153963566D01*
X71359433Y-154174003D01*
X71286446Y-154398631D01*
X71249500Y-154631902D01*
X67600500Y-154631902D01*
X67600500Y-150131902D01*
X71249500Y-150131902D01*
X71249500Y-150368097D01*
X71286446Y-150601368D01*
X71359433Y-150825996D01*
X71466657Y-151036433D01*
X71605483Y-151227510D01*
X71772490Y-151394517D01*
X71963567Y-151533343D01*
X72062991Y-151584002D01*
X72174003Y-151640566D01*
X72174005Y-151640566D01*
X72174008Y-151640568D01*
X72294412Y-151679689D01*
X72398631Y-151713553D01*
X72631903Y-151750500D01*
X72631908Y-151750500D01*
X72868097Y-151750500D01*
X73101368Y-151713553D01*
X73325992Y-151640568D01*
X73536433Y-151533343D01*
X73727510Y-151394517D01*
X73894517Y-151227510D01*
X74033343Y-151036433D01*
X74093583Y-150918204D01*
X74141558Y-150867409D01*
X74204068Y-150850500D01*
X77795932Y-150850500D01*
X77862971Y-150870185D01*
X77906416Y-150918203D01*
X77966657Y-151036433D01*
X78105483Y-151227510D01*
X78272490Y-151394517D01*
X78463567Y-151533343D01*
X78562991Y-151584002D01*
X78674003Y-151640566D01*
X78674005Y-151640566D01*
X78674008Y-151640568D01*
X78794412Y-151679689D01*
X78898631Y-151713553D01*
X79131903Y-151750500D01*
X79131908Y-151750500D01*
X79368097Y-151750500D01*
X79601368Y-151713553D01*
X79825992Y-151640568D01*
X80036433Y-151533343D01*
X80227510Y-151394517D01*
X80394517Y-151227510D01*
X80533343Y-151036433D01*
X80640568Y-150825992D01*
X80713553Y-150601368D01*
X80750500Y-150368097D01*
X80750500Y-150131902D01*
X80713553Y-149898631D01*
X80640566Y-149674003D01*
X80533342Y-149463566D01*
X80394517Y-149272490D01*
X80227510Y-149105483D01*
X80036433Y-148966657D01*
X79825996Y-148859433D01*
X79601368Y-148786446D01*
X79368097Y-148749500D01*
X79368092Y-148749500D01*
X79131908Y-148749500D01*
X79131903Y-148749500D01*
X78898631Y-148786446D01*
X78674003Y-148859433D01*
X78463566Y-148966657D01*
X78354550Y-149045862D01*
X78272490Y-149105483D01*
X78272488Y-149105485D01*
X78272487Y-149105485D01*
X78105485Y-149272487D01*
X78105485Y-149272488D01*
X78105483Y-149272490D01*
X78045862Y-149354550D01*
X77966657Y-149463566D01*
X77906417Y-149581795D01*
X77858442Y-149632591D01*
X77795932Y-149649500D01*
X74204068Y-149649500D01*
X74137029Y-149629815D01*
X74093583Y-149581795D01*
X74033342Y-149463566D01*
X73894517Y-149272490D01*
X73727510Y-149105483D01*
X73536433Y-148966657D01*
X73325996Y-148859433D01*
X73101368Y-148786446D01*
X72868097Y-148749500D01*
X72868092Y-148749500D01*
X72631908Y-148749500D01*
X72631903Y-148749500D01*
X72398631Y-148786446D01*
X72174003Y-148859433D01*
X71963566Y-148966657D01*
X71854550Y-149045862D01*
X71772490Y-149105483D01*
X71772488Y-149105485D01*
X71772487Y-149105485D01*
X71605485Y-149272487D01*
X71605485Y-149272488D01*
X71605483Y-149272490D01*
X71545862Y-149354550D01*
X71466657Y-149463566D01*
X71359433Y-149674003D01*
X71286446Y-149898631D01*
X71249500Y-150131902D01*
X67600500Y-150131902D01*
X67600500Y-144300097D01*
X67620185Y-144233058D01*
X67636819Y-144212416D01*
X67980520Y-143868716D01*
X67980521Y-143868714D01*
X68212418Y-143636816D01*
X68273740Y-143603334D01*
X68300098Y-143600500D01*
X68420943Y-143600500D01*
X70913331Y-143600500D01*
X70913347Y-143600501D01*
X70920943Y-143600501D01*
X71079054Y-143600501D01*
X71079057Y-143600501D01*
X71231785Y-143559577D01*
X71281904Y-143530639D01*
X71368716Y-143480520D01*
X71480520Y-143368716D01*
X71480520Y-143368714D01*
X71490728Y-143358507D01*
X71490729Y-143358504D01*
X72480520Y-142368716D01*
X72559577Y-142231784D01*
X72600501Y-142079057D01*
X72600501Y-141920942D01*
X72600501Y-141913347D01*
X72600500Y-141913329D01*
X72600500Y-138800096D01*
X72620185Y-138733057D01*
X72636814Y-138712420D01*
X73858506Y-137490727D01*
X73858511Y-137490724D01*
X73868714Y-137480520D01*
X73868716Y-137480520D01*
X73980520Y-137368716D01*
X74059577Y-137231784D01*
X74089534Y-137119981D01*
X74100500Y-137079058D01*
X74100500Y-136920943D01*
X74100500Y-134420943D01*
X74100500Y-134420941D01*
X74100499Y-134420938D01*
X74100162Y-134419680D01*
X74100153Y-134419648D01*
X74083752Y-134358439D01*
X74059576Y-134268214D01*
X74059573Y-134268209D01*
X73980524Y-134131290D01*
X73980521Y-134131286D01*
X73980520Y-134131284D01*
X73868716Y-134019480D01*
X73868715Y-134019479D01*
X73864385Y-134015149D01*
X73864374Y-134015139D01*
X72487590Y-132638355D01*
X72487588Y-132638352D01*
X72368717Y-132519481D01*
X72368716Y-132519480D01*
X72281904Y-132469360D01*
X72281904Y-132469359D01*
X72281900Y-132469358D01*
X72231785Y-132440423D01*
X72079057Y-132399499D01*
X71920943Y-132399499D01*
X71913347Y-132399499D01*
X71913331Y-132399500D01*
X71579766Y-132399500D01*
X71512727Y-132379815D01*
X71510875Y-132378602D01*
X71379185Y-132290609D01*
X71379172Y-132290602D01*
X71233501Y-132230264D01*
X71233489Y-132230261D01*
X71078845Y-132199500D01*
X71078842Y-132199500D01*
X70921158Y-132199500D01*
X70921155Y-132199500D01*
X70766510Y-132230261D01*
X70766498Y-132230264D01*
X70620827Y-132290602D01*
X70620814Y-132290609D01*
X70489711Y-132378210D01*
X70489707Y-132378213D01*
X70378213Y-132489707D01*
X70378210Y-132489711D01*
X70290609Y-132620814D01*
X70290602Y-132620827D01*
X70230264Y-132766498D01*
X70230261Y-132766510D01*
X70199500Y-132921153D01*
X70199500Y-133078846D01*
X70230261Y-133233489D01*
X70230264Y-133233501D01*
X70290602Y-133379172D01*
X70290609Y-133379185D01*
X70378210Y-133510288D01*
X70378213Y-133510292D01*
X70489707Y-133621786D01*
X70489711Y-133621789D01*
X70620814Y-133709390D01*
X70620827Y-133709397D01*
X70766498Y-133769735D01*
X70766503Y-133769737D01*
X70921153Y-133800499D01*
X70921156Y-133800500D01*
X70921158Y-133800500D01*
X71078844Y-133800500D01*
X71078845Y-133800499D01*
X71233497Y-133769737D01*
X71379179Y-133709394D01*
X71379185Y-133709390D01*
X71510875Y-133621398D01*
X71528921Y-133615747D01*
X71544831Y-133605523D01*
X71575792Y-133601071D01*
X71577553Y-133600520D01*
X71579766Y-133600500D01*
X71699903Y-133600500D01*
X71766942Y-133620185D01*
X71787584Y-133636819D01*
X72863181Y-134712416D01*
X72896666Y-134773739D01*
X72899500Y-134800097D01*
X72899500Y-136699902D01*
X72879815Y-136766941D01*
X72863181Y-136787583D01*
X71519481Y-138131282D01*
X71519479Y-138131285D01*
X71469361Y-138218094D01*
X71469359Y-138218096D01*
X71440425Y-138268209D01*
X71440424Y-138268210D01*
X71440423Y-138268215D01*
X71399499Y-138420943D01*
X71399499Y-138420945D01*
X71399499Y-138589046D01*
X71399500Y-138589059D01*
X71399500Y-141699902D01*
X71379815Y-141766941D01*
X71363181Y-141787583D01*
X70787584Y-142363181D01*
X70726261Y-142396666D01*
X70699903Y-142399500D01*
X68357195Y-142399500D01*
X68290156Y-142379815D01*
X68244401Y-142327011D01*
X68234457Y-142257853D01*
X68263482Y-142194297D01*
X68292099Y-142169961D01*
X68336277Y-142142712D01*
X68460333Y-142018656D01*
X68552435Y-141869334D01*
X68607620Y-141702797D01*
X68618121Y-141600009D01*
X68618120Y-140399992D01*
X68617520Y-140394123D01*
X68607620Y-140297203D01*
X68607619Y-140297200D01*
X68575300Y-140199669D01*
X68552435Y-140130666D01*
X68460333Y-139981344D01*
X68336277Y-139857288D01*
X68186955Y-139765186D01*
X68020418Y-139710001D01*
X68020416Y-139710000D01*
X67917637Y-139699500D01*
X66724500Y-139699500D01*
X66657461Y-139679815D01*
X66611706Y-139627011D01*
X66600500Y-139575500D01*
X66600500Y-138300097D01*
X66620185Y-138233058D01*
X66636819Y-138212416D01*
X67712416Y-137136819D01*
X67773739Y-137103334D01*
X67800097Y-137100500D01*
X70920234Y-137100500D01*
X70987273Y-137120185D01*
X70989125Y-137121398D01*
X71120814Y-137209390D01*
X71120827Y-137209397D01*
X71242387Y-137259748D01*
X71266503Y-137269737D01*
X71421153Y-137300499D01*
X71421156Y-137300500D01*
X71421158Y-137300500D01*
X71578844Y-137300500D01*
X71578845Y-137300499D01*
X71733497Y-137269737D01*
X71879179Y-137209394D01*
X72010289Y-137121789D01*
X72121789Y-137010289D01*
X72209394Y-136879179D01*
X72269737Y-136733497D01*
X72300500Y-136578842D01*
X72300500Y-136421158D01*
X72300500Y-136421155D01*
X72300499Y-136421153D01*
X72269738Y-136266510D01*
X72269737Y-136266503D01*
X72213728Y-136131284D01*
X72209397Y-136120827D01*
X72209390Y-136120814D01*
X72121789Y-135989711D01*
X72121786Y-135989707D01*
X72010292Y-135878213D01*
X72010288Y-135878210D01*
X71879185Y-135790609D01*
X71879172Y-135790602D01*
X71733501Y-135730264D01*
X71733489Y-135730261D01*
X71578845Y-135699500D01*
X71578842Y-135699500D01*
X71421158Y-135699500D01*
X71421155Y-135699500D01*
X71266510Y-135730261D01*
X71266498Y-135730264D01*
X71120827Y-135790602D01*
X71120814Y-135790609D01*
X70989125Y-135878602D01*
X70922447Y-135899480D01*
X70920234Y-135899500D01*
X67420940Y-135899500D01*
X67380019Y-135910464D01*
X67380019Y-135910465D01*
X67342751Y-135920451D01*
X67268214Y-135940423D01*
X67268209Y-135940426D01*
X67131290Y-136019475D01*
X67131282Y-136019481D01*
X65812181Y-137338583D01*
X65750858Y-137372068D01*
X65681166Y-137367084D01*
X65625233Y-137325212D01*
X65600816Y-137259748D01*
X65600500Y-137250902D01*
X65600500Y-124874038D01*
X80039500Y-124874038D01*
X80039500Y-125125961D01*
X80078910Y-125374785D01*
X80156760Y-125614383D01*
X80271132Y-125838848D01*
X80419201Y-126042649D01*
X80419205Y-126042654D01*
X80597345Y-126220794D01*
X80597350Y-126220798D01*
X80775117Y-126349952D01*
X80801155Y-126368870D01*
X80944184Y-126441747D01*
X81025616Y-126483239D01*
X81025618Y-126483239D01*
X81025621Y-126483241D01*
X81265215Y-126561090D01*
X81514038Y-126600500D01*
X81514039Y-126600500D01*
X81765961Y-126600500D01*
X81765962Y-126600500D01*
X82014785Y-126561090D01*
X82254379Y-126483241D01*
X82478845Y-126368870D01*
X82682656Y-126220793D01*
X82860793Y-126042656D01*
X83008870Y-125838845D01*
X83123241Y-125614379D01*
X83201090Y-125374785D01*
X83240500Y-125125962D01*
X83240500Y-124874038D01*
X83201090Y-124625215D01*
X83123241Y-124385621D01*
X83123239Y-124385618D01*
X83123239Y-124385616D01*
X83008869Y-124161154D01*
X83008865Y-124161148D01*
X82964426Y-124099982D01*
X90199500Y-124099982D01*
X90199500Y-125900017D01*
X90210000Y-126002796D01*
X90265185Y-126169332D01*
X90265186Y-126169335D01*
X90357288Y-126318656D01*
X90481344Y-126442712D01*
X90630665Y-126534814D01*
X90797202Y-126589999D01*
X90899990Y-126600500D01*
X90899995Y-126600500D01*
X92700005Y-126600500D01*
X92700010Y-126600500D01*
X92802798Y-126589999D01*
X92969335Y-126534814D01*
X93118656Y-126442712D01*
X93242712Y-126318656D01*
X93334814Y-126169335D01*
X93389999Y-126002798D01*
X93400500Y-125900010D01*
X93400500Y-124099990D01*
X93389999Y-123997202D01*
X93334814Y-123830665D01*
X93242712Y-123681344D01*
X93118656Y-123557288D01*
X92969335Y-123465186D01*
X92802798Y-123410001D01*
X92802796Y-123410000D01*
X92700017Y-123399500D01*
X92700010Y-123399500D01*
X90899990Y-123399500D01*
X90899982Y-123399500D01*
X90797203Y-123410000D01*
X90797202Y-123410001D01*
X90714669Y-123437349D01*
X90630667Y-123465185D01*
X90630662Y-123465187D01*
X90481342Y-123557289D01*
X90357289Y-123681342D01*
X90265187Y-123830662D01*
X90265186Y-123830665D01*
X90210001Y-123997202D01*
X90210001Y-123997203D01*
X90210000Y-123997203D01*
X90199500Y-124099982D01*
X82964426Y-124099982D01*
X82860798Y-123957350D01*
X82860794Y-123957345D01*
X82682654Y-123779205D01*
X82682649Y-123779201D01*
X82478848Y-123631132D01*
X82478847Y-123631131D01*
X82478845Y-123631130D01*
X82408747Y-123595413D01*
X82254383Y-123516760D01*
X82014785Y-123438910D01*
X81765962Y-123399500D01*
X81514038Y-123399500D01*
X81447738Y-123410001D01*
X81265214Y-123438910D01*
X81025616Y-123516760D01*
X80801151Y-123631132D01*
X80597350Y-123779201D01*
X80597345Y-123779205D01*
X80419205Y-123957345D01*
X80419201Y-123957350D01*
X80271132Y-124161151D01*
X80156760Y-124385616D01*
X80078910Y-124625214D01*
X80039500Y-124874038D01*
X65600500Y-124874038D01*
X65600500Y-123039060D01*
X65600501Y-123039047D01*
X65600501Y-122870945D01*
X65600501Y-122870943D01*
X65559577Y-122718215D01*
X65480520Y-122581284D01*
X64555897Y-121656661D01*
X63336818Y-120437582D01*
X63303333Y-120376259D01*
X63300499Y-120349901D01*
X63300499Y-117202129D01*
X63300498Y-117202123D01*
X63300497Y-117202116D01*
X63294117Y-117142755D01*
X63294091Y-117142516D01*
X63243797Y-117007671D01*
X63243793Y-117007664D01*
X63157547Y-116892455D01*
X63157544Y-116892452D01*
X63042335Y-116806206D01*
X63042328Y-116806202D01*
X62907482Y-116755908D01*
X62907483Y-116755908D01*
X62847883Y-116749501D01*
X62847881Y-116749500D01*
X62847873Y-116749500D01*
X62847864Y-116749500D01*
X60252129Y-116749500D01*
X60252123Y-116749501D01*
X60192516Y-116755908D01*
X60057671Y-116806202D01*
X60057664Y-116806206D01*
X59942455Y-116892452D01*
X59942452Y-116892455D01*
X59856206Y-117007664D01*
X59856202Y-117007671D01*
X59805908Y-117142517D01*
X59799501Y-117202116D01*
X59799501Y-117202123D01*
X59799500Y-117202135D01*
X49500500Y-117202135D01*
X49500500Y-112499999D01*
X64494500Y-112499999D01*
X64494500Y-119500002D01*
X64499644Y-119571940D01*
X64540182Y-119709994D01*
X64617967Y-119831030D01*
X64617971Y-119831034D01*
X64726700Y-119925249D01*
X64726706Y-119925254D01*
X64767174Y-119943735D01*
X64857580Y-119985023D01*
X64857583Y-119985023D01*
X64857584Y-119985024D01*
X65000000Y-120005500D01*
X65125500Y-120005500D01*
X65192539Y-120025185D01*
X65238294Y-120077989D01*
X65249500Y-120129500D01*
X65249500Y-120614741D01*
X65274446Y-120804215D01*
X65279452Y-120842238D01*
X65279453Y-120842240D01*
X65338842Y-121063887D01*
X65426650Y-121275876D01*
X65426657Y-121275890D01*
X65541392Y-121474617D01*
X65681081Y-121656661D01*
X65681089Y-121656670D01*
X65843330Y-121818911D01*
X65843338Y-121818918D01*
X66025382Y-121958607D01*
X66025385Y-121958608D01*
X66025388Y-121958611D01*
X66224112Y-122073344D01*
X66224117Y-122073346D01*
X66224123Y-122073349D01*
X66306313Y-122107393D01*
X66436113Y-122161158D01*
X66657762Y-122220548D01*
X66874312Y-122249057D01*
X66885250Y-122250498D01*
X66885266Y-122250500D01*
X66885273Y-122250500D01*
X67114727Y-122250500D01*
X67114734Y-122250500D01*
X67342238Y-122220548D01*
X67563887Y-122161158D01*
X67775888Y-122073344D01*
X67974612Y-121958611D01*
X68156661Y-121818919D01*
X68156665Y-121818914D01*
X68156670Y-121818911D01*
X68318911Y-121656670D01*
X68318914Y-121656665D01*
X68318919Y-121656661D01*
X68458611Y-121474612D01*
X68573344Y-121275888D01*
X68661158Y-121063887D01*
X68720548Y-120842238D01*
X68750500Y-120614734D01*
X68750500Y-120129500D01*
X68770185Y-120062461D01*
X68822989Y-120016706D01*
X68874500Y-120005500D01*
X69000000Y-120005500D01*
X69071940Y-120000355D01*
X69209992Y-119959819D01*
X69331032Y-119882031D01*
X69425254Y-119773294D01*
X69485024Y-119642416D01*
X69505500Y-119500000D01*
X69505500Y-117129500D01*
X69525185Y-117062461D01*
X69577989Y-117016706D01*
X69629500Y-117005500D01*
X71169557Y-117005500D01*
X71236596Y-117025185D01*
X71282351Y-117077989D01*
X71292295Y-117147147D01*
X71263270Y-117210703D01*
X71257238Y-117217181D01*
X71131081Y-117343338D01*
X70991392Y-117525382D01*
X70876657Y-117724109D01*
X70876650Y-117724123D01*
X70788842Y-117936112D01*
X70729453Y-118157759D01*
X70729451Y-118157770D01*
X70699500Y-118385258D01*
X70699500Y-120614741D01*
X70724446Y-120804215D01*
X70729452Y-120842238D01*
X70729453Y-120842240D01*
X70788842Y-121063887D01*
X70876650Y-121275876D01*
X70876657Y-121275890D01*
X70991392Y-121474617D01*
X71131081Y-121656661D01*
X71131089Y-121656670D01*
X71293330Y-121818911D01*
X71293338Y-121818918D01*
X71475382Y-121958607D01*
X71475385Y-121958608D01*
X71475388Y-121958611D01*
X71674112Y-122073344D01*
X71674117Y-122073346D01*
X71674123Y-122073349D01*
X71756313Y-122107393D01*
X71886113Y-122161158D01*
X72107762Y-122220548D01*
X72324312Y-122249057D01*
X72335250Y-122250498D01*
X72335266Y-122250500D01*
X72335273Y-122250500D01*
X72564727Y-122250500D01*
X72564734Y-122250500D01*
X72792238Y-122220548D01*
X73013887Y-122161158D01*
X73225888Y-122073344D01*
X73424612Y-121958611D01*
X73606661Y-121818919D01*
X73606665Y-121818914D01*
X73606670Y-121818911D01*
X73768911Y-121656670D01*
X73768914Y-121656665D01*
X73768919Y-121656661D01*
X73908611Y-121474612D01*
X74023344Y-121275888D01*
X74111158Y-121063887D01*
X74170548Y-120842238D01*
X74200500Y-120614734D01*
X74200500Y-118385266D01*
X74170548Y-118157762D01*
X74111158Y-117936113D01*
X74023344Y-117724112D01*
X73908611Y-117525388D01*
X73908608Y-117525385D01*
X73908607Y-117525382D01*
X73768918Y-117343338D01*
X73768911Y-117343330D01*
X73642762Y-117217181D01*
X73609277Y-117155858D01*
X73614261Y-117086166D01*
X73656133Y-117030233D01*
X73721597Y-117005816D01*
X73730443Y-117005500D01*
X77632594Y-117005500D01*
X77699633Y-117025185D01*
X77745388Y-117077989D01*
X77755883Y-117142752D01*
X77749500Y-117202127D01*
X77749500Y-117202134D01*
X77749500Y-117202135D01*
X77749500Y-121797870D01*
X77749501Y-121797876D01*
X77755908Y-121857483D01*
X77806202Y-121992328D01*
X77806206Y-121992335D01*
X77892452Y-122107544D01*
X77892455Y-122107547D01*
X78007664Y-122193793D01*
X78007671Y-122193797D01*
X78142517Y-122244091D01*
X78142516Y-122244091D01*
X78149444Y-122244835D01*
X78202127Y-122250500D01*
X80797872Y-122250499D01*
X80857483Y-122244091D01*
X80992331Y-122193796D01*
X81107546Y-122107546D01*
X81193796Y-121992331D01*
X81244091Y-121857483D01*
X81250500Y-121797873D01*
X81250499Y-117202128D01*
X81244116Y-117142752D01*
X81256522Y-117073995D01*
X81304133Y-117022858D01*
X81367406Y-117005500D01*
X82370500Y-117005500D01*
X82437539Y-117025185D01*
X82483294Y-117077989D01*
X82494500Y-117129500D01*
X82494500Y-119500002D01*
X82499644Y-119571940D01*
X82540182Y-119709994D01*
X82617967Y-119831030D01*
X82617971Y-119831034D01*
X82726700Y-119925249D01*
X82726706Y-119925254D01*
X82767174Y-119943735D01*
X82857580Y-119985023D01*
X82857583Y-119985023D01*
X82857584Y-119985024D01*
X83000000Y-120005500D01*
X83075500Y-120005500D01*
X83142539Y-120025185D01*
X83188294Y-120077989D01*
X83199500Y-120129500D01*
X83199500Y-120614741D01*
X83224446Y-120804215D01*
X83229452Y-120842238D01*
X83229453Y-120842240D01*
X83288842Y-121063887D01*
X83376650Y-121275876D01*
X83376657Y-121275890D01*
X83491392Y-121474617D01*
X83631081Y-121656661D01*
X83631089Y-121656670D01*
X83793330Y-121818911D01*
X83793338Y-121818918D01*
X83975382Y-121958607D01*
X83975385Y-121958608D01*
X83975388Y-121958611D01*
X84174112Y-122073344D01*
X84174117Y-122073346D01*
X84174123Y-122073349D01*
X84256313Y-122107393D01*
X84386113Y-122161158D01*
X84607762Y-122220548D01*
X84824312Y-122249057D01*
X84835250Y-122250498D01*
X84835266Y-122250500D01*
X84835273Y-122250500D01*
X85064727Y-122250500D01*
X85064734Y-122250500D01*
X85292238Y-122220548D01*
X85513887Y-122161158D01*
X85725888Y-122073344D01*
X85924612Y-121958611D01*
X86106661Y-121818919D01*
X86106665Y-121818914D01*
X86106670Y-121818911D01*
X86268911Y-121656670D01*
X86268914Y-121656665D01*
X86268919Y-121656661D01*
X86408611Y-121474612D01*
X86523344Y-121275888D01*
X86611158Y-121063887D01*
X86670548Y-120842238D01*
X86700500Y-120614734D01*
X86700500Y-120129500D01*
X86720185Y-120062461D01*
X86772989Y-120016706D01*
X86824500Y-120005500D01*
X87000000Y-120005500D01*
X87071940Y-120000355D01*
X87209992Y-119959819D01*
X87331032Y-119882031D01*
X87425254Y-119773294D01*
X87485024Y-119642416D01*
X87505500Y-119500000D01*
X87505500Y-112500000D01*
X87500355Y-112428060D01*
X87459819Y-112290008D01*
X87382031Y-112168968D01*
X87323173Y-112117967D01*
X87273299Y-112074750D01*
X87273297Y-112074748D01*
X87273294Y-112074746D01*
X87273290Y-112074744D01*
X87142419Y-112014976D01*
X87142414Y-112014975D01*
X87000000Y-111994500D01*
X69000000Y-111994500D01*
X65000000Y-111994500D01*
X64999997Y-111994500D01*
X64928059Y-111999644D01*
X64790005Y-112040182D01*
X64668969Y-112117967D01*
X64668965Y-112117971D01*
X64574750Y-112226700D01*
X64574744Y-112226709D01*
X64514976Y-112357580D01*
X64514975Y-112357585D01*
X64494500Y-112499999D01*
X49500500Y-112499999D01*
X49500500Y-109624500D01*
X49520185Y-109557461D01*
X49572989Y-109511706D01*
X49624500Y-109500500D01*
X95375500Y-109500500D01*
X95442539Y-109520185D01*
G37*
%TD.AperFunction*%
%TD*%
M02*
