%TF.GenerationSoftware,KiCad,Pcbnew,9.0.3*%
%TF.CreationDate,2025-12-08T06:42:03-06:00*%
%TF.ProjectId,roboboat bms v2,726f626f-626f-4617-9420-626d73207632,rev?*%
%TF.SameCoordinates,Original*%
%TF.FileFunction,Copper,L2,Inr*%
%TF.FilePolarity,Positive*%
%FSLAX46Y46*%
G04 Gerber Fmt 4.6, Leading zero omitted, Abs format (unit mm)*
G04 Created by KiCad (PCBNEW 9.0.3) date 2025-12-08 06:42:03*
%MOMM*%
%LPD*%
G01*
G04 APERTURE LIST*
G04 Aperture macros list*
%AMRoundRect*
0 Rectangle with rounded corners*
0 $1 Rounding radius*
0 $2 $3 $4 $5 $6 $7 $8 $9 X,Y pos of 4 corners*
0 Add a 4 corners polygon primitive as box body*
4,1,4,$2,$3,$4,$5,$6,$7,$8,$9,$2,$3,0*
0 Add four circle primitives for the rounded corners*
1,1,$1+$1,$2,$3*
1,1,$1+$1,$4,$5*
1,1,$1+$1,$6,$7*
1,1,$1+$1,$8,$9*
0 Add four rect primitives between the rounded corners*
20,1,$1+$1,$2,$3,$4,$5,0*
20,1,$1+$1,$4,$5,$6,$7,0*
20,1,$1+$1,$6,$7,$8,$9,0*
20,1,$1+$1,$8,$9,$2,$3,0*%
G04 Aperture macros list end*
%TA.AperFunction,ComponentPad*%
%ADD10R,1.700000X1.700000*%
%TD*%
%TA.AperFunction,ComponentPad*%
%ADD11C,1.700000*%
%TD*%
%TA.AperFunction,ComponentPad*%
%ADD12C,2.000000*%
%TD*%
%TA.AperFunction,ComponentPad*%
%ADD13RoundRect,0.250000X-0.550000X-0.550000X0.550000X-0.550000X0.550000X0.550000X-0.550000X0.550000X0*%
%TD*%
%TA.AperFunction,ComponentPad*%
%ADD14C,1.600000*%
%TD*%
%TA.AperFunction,ComponentPad*%
%ADD15RoundRect,0.250000X-0.600000X-0.750000X0.600000X-0.750000X0.600000X0.750000X-0.600000X0.750000X0*%
%TD*%
%TA.AperFunction,ComponentPad*%
%ADD16O,1.700000X2.000000*%
%TD*%
%TA.AperFunction,ComponentPad*%
%ADD17RoundRect,0.250000X-0.725000X0.600000X-0.725000X-0.600000X0.725000X-0.600000X0.725000X0.600000X0*%
%TD*%
%TA.AperFunction,ComponentPad*%
%ADD18O,1.950000X1.700000*%
%TD*%
%TA.AperFunction,ComponentPad*%
%ADD19RoundRect,0.249999X0.850001X0.850001X-0.850001X0.850001X-0.850001X-0.850001X0.850001X-0.850001X0*%
%TD*%
%TA.AperFunction,ComponentPad*%
%ADD20C,2.200000*%
%TD*%
%TA.AperFunction,ComponentPad*%
%ADD21R,2.500000X4.500000*%
%TD*%
%TA.AperFunction,ComponentPad*%
%ADD22O,2.500000X4.500000*%
%TD*%
%TA.AperFunction,ComponentPad*%
%ADD23C,4.916000*%
%TD*%
%TA.AperFunction,ComponentPad*%
%ADD24O,2.600000X1.300000*%
%TD*%
%TA.AperFunction,ComponentPad*%
%ADD25R,4.916000X4.916000*%
%TD*%
%TA.AperFunction,ViaPad*%
%ADD26C,0.600000*%
%TD*%
G04 APERTURE END LIST*
D10*
%TO.N,Net-(J1-Pin_1)*%
%TO.C,J1*%
X79080000Y-167000000D03*
D11*
%TO.N,Net-(J1-Pin_2)*%
X76540000Y-167000000D03*
%TO.N,Net-(J1-Pin_3)*%
X74000000Y-167000000D03*
%TO.N,GND*%
X71460000Y-167000000D03*
%TD*%
D12*
%TO.N,Net-(R7-Pad1)*%
%TO.C,SW1*%
X72750000Y-150250000D03*
X79250000Y-150250000D03*
%TO.N,Net-(U1-VC1)*%
X72750000Y-154750000D03*
X79250000Y-154750000D03*
%TD*%
D13*
%TO.N,VBUS*%
%TO.C,C4*%
X67317621Y-141000000D03*
D14*
%TO.N,GND*%
X69817621Y-141000000D03*
%TD*%
D15*
%TO.N,Net-(J7-Pin_1)*%
%TO.C,J7*%
X75000000Y-141500000D03*
D16*
%TO.N,GND*%
X77500000Y-141500000D03*
%TD*%
D17*
%TO.N,VBUS*%
%TO.C,J6*%
X55500000Y-152000000D03*
D18*
%TO.N,Net-(J6-Pin_2)*%
X55500000Y-154500000D03*
%TO.N,Net-(J6-Pin_3)*%
X55500000Y-157000000D03*
%TO.N,Net-(J6-Pin_4)*%
X55500000Y-159500000D03*
%TO.N,Net-(J3-NEG)*%
X55500000Y-162000000D03*
%TD*%
D19*
%TO.N,Net-(D1-K)*%
%TO.C,D1*%
X91800000Y-125000000D03*
D20*
%TO.N,Net-(D1-A)*%
X81640000Y-125000000D03*
%TD*%
D21*
%TO.N,Net-(D1-K)*%
%TO.C,Q1*%
X79500000Y-119500000D03*
D22*
%TO.N,Net-(Q1-D)*%
X84950000Y-119500000D03*
%TO.N,GND*%
X90400000Y-119500000D03*
%TD*%
D23*
%TO.N,GND*%
%TO.C,J4*%
X83650000Y-132000000D03*
D24*
%TO.N,unconnected-(J4-PadNC)*%
X93050000Y-146900000D03*
%TO.N,unconnected-(J4-PadNC)_1*%
X93050000Y-128000000D03*
D25*
%TO.N,VBUS*%
X83650000Y-142900000D03*
%TD*%
D23*
%TO.N,Net-(J3-NEG)*%
%TO.C,J3*%
X60900000Y-132000000D03*
D24*
%TO.N,unconnected-(J3-PadNC)*%
X52000000Y-128000000D03*
%TO.N,unconnected-(J3-PadNC)_1*%
X52000000Y-146900000D03*
D25*
%TO.N,VBUS*%
X60900000Y-142900000D03*
%TD*%
D21*
%TO.N,Net-(Q5-G)*%
%TO.C,Q5*%
X61550000Y-119500000D03*
D22*
%TO.N,Net-(Q1-D)*%
X67000000Y-119500000D03*
%TO.N,Net-(Q5-S)*%
X72450000Y-119500000D03*
%TD*%
D26*
%TO.N,GND*%
X76500000Y-162500000D03*
%TO.N,Net-(U1-SRP)*%
X71000000Y-133000000D03*
X75000000Y-161000000D03*
%TO.N,Net-(U1-SRN)*%
X70500000Y-163500000D03*
X71500000Y-136500000D03*
%TO.N,VBUS*%
X76000000Y-159000000D03*
%TO.N,Net-(J7-Pin_1)*%
X83500000Y-162000000D03*
%TO.N,Net-(Q3-S)*%
X80000000Y-128000000D03*
X75000000Y-163275000D03*
%TO.N,Net-(Q5-G)*%
X76500000Y-164500000D03*
%TD*%
%TA.AperFunction,Conductor*%
%TO.N,GND*%
G36*
X95442539Y-109520185D02*
G01*
X95488294Y-109572989D01*
X95499500Y-109624500D01*
X95499500Y-170875500D01*
X95479815Y-170942539D01*
X95427011Y-170988294D01*
X95375500Y-170999500D01*
X49624500Y-170999500D01*
X49557461Y-170979815D01*
X49511706Y-170927011D01*
X49500500Y-170875500D01*
X49500500Y-166893713D01*
X72649500Y-166893713D01*
X72649500Y-167106286D01*
X72682753Y-167316239D01*
X72748444Y-167518414D01*
X72844951Y-167707820D01*
X72969890Y-167879786D01*
X73120213Y-168030109D01*
X73292179Y-168155048D01*
X73292181Y-168155049D01*
X73292184Y-168155051D01*
X73481588Y-168251557D01*
X73683757Y-168317246D01*
X73893713Y-168350500D01*
X73893714Y-168350500D01*
X74106286Y-168350500D01*
X74106287Y-168350500D01*
X74316243Y-168317246D01*
X74518412Y-168251557D01*
X74707816Y-168155051D01*
X74794138Y-168092335D01*
X74879786Y-168030109D01*
X74879788Y-168030106D01*
X74879792Y-168030104D01*
X75030104Y-167879792D01*
X75030106Y-167879788D01*
X75030109Y-167879786D01*
X75155048Y-167707820D01*
X75155047Y-167707820D01*
X75155051Y-167707816D01*
X75159514Y-167699054D01*
X75207488Y-167648259D01*
X75275308Y-167631463D01*
X75341444Y-167653999D01*
X75380486Y-167699056D01*
X75384951Y-167707820D01*
X75509890Y-167879786D01*
X75660213Y-168030109D01*
X75832179Y-168155048D01*
X75832181Y-168155049D01*
X75832184Y-168155051D01*
X76021588Y-168251557D01*
X76223757Y-168317246D01*
X76433713Y-168350500D01*
X76433714Y-168350500D01*
X76646286Y-168350500D01*
X76646287Y-168350500D01*
X76856243Y-168317246D01*
X77058412Y-168251557D01*
X77247816Y-168155051D01*
X77419792Y-168030104D01*
X77533329Y-167916566D01*
X77594648Y-167883084D01*
X77664340Y-167888068D01*
X77720274Y-167929939D01*
X77737189Y-167960917D01*
X77786202Y-168092328D01*
X77786206Y-168092335D01*
X77872452Y-168207544D01*
X77872455Y-168207547D01*
X77987664Y-168293793D01*
X77987671Y-168293797D01*
X78122517Y-168344091D01*
X78122516Y-168344091D01*
X78129444Y-168344835D01*
X78182127Y-168350500D01*
X79977872Y-168350499D01*
X80037483Y-168344091D01*
X80172331Y-168293796D01*
X80287546Y-168207546D01*
X80373796Y-168092331D01*
X80424091Y-167957483D01*
X80430500Y-167897873D01*
X80430499Y-166102128D01*
X80424091Y-166042517D01*
X80422810Y-166039083D01*
X80373797Y-165907671D01*
X80373793Y-165907664D01*
X80287547Y-165792455D01*
X80287544Y-165792452D01*
X80172335Y-165706206D01*
X80172328Y-165706202D01*
X80037482Y-165655908D01*
X80037483Y-165655908D01*
X79977883Y-165649501D01*
X79977881Y-165649500D01*
X79977873Y-165649500D01*
X79977864Y-165649500D01*
X78182129Y-165649500D01*
X78182123Y-165649501D01*
X78122516Y-165655908D01*
X77987671Y-165706202D01*
X77987664Y-165706206D01*
X77872455Y-165792452D01*
X77872452Y-165792455D01*
X77786206Y-165907664D01*
X77786203Y-165907669D01*
X77737189Y-166039083D01*
X77695317Y-166095016D01*
X77629853Y-166119433D01*
X77561580Y-166104581D01*
X77533326Y-166083430D01*
X77419786Y-165969890D01*
X77247820Y-165844951D01*
X77058414Y-165748444D01*
X77058413Y-165748443D01*
X77058412Y-165748443D01*
X76856243Y-165682754D01*
X76856241Y-165682753D01*
X76856240Y-165682753D01*
X76694957Y-165657208D01*
X76646287Y-165649500D01*
X76433713Y-165649500D01*
X76385042Y-165657208D01*
X76223760Y-165682753D01*
X76021585Y-165748444D01*
X75832179Y-165844951D01*
X75660213Y-165969890D01*
X75509890Y-166120213D01*
X75384949Y-166292182D01*
X75380484Y-166300946D01*
X75332509Y-166351742D01*
X75264688Y-166368536D01*
X75198553Y-166345998D01*
X75159516Y-166300946D01*
X75155050Y-166292182D01*
X75030109Y-166120213D01*
X74879786Y-165969890D01*
X74707820Y-165844951D01*
X74518414Y-165748444D01*
X74518413Y-165748443D01*
X74518412Y-165748443D01*
X74316243Y-165682754D01*
X74316241Y-165682753D01*
X74316240Y-165682753D01*
X74154957Y-165657208D01*
X74106287Y-165649500D01*
X73893713Y-165649500D01*
X73845042Y-165657208D01*
X73683760Y-165682753D01*
X73481585Y-165748444D01*
X73292179Y-165844951D01*
X73120213Y-165969890D01*
X72969890Y-166120213D01*
X72844951Y-166292179D01*
X72748444Y-166481585D01*
X72682753Y-166683760D01*
X72649500Y-166893713D01*
X49500500Y-166893713D01*
X49500500Y-164421153D01*
X75699500Y-164421153D01*
X75699500Y-164578846D01*
X75730261Y-164733489D01*
X75730264Y-164733501D01*
X75790602Y-164879172D01*
X75790609Y-164879185D01*
X75878210Y-165010288D01*
X75878213Y-165010292D01*
X75989707Y-165121786D01*
X75989711Y-165121789D01*
X76120814Y-165209390D01*
X76120827Y-165209397D01*
X76266498Y-165269735D01*
X76266503Y-165269737D01*
X76421153Y-165300499D01*
X76421156Y-165300500D01*
X76421158Y-165300500D01*
X76578844Y-165300500D01*
X76578845Y-165300499D01*
X76733497Y-165269737D01*
X76879179Y-165209394D01*
X77010289Y-165121789D01*
X77121789Y-165010289D01*
X77209394Y-164879179D01*
X77269737Y-164733497D01*
X77300500Y-164578842D01*
X77300500Y-164421158D01*
X77300500Y-164421155D01*
X77300499Y-164421153D01*
X77269738Y-164266510D01*
X77269737Y-164266503D01*
X77209794Y-164121786D01*
X77209397Y-164120827D01*
X77209390Y-164120814D01*
X77121789Y-163989711D01*
X77121786Y-163989707D01*
X77010292Y-163878213D01*
X77010288Y-163878210D01*
X76879185Y-163790609D01*
X76879172Y-163790602D01*
X76733501Y-163730264D01*
X76733489Y-163730261D01*
X76578845Y-163699500D01*
X76578842Y-163699500D01*
X76421158Y-163699500D01*
X76421155Y-163699500D01*
X76266510Y-163730261D01*
X76266498Y-163730264D01*
X76120827Y-163790602D01*
X76120814Y-163790609D01*
X75989711Y-163878210D01*
X75989707Y-163878213D01*
X75878213Y-163989707D01*
X75878210Y-163989711D01*
X75790609Y-164120814D01*
X75790602Y-164120827D01*
X75730264Y-164266498D01*
X75730261Y-164266510D01*
X75699500Y-164421153D01*
X49500500Y-164421153D01*
X49500500Y-163421153D01*
X69699500Y-163421153D01*
X69699500Y-163578846D01*
X69730261Y-163733489D01*
X69730264Y-163733501D01*
X69790602Y-163879172D01*
X69790609Y-163879185D01*
X69878210Y-164010288D01*
X69878213Y-164010292D01*
X69989707Y-164121786D01*
X69989711Y-164121789D01*
X70120814Y-164209390D01*
X70120827Y-164209397D01*
X70258683Y-164266498D01*
X70266503Y-164269737D01*
X70421153Y-164300499D01*
X70421156Y-164300500D01*
X70421158Y-164300500D01*
X70578844Y-164300500D01*
X70578845Y-164300499D01*
X70589179Y-164298443D01*
X70614287Y-164293450D01*
X70614292Y-164293449D01*
X70699800Y-164276439D01*
X70733497Y-164269737D01*
X70879179Y-164209394D01*
X71010289Y-164121789D01*
X71121789Y-164010289D01*
X71209394Y-163879179D01*
X71269737Y-163733497D01*
X71300500Y-163578842D01*
X71300500Y-163421158D01*
X71300500Y-163421155D01*
X71300499Y-163421153D01*
X71269738Y-163266510D01*
X71269737Y-163266503D01*
X71240597Y-163196153D01*
X74199500Y-163196153D01*
X74199500Y-163353846D01*
X74230261Y-163508489D01*
X74230264Y-163508501D01*
X74290602Y-163654172D01*
X74290609Y-163654185D01*
X74378210Y-163785288D01*
X74378213Y-163785292D01*
X74489707Y-163896786D01*
X74489711Y-163896789D01*
X74620814Y-163984390D01*
X74620827Y-163984397D01*
X74766498Y-164044735D01*
X74766503Y-164044737D01*
X74921153Y-164075499D01*
X74921156Y-164075500D01*
X74921158Y-164075500D01*
X75078844Y-164075500D01*
X75078845Y-164075499D01*
X75233497Y-164044737D01*
X75379179Y-163984394D01*
X75510289Y-163896789D01*
X75621789Y-163785289D01*
X75709394Y-163654179D01*
X75769737Y-163508497D01*
X75800500Y-163353842D01*
X75800500Y-163196158D01*
X75800500Y-163196155D01*
X75800499Y-163196153D01*
X75792323Y-163155048D01*
X75769737Y-163041503D01*
X75769735Y-163041498D01*
X75709397Y-162895827D01*
X75709390Y-162895814D01*
X75621789Y-162764711D01*
X75621786Y-162764707D01*
X75510292Y-162653213D01*
X75510288Y-162653210D01*
X75379185Y-162565609D01*
X75379172Y-162565602D01*
X75233501Y-162505264D01*
X75233489Y-162505261D01*
X75078845Y-162474500D01*
X75078842Y-162474500D01*
X74921158Y-162474500D01*
X74921155Y-162474500D01*
X74766510Y-162505261D01*
X74766498Y-162505264D01*
X74620827Y-162565602D01*
X74620814Y-162565609D01*
X74489711Y-162653210D01*
X74489707Y-162653213D01*
X74378213Y-162764707D01*
X74378210Y-162764711D01*
X74290609Y-162895814D01*
X74290602Y-162895827D01*
X74230264Y-163041498D01*
X74230261Y-163041510D01*
X74199500Y-163196153D01*
X71240597Y-163196153D01*
X71229924Y-163170386D01*
X71209397Y-163120827D01*
X71209390Y-163120814D01*
X71121789Y-162989711D01*
X71121786Y-162989707D01*
X71010292Y-162878213D01*
X71010288Y-162878210D01*
X70879185Y-162790609D01*
X70879172Y-162790602D01*
X70733501Y-162730264D01*
X70733489Y-162730261D01*
X70578845Y-162699500D01*
X70578842Y-162699500D01*
X70421158Y-162699500D01*
X70421155Y-162699500D01*
X70266510Y-162730261D01*
X70266498Y-162730264D01*
X70120827Y-162790602D01*
X70120814Y-162790609D01*
X69989711Y-162878210D01*
X69989707Y-162878213D01*
X69878213Y-162989707D01*
X69878210Y-162989711D01*
X69790609Y-163120814D01*
X69790602Y-163120827D01*
X69730264Y-163266498D01*
X69730261Y-163266510D01*
X69699500Y-163421153D01*
X49500500Y-163421153D01*
X49500500Y-151349983D01*
X54024500Y-151349983D01*
X54024500Y-152650001D01*
X54024501Y-152650018D01*
X54035000Y-152752796D01*
X54035001Y-152752799D01*
X54090185Y-152919331D01*
X54090187Y-152919336D01*
X54182289Y-153068657D01*
X54306344Y-153192712D01*
X54461120Y-153288178D01*
X54507845Y-153340126D01*
X54519068Y-153409088D01*
X54491224Y-153473171D01*
X54483706Y-153481398D01*
X54344889Y-153620215D01*
X54219951Y-153792179D01*
X54123444Y-153981585D01*
X54057753Y-154183760D01*
X54024500Y-154393713D01*
X54024500Y-154606287D01*
X54057754Y-154816243D01*
X54074602Y-154868097D01*
X54123444Y-155018414D01*
X54219951Y-155207820D01*
X54344890Y-155379786D01*
X54495209Y-155530105D01*
X54495214Y-155530109D01*
X54659793Y-155649682D01*
X54702459Y-155705011D01*
X54708438Y-155774625D01*
X54675833Y-155836420D01*
X54659793Y-155850318D01*
X54495214Y-155969890D01*
X54495209Y-155969894D01*
X54344890Y-156120213D01*
X54219951Y-156292179D01*
X54123444Y-156481585D01*
X54057753Y-156683760D01*
X54024500Y-156893713D01*
X54024500Y-157106286D01*
X54057753Y-157316239D01*
X54123444Y-157518414D01*
X54219951Y-157707820D01*
X54344890Y-157879786D01*
X54495209Y-158030105D01*
X54495214Y-158030109D01*
X54659793Y-158149682D01*
X54702459Y-158205011D01*
X54708438Y-158274625D01*
X54675833Y-158336420D01*
X54659793Y-158350318D01*
X54495214Y-158469890D01*
X54495209Y-158469894D01*
X54344890Y-158620213D01*
X54219951Y-158792179D01*
X54123444Y-158981585D01*
X54057753Y-159183760D01*
X54024500Y-159393713D01*
X54024500Y-159606286D01*
X54057753Y-159816239D01*
X54123444Y-160018414D01*
X54219951Y-160207820D01*
X54344890Y-160379786D01*
X54495209Y-160530105D01*
X54495214Y-160530109D01*
X54659793Y-160649682D01*
X54702459Y-160705011D01*
X54708438Y-160774625D01*
X54675833Y-160836420D01*
X54659793Y-160850318D01*
X54495214Y-160969890D01*
X54495209Y-160969894D01*
X54344890Y-161120213D01*
X54219951Y-161292179D01*
X54123444Y-161481585D01*
X54057753Y-161683760D01*
X54024500Y-161893713D01*
X54024500Y-162106287D01*
X54057754Y-162316243D01*
X54120803Y-162510288D01*
X54123444Y-162518414D01*
X54219951Y-162707820D01*
X54344890Y-162879786D01*
X54495213Y-163030109D01*
X54667179Y-163155048D01*
X54667181Y-163155049D01*
X54667184Y-163155051D01*
X54856588Y-163251557D01*
X55058757Y-163317246D01*
X55268713Y-163350500D01*
X55268714Y-163350500D01*
X55731286Y-163350500D01*
X55731287Y-163350500D01*
X55941243Y-163317246D01*
X56143412Y-163251557D01*
X56332816Y-163155051D01*
X56379940Y-163120814D01*
X56504786Y-163030109D01*
X56504788Y-163030106D01*
X56504792Y-163030104D01*
X56655104Y-162879792D01*
X56655106Y-162879788D01*
X56655109Y-162879786D01*
X56778902Y-162709397D01*
X56780051Y-162707816D01*
X56876557Y-162518412D01*
X56942246Y-162316243D01*
X56975500Y-162106287D01*
X56975500Y-161921153D01*
X82699500Y-161921153D01*
X82699500Y-162078846D01*
X82730261Y-162233489D01*
X82730264Y-162233501D01*
X82790602Y-162379172D01*
X82790609Y-162379185D01*
X82878210Y-162510288D01*
X82878213Y-162510292D01*
X82989707Y-162621786D01*
X82989711Y-162621789D01*
X83120814Y-162709390D01*
X83120827Y-162709397D01*
X83254359Y-162764707D01*
X83266503Y-162769737D01*
X83421153Y-162800499D01*
X83421156Y-162800500D01*
X83421158Y-162800500D01*
X83578844Y-162800500D01*
X83578845Y-162800499D01*
X83733497Y-162769737D01*
X83879179Y-162709394D01*
X84010289Y-162621789D01*
X84121789Y-162510289D01*
X84209394Y-162379179D01*
X84269737Y-162233497D01*
X84300500Y-162078842D01*
X84300500Y-161921158D01*
X84300500Y-161921155D01*
X84300499Y-161921153D01*
X84269738Y-161766510D01*
X84269737Y-161766503D01*
X84209794Y-161621786D01*
X84209397Y-161620827D01*
X84209390Y-161620814D01*
X84121789Y-161489711D01*
X84121786Y-161489707D01*
X84010292Y-161378213D01*
X84010288Y-161378210D01*
X83879185Y-161290609D01*
X83879172Y-161290602D01*
X83733501Y-161230264D01*
X83733489Y-161230261D01*
X83578845Y-161199500D01*
X83578842Y-161199500D01*
X83421158Y-161199500D01*
X83421155Y-161199500D01*
X83266510Y-161230261D01*
X83266498Y-161230264D01*
X83120827Y-161290602D01*
X83120814Y-161290609D01*
X82989711Y-161378210D01*
X82989707Y-161378213D01*
X82878213Y-161489707D01*
X82878210Y-161489711D01*
X82790609Y-161620814D01*
X82790602Y-161620827D01*
X82730264Y-161766498D01*
X82730261Y-161766510D01*
X82699500Y-161921153D01*
X56975500Y-161921153D01*
X56975500Y-161893713D01*
X56942246Y-161683757D01*
X56876557Y-161481588D01*
X56780051Y-161292184D01*
X56780049Y-161292181D01*
X56780048Y-161292179D01*
X56655109Y-161120213D01*
X56504792Y-160969896D01*
X56437705Y-160921155D01*
X56437702Y-160921153D01*
X74199500Y-160921153D01*
X74199500Y-161078846D01*
X74230261Y-161233489D01*
X74230264Y-161233501D01*
X74290602Y-161379172D01*
X74290609Y-161379185D01*
X74378210Y-161510288D01*
X74378213Y-161510292D01*
X74489707Y-161621786D01*
X74489711Y-161621789D01*
X74620814Y-161709390D01*
X74620827Y-161709397D01*
X74758683Y-161766498D01*
X74766503Y-161769737D01*
X74921153Y-161800499D01*
X74921156Y-161800500D01*
X74921158Y-161800500D01*
X75078844Y-161800500D01*
X75078845Y-161800499D01*
X75089179Y-161798443D01*
X75114287Y-161793450D01*
X75114292Y-161793449D01*
X75199800Y-161776439D01*
X75233497Y-161769737D01*
X75379179Y-161709394D01*
X75510289Y-161621789D01*
X75621789Y-161510289D01*
X75709394Y-161379179D01*
X75769737Y-161233497D01*
X75800500Y-161078842D01*
X75800500Y-160921158D01*
X75800500Y-160921155D01*
X75800499Y-160921153D01*
X75775403Y-160794989D01*
X75769737Y-160766503D01*
X75752702Y-160725376D01*
X75709397Y-160620827D01*
X75709390Y-160620814D01*
X75621789Y-160489711D01*
X75621786Y-160489707D01*
X75510292Y-160378213D01*
X75510288Y-160378210D01*
X75379185Y-160290609D01*
X75379172Y-160290602D01*
X75233501Y-160230264D01*
X75233489Y-160230261D01*
X75078845Y-160199500D01*
X75078842Y-160199500D01*
X74921158Y-160199500D01*
X74921155Y-160199500D01*
X74766510Y-160230261D01*
X74766498Y-160230264D01*
X74620827Y-160290602D01*
X74620814Y-160290609D01*
X74489711Y-160378210D01*
X74489707Y-160378213D01*
X74378213Y-160489707D01*
X74378210Y-160489711D01*
X74290609Y-160620814D01*
X74290602Y-160620827D01*
X74230264Y-160766498D01*
X74230261Y-160766510D01*
X74199500Y-160921153D01*
X56437702Y-160921153D01*
X56340204Y-160850316D01*
X56297540Y-160794989D01*
X56291561Y-160725376D01*
X56324166Y-160663580D01*
X56340199Y-160649686D01*
X56504792Y-160530104D01*
X56655104Y-160379792D01*
X56655106Y-160379788D01*
X56655109Y-160379786D01*
X56780048Y-160207820D01*
X56780047Y-160207820D01*
X56780051Y-160207816D01*
X56876557Y-160018412D01*
X56942246Y-159816243D01*
X56975500Y-159606287D01*
X56975500Y-159393713D01*
X56942246Y-159183757D01*
X56876557Y-158981588D01*
X56876555Y-158981585D01*
X56876555Y-158981583D01*
X56871347Y-158971362D01*
X56871346Y-158971361D01*
X56845764Y-158921153D01*
X75199500Y-158921153D01*
X75199500Y-159078846D01*
X75230261Y-159233489D01*
X75230264Y-159233501D01*
X75290602Y-159379172D01*
X75290609Y-159379185D01*
X75378210Y-159510288D01*
X75378213Y-159510292D01*
X75489707Y-159621786D01*
X75489711Y-159621789D01*
X75620814Y-159709390D01*
X75620827Y-159709397D01*
X75766498Y-159769735D01*
X75766503Y-159769737D01*
X75921153Y-159800499D01*
X75921156Y-159800500D01*
X75921158Y-159800500D01*
X76078844Y-159800500D01*
X76078845Y-159800499D01*
X76233497Y-159769737D01*
X76379179Y-159709394D01*
X76510289Y-159621789D01*
X76621789Y-159510289D01*
X76709394Y-159379179D01*
X76769737Y-159233497D01*
X76800500Y-159078842D01*
X76800500Y-158921158D01*
X76800500Y-158921155D01*
X76800499Y-158921153D01*
X76769738Y-158766510D01*
X76769737Y-158766503D01*
X76769735Y-158766498D01*
X76709397Y-158620827D01*
X76709390Y-158620814D01*
X76621789Y-158489711D01*
X76621786Y-158489707D01*
X76510292Y-158378213D01*
X76510288Y-158378210D01*
X76379185Y-158290609D01*
X76379172Y-158290602D01*
X76233501Y-158230264D01*
X76233489Y-158230261D01*
X76078845Y-158199500D01*
X76078842Y-158199500D01*
X75921158Y-158199500D01*
X75921155Y-158199500D01*
X75766510Y-158230261D01*
X75766498Y-158230264D01*
X75620827Y-158290602D01*
X75620814Y-158290609D01*
X75489711Y-158378210D01*
X75489707Y-158378213D01*
X75378213Y-158489707D01*
X75378210Y-158489711D01*
X75290609Y-158620814D01*
X75290602Y-158620827D01*
X75230264Y-158766498D01*
X75230261Y-158766510D01*
X75199500Y-158921153D01*
X56845764Y-158921153D01*
X56780048Y-158792179D01*
X56655109Y-158620213D01*
X56504792Y-158469896D01*
X56504784Y-158469890D01*
X56340204Y-158350316D01*
X56297540Y-158294989D01*
X56291561Y-158225376D01*
X56324166Y-158163580D01*
X56340199Y-158149686D01*
X56504792Y-158030104D01*
X56655104Y-157879792D01*
X56655106Y-157879788D01*
X56655109Y-157879786D01*
X56780048Y-157707820D01*
X56780047Y-157707820D01*
X56780051Y-157707816D01*
X56876557Y-157518412D01*
X56942246Y-157316243D01*
X56975500Y-157106287D01*
X56975500Y-156893713D01*
X56942246Y-156683757D01*
X56876557Y-156481588D01*
X56780051Y-156292184D01*
X56780049Y-156292181D01*
X56780048Y-156292179D01*
X56655109Y-156120213D01*
X56504792Y-155969896D01*
X56504784Y-155969890D01*
X56340204Y-155850316D01*
X56297540Y-155794989D01*
X56291561Y-155725376D01*
X56324166Y-155663580D01*
X56340199Y-155649686D01*
X56504792Y-155530104D01*
X56655104Y-155379792D01*
X56655106Y-155379788D01*
X56655109Y-155379786D01*
X56780048Y-155207820D01*
X56780047Y-155207820D01*
X56780051Y-155207816D01*
X56876557Y-155018412D01*
X56942246Y-154816243D01*
X56971443Y-154631902D01*
X71249500Y-154631902D01*
X71249500Y-154868097D01*
X71286446Y-155101368D01*
X71359433Y-155325996D01*
X71386841Y-155379786D01*
X71466657Y-155536433D01*
X71605483Y-155727510D01*
X71772490Y-155894517D01*
X71963567Y-156033343D01*
X72062991Y-156084002D01*
X72174003Y-156140566D01*
X72174005Y-156140566D01*
X72174008Y-156140568D01*
X72294412Y-156179689D01*
X72398631Y-156213553D01*
X72631903Y-156250500D01*
X72631908Y-156250500D01*
X72868097Y-156250500D01*
X73101368Y-156213553D01*
X73325992Y-156140568D01*
X73536433Y-156033343D01*
X73727510Y-155894517D01*
X73894517Y-155727510D01*
X74033343Y-155536433D01*
X74140568Y-155325992D01*
X74213553Y-155101368D01*
X74226692Y-155018412D01*
X74250500Y-154868097D01*
X74250500Y-154631902D01*
X77749500Y-154631902D01*
X77749500Y-154868097D01*
X77786446Y-155101368D01*
X77859433Y-155325996D01*
X77886841Y-155379786D01*
X77966657Y-155536433D01*
X78105483Y-155727510D01*
X78272490Y-155894517D01*
X78463567Y-156033343D01*
X78562991Y-156084002D01*
X78674003Y-156140566D01*
X78674005Y-156140566D01*
X78674008Y-156140568D01*
X78794412Y-156179689D01*
X78898631Y-156213553D01*
X79131903Y-156250500D01*
X79131908Y-156250500D01*
X79368097Y-156250500D01*
X79601368Y-156213553D01*
X79825992Y-156140568D01*
X80036433Y-156033343D01*
X80227510Y-155894517D01*
X80394517Y-155727510D01*
X80533343Y-155536433D01*
X80640568Y-155325992D01*
X80713553Y-155101368D01*
X80726692Y-155018412D01*
X80750500Y-154868097D01*
X80750500Y-154631902D01*
X80713553Y-154398631D01*
X80679689Y-154294412D01*
X80640568Y-154174008D01*
X80640566Y-154174005D01*
X80640566Y-154174003D01*
X80542525Y-153981588D01*
X80533343Y-153963567D01*
X80394517Y-153772490D01*
X80227510Y-153605483D01*
X80036433Y-153466657D01*
X79825996Y-153359433D01*
X79601368Y-153286446D01*
X79368097Y-153249500D01*
X79368092Y-153249500D01*
X79131908Y-153249500D01*
X79131903Y-153249500D01*
X78898631Y-153286446D01*
X78674003Y-153359433D01*
X78463566Y-153466657D01*
X78354550Y-153545862D01*
X78272490Y-153605483D01*
X78272488Y-153605485D01*
X78272487Y-153605485D01*
X78105485Y-153772487D01*
X78105485Y-153772488D01*
X78105483Y-153772490D01*
X78045862Y-153854550D01*
X77966657Y-153963566D01*
X77859433Y-154174003D01*
X77786446Y-154398631D01*
X77749500Y-154631902D01*
X74250500Y-154631902D01*
X74213553Y-154398631D01*
X74179689Y-154294412D01*
X74140568Y-154174008D01*
X74140566Y-154174005D01*
X74140566Y-154174003D01*
X74042525Y-153981588D01*
X74033343Y-153963567D01*
X73894517Y-153772490D01*
X73727510Y-153605483D01*
X73536433Y-153466657D01*
X73325996Y-153359433D01*
X73101368Y-153286446D01*
X72868097Y-153249500D01*
X72868092Y-153249500D01*
X72631908Y-153249500D01*
X72631903Y-153249500D01*
X72398631Y-153286446D01*
X72174003Y-153359433D01*
X71963566Y-153466657D01*
X71854550Y-153545862D01*
X71772490Y-153605483D01*
X71772488Y-153605485D01*
X71772487Y-153605485D01*
X71605485Y-153772487D01*
X71605485Y-153772488D01*
X71605483Y-153772490D01*
X71545862Y-153854550D01*
X71466657Y-153963566D01*
X71359433Y-154174003D01*
X71286446Y-154398631D01*
X71249500Y-154631902D01*
X56971443Y-154631902D01*
X56975500Y-154606287D01*
X56975500Y-154393713D01*
X56942246Y-154183757D01*
X56876557Y-153981588D01*
X56780051Y-153792184D01*
X56780049Y-153792181D01*
X56780048Y-153792179D01*
X56655109Y-153620213D01*
X56516294Y-153481398D01*
X56482809Y-153420075D01*
X56487793Y-153350383D01*
X56529665Y-153294450D01*
X56538879Y-153288178D01*
X56544331Y-153284814D01*
X56544334Y-153284814D01*
X56693656Y-153192712D01*
X56817712Y-153068656D01*
X56909814Y-152919334D01*
X56964999Y-152752797D01*
X56975500Y-152650009D01*
X56975499Y-151349992D01*
X56964999Y-151247203D01*
X56909814Y-151080666D01*
X56817712Y-150931344D01*
X56693656Y-150807288D01*
X56544334Y-150715186D01*
X56377797Y-150660001D01*
X56377795Y-150660000D01*
X56275010Y-150649500D01*
X54724998Y-150649500D01*
X54724981Y-150649501D01*
X54622203Y-150660000D01*
X54622200Y-150660001D01*
X54455668Y-150715185D01*
X54455663Y-150715187D01*
X54306342Y-150807289D01*
X54182289Y-150931342D01*
X54090187Y-151080663D01*
X54090186Y-151080666D01*
X54035001Y-151247203D01*
X54035001Y-151247204D01*
X54035000Y-151247204D01*
X54024500Y-151349983D01*
X49500500Y-151349983D01*
X49500500Y-150131902D01*
X71249500Y-150131902D01*
X71249500Y-150368097D01*
X71286446Y-150601368D01*
X71359433Y-150825996D01*
X71466657Y-151036433D01*
X71605483Y-151227510D01*
X71772490Y-151394517D01*
X71963567Y-151533343D01*
X72062991Y-151584002D01*
X72174003Y-151640566D01*
X72174005Y-151640566D01*
X72174008Y-151640568D01*
X72294412Y-151679689D01*
X72398631Y-151713553D01*
X72631903Y-151750500D01*
X72631908Y-151750500D01*
X72868097Y-151750500D01*
X73101368Y-151713553D01*
X73325992Y-151640568D01*
X73536433Y-151533343D01*
X73727510Y-151394517D01*
X73894517Y-151227510D01*
X74033343Y-151036433D01*
X74140568Y-150825992D01*
X74213553Y-150601368D01*
X74250500Y-150368097D01*
X74250500Y-150131902D01*
X77749500Y-150131902D01*
X77749500Y-150368097D01*
X77786446Y-150601368D01*
X77859433Y-150825996D01*
X77966657Y-151036433D01*
X78105483Y-151227510D01*
X78272490Y-151394517D01*
X78463567Y-151533343D01*
X78562991Y-151584002D01*
X78674003Y-151640566D01*
X78674005Y-151640566D01*
X78674008Y-151640568D01*
X78794412Y-151679689D01*
X78898631Y-151713553D01*
X79131903Y-151750500D01*
X79131908Y-151750500D01*
X79368097Y-151750500D01*
X79601368Y-151713553D01*
X79825992Y-151640568D01*
X80036433Y-151533343D01*
X80227510Y-151394517D01*
X80394517Y-151227510D01*
X80533343Y-151036433D01*
X80640568Y-150825992D01*
X80713553Y-150601368D01*
X80750500Y-150368097D01*
X80750500Y-150131902D01*
X80713553Y-149898631D01*
X80640566Y-149674003D01*
X80533342Y-149463566D01*
X80394517Y-149272490D01*
X80227510Y-149105483D01*
X80036433Y-148966657D01*
X79825996Y-148859433D01*
X79601368Y-148786446D01*
X79368097Y-148749500D01*
X79368092Y-148749500D01*
X79131908Y-148749500D01*
X79131903Y-148749500D01*
X78898631Y-148786446D01*
X78674003Y-148859433D01*
X78463566Y-148966657D01*
X78354550Y-149045862D01*
X78272490Y-149105483D01*
X78272488Y-149105485D01*
X78272487Y-149105485D01*
X78105485Y-149272487D01*
X78105485Y-149272488D01*
X78105483Y-149272490D01*
X78045862Y-149354550D01*
X77966657Y-149463566D01*
X77859433Y-149674003D01*
X77786446Y-149898631D01*
X77749500Y-150131902D01*
X74250500Y-150131902D01*
X74213553Y-149898631D01*
X74140566Y-149674003D01*
X74033342Y-149463566D01*
X73894517Y-149272490D01*
X73727510Y-149105483D01*
X73536433Y-148966657D01*
X73325996Y-148859433D01*
X73101368Y-148786446D01*
X72868097Y-148749500D01*
X72868092Y-148749500D01*
X72631908Y-148749500D01*
X72631903Y-148749500D01*
X72398631Y-148786446D01*
X72174003Y-148859433D01*
X71963566Y-148966657D01*
X71854550Y-149045862D01*
X71772490Y-149105483D01*
X71772488Y-149105485D01*
X71772487Y-149105485D01*
X71605485Y-149272487D01*
X71605485Y-149272488D01*
X71605483Y-149272490D01*
X71545862Y-149354550D01*
X71466657Y-149463566D01*
X71359433Y-149674003D01*
X71286446Y-149898631D01*
X71249500Y-150131902D01*
X49500500Y-150131902D01*
X49500500Y-146809448D01*
X50199500Y-146809448D01*
X50199500Y-146990551D01*
X50227829Y-147169410D01*
X50283787Y-147341636D01*
X50283788Y-147341639D01*
X50366006Y-147502997D01*
X50472441Y-147649494D01*
X50472445Y-147649499D01*
X50600500Y-147777554D01*
X50600505Y-147777558D01*
X50728287Y-147870396D01*
X50747006Y-147883996D01*
X50852484Y-147937740D01*
X50908360Y-147966211D01*
X50908363Y-147966212D01*
X50994476Y-147994191D01*
X51080591Y-148022171D01*
X51163429Y-148035291D01*
X51259449Y-148050500D01*
X51259454Y-148050500D01*
X52740551Y-148050500D01*
X52827259Y-148036765D01*
X52919409Y-148022171D01*
X53091639Y-147966211D01*
X53252994Y-147883996D01*
X53399501Y-147777553D01*
X53527553Y-147649501D01*
X53633996Y-147502994D01*
X53716211Y-147341639D01*
X53772171Y-147169409D01*
X53786765Y-147077259D01*
X53800500Y-146990551D01*
X53800500Y-146809448D01*
X91249500Y-146809448D01*
X91249500Y-146990551D01*
X91277829Y-147169410D01*
X91333787Y-147341636D01*
X91333788Y-147341639D01*
X91416006Y-147502997D01*
X91522441Y-147649494D01*
X91522445Y-147649499D01*
X91650500Y-147777554D01*
X91650505Y-147777558D01*
X91778287Y-147870396D01*
X91797006Y-147883996D01*
X91902484Y-147937740D01*
X91958360Y-147966211D01*
X91958363Y-147966212D01*
X92044476Y-147994191D01*
X92130591Y-148022171D01*
X92213429Y-148035291D01*
X92309449Y-148050500D01*
X92309454Y-148050500D01*
X93790551Y-148050500D01*
X93877259Y-148036765D01*
X93969409Y-148022171D01*
X94141639Y-147966211D01*
X94302994Y-147883996D01*
X94449501Y-147777553D01*
X94577553Y-147649501D01*
X94683996Y-147502994D01*
X94766211Y-147341639D01*
X94822171Y-147169409D01*
X94836765Y-147077259D01*
X94850500Y-146990551D01*
X94850500Y-146809448D01*
X94834019Y-146705397D01*
X94822171Y-146630591D01*
X94766211Y-146458361D01*
X94766211Y-146458360D01*
X94737740Y-146402484D01*
X94683996Y-146297006D01*
X94670396Y-146278287D01*
X94577558Y-146150505D01*
X94577554Y-146150500D01*
X94449499Y-146022445D01*
X94449494Y-146022441D01*
X94302997Y-145916006D01*
X94302996Y-145916005D01*
X94302994Y-145916004D01*
X94251300Y-145889664D01*
X94141639Y-145833788D01*
X94141636Y-145833787D01*
X93969410Y-145777829D01*
X93790551Y-145749500D01*
X93790546Y-145749500D01*
X92309454Y-145749500D01*
X92309449Y-145749500D01*
X92130589Y-145777829D01*
X91958363Y-145833787D01*
X91958360Y-145833788D01*
X91797002Y-145916006D01*
X91650505Y-146022441D01*
X91650500Y-146022445D01*
X91522445Y-146150500D01*
X91522441Y-146150505D01*
X91416006Y-146297002D01*
X91333788Y-146458360D01*
X91333787Y-146458363D01*
X91277829Y-146630589D01*
X91249500Y-146809448D01*
X53800500Y-146809448D01*
X53784019Y-146705397D01*
X53772171Y-146630591D01*
X53716211Y-146458361D01*
X53716211Y-146458360D01*
X53687740Y-146402484D01*
X53633996Y-146297006D01*
X53620396Y-146278287D01*
X53527558Y-146150505D01*
X53527554Y-146150500D01*
X53399499Y-146022445D01*
X53399494Y-146022441D01*
X53252997Y-145916006D01*
X53252996Y-145916005D01*
X53252994Y-145916004D01*
X53201300Y-145889664D01*
X53091639Y-145833788D01*
X53091636Y-145833787D01*
X52919410Y-145777829D01*
X52740551Y-145749500D01*
X52740546Y-145749500D01*
X51259454Y-145749500D01*
X51259449Y-145749500D01*
X51080589Y-145777829D01*
X50908363Y-145833787D01*
X50908360Y-145833788D01*
X50747002Y-145916006D01*
X50600505Y-146022441D01*
X50600500Y-146022445D01*
X50472445Y-146150500D01*
X50472441Y-146150505D01*
X50366006Y-146297002D01*
X50283788Y-146458360D01*
X50283787Y-146458363D01*
X50227829Y-146630589D01*
X50199500Y-146809448D01*
X49500500Y-146809448D01*
X49500500Y-140394135D01*
X57941500Y-140394135D01*
X57941500Y-145405870D01*
X57941501Y-145405876D01*
X57947908Y-145465483D01*
X57998202Y-145600328D01*
X57998206Y-145600335D01*
X58084452Y-145715544D01*
X58084455Y-145715547D01*
X58199664Y-145801793D01*
X58199671Y-145801797D01*
X58334517Y-145852091D01*
X58334516Y-145852091D01*
X58341444Y-145852835D01*
X58394127Y-145858500D01*
X63405872Y-145858499D01*
X63465483Y-145852091D01*
X63600331Y-145801796D01*
X63715546Y-145715546D01*
X63801796Y-145600331D01*
X63852091Y-145465483D01*
X63858500Y-145405873D01*
X63858499Y-140399983D01*
X66017121Y-140399983D01*
X66017121Y-141600001D01*
X66017122Y-141600018D01*
X66027621Y-141702796D01*
X66027622Y-141702799D01*
X66082806Y-141869331D01*
X66082807Y-141869334D01*
X66174909Y-142018656D01*
X66298965Y-142142712D01*
X66448287Y-142234814D01*
X66614824Y-142289999D01*
X66717612Y-142300500D01*
X67917629Y-142300499D01*
X68020418Y-142289999D01*
X68186955Y-142234814D01*
X68336277Y-142142712D01*
X68460333Y-142018656D01*
X68552435Y-141869334D01*
X68607620Y-141702797D01*
X68618121Y-141600009D01*
X68618120Y-140699983D01*
X73649500Y-140699983D01*
X73649500Y-142300001D01*
X73649501Y-142300018D01*
X73660000Y-142402796D01*
X73660001Y-142402799D01*
X73715185Y-142569331D01*
X73715186Y-142569334D01*
X73807288Y-142718656D01*
X73931344Y-142842712D01*
X74080666Y-142934814D01*
X74247203Y-142989999D01*
X74349991Y-143000500D01*
X75650008Y-143000499D01*
X75752797Y-142989999D01*
X75919334Y-142934814D01*
X76068656Y-142842712D01*
X76192712Y-142718656D01*
X76284814Y-142569334D01*
X76339999Y-142402797D01*
X76350500Y-142300009D01*
X76350499Y-140699992D01*
X76339999Y-140597203D01*
X76284814Y-140430666D01*
X76262282Y-140394135D01*
X80691500Y-140394135D01*
X80691500Y-145405870D01*
X80691501Y-145405876D01*
X80697908Y-145465483D01*
X80748202Y-145600328D01*
X80748206Y-145600335D01*
X80834452Y-145715544D01*
X80834455Y-145715547D01*
X80949664Y-145801793D01*
X80949671Y-145801797D01*
X81084517Y-145852091D01*
X81084516Y-145852091D01*
X81091444Y-145852835D01*
X81144127Y-145858500D01*
X86155872Y-145858499D01*
X86215483Y-145852091D01*
X86350331Y-145801796D01*
X86465546Y-145715546D01*
X86551796Y-145600331D01*
X86602091Y-145465483D01*
X86608500Y-145405873D01*
X86608499Y-140394128D01*
X86602091Y-140334517D01*
X86588174Y-140297204D01*
X86551797Y-140199671D01*
X86551793Y-140199664D01*
X86465547Y-140084455D01*
X86465544Y-140084452D01*
X86350335Y-139998206D01*
X86350328Y-139998202D01*
X86215482Y-139947908D01*
X86215483Y-139947908D01*
X86155883Y-139941501D01*
X86155881Y-139941500D01*
X86155873Y-139941500D01*
X86155864Y-139941500D01*
X81144129Y-139941500D01*
X81144123Y-139941501D01*
X81084516Y-139947908D01*
X80949671Y-139998202D01*
X80949664Y-139998206D01*
X80834455Y-140084452D01*
X80834452Y-140084455D01*
X80748206Y-140199664D01*
X80748202Y-140199671D01*
X80697908Y-140334517D01*
X80691501Y-140394116D01*
X80691501Y-140394123D01*
X80691500Y-140394135D01*
X76262282Y-140394135D01*
X76192712Y-140281344D01*
X76068656Y-140157288D01*
X75950573Y-140084454D01*
X75919336Y-140065187D01*
X75919331Y-140065185D01*
X75917862Y-140064698D01*
X75752797Y-140010001D01*
X75752795Y-140010000D01*
X75650010Y-139999500D01*
X74349998Y-139999500D01*
X74349981Y-139999501D01*
X74247203Y-140010000D01*
X74247200Y-140010001D01*
X74080668Y-140065185D01*
X74080663Y-140065187D01*
X73931342Y-140157289D01*
X73807289Y-140281342D01*
X73715187Y-140430663D01*
X73715186Y-140430666D01*
X73660001Y-140597203D01*
X73660001Y-140597204D01*
X73660000Y-140597204D01*
X73649500Y-140699983D01*
X68618120Y-140699983D01*
X68618120Y-140399992D01*
X68617520Y-140394123D01*
X68607620Y-140297203D01*
X68607619Y-140297200D01*
X68575300Y-140199669D01*
X68552435Y-140130666D01*
X68460333Y-139981344D01*
X68336277Y-139857288D01*
X68186955Y-139765186D01*
X68020418Y-139710001D01*
X68020416Y-139710000D01*
X67917631Y-139699500D01*
X66717619Y-139699500D01*
X66717602Y-139699501D01*
X66614824Y-139710000D01*
X66614821Y-139710001D01*
X66448289Y-139765185D01*
X66448284Y-139765187D01*
X66298963Y-139857289D01*
X66174910Y-139981342D01*
X66082808Y-140130663D01*
X66082807Y-140130666D01*
X66027622Y-140297203D01*
X66027622Y-140297204D01*
X66027621Y-140297204D01*
X66017121Y-140399983D01*
X63858499Y-140399983D01*
X63858499Y-140394128D01*
X63852091Y-140334517D01*
X63838174Y-140297204D01*
X63801797Y-140199671D01*
X63801793Y-140199664D01*
X63715547Y-140084455D01*
X63715544Y-140084452D01*
X63600335Y-139998206D01*
X63600328Y-139998202D01*
X63465482Y-139947908D01*
X63465483Y-139947908D01*
X63405883Y-139941501D01*
X63405881Y-139941500D01*
X63405873Y-139941500D01*
X63405864Y-139941500D01*
X58394129Y-139941500D01*
X58394123Y-139941501D01*
X58334516Y-139947908D01*
X58199671Y-139998202D01*
X58199664Y-139998206D01*
X58084455Y-140084452D01*
X58084452Y-140084455D01*
X57998206Y-140199664D01*
X57998202Y-140199671D01*
X57947908Y-140334517D01*
X57941501Y-140394116D01*
X57941501Y-140394123D01*
X57941500Y-140394135D01*
X49500500Y-140394135D01*
X49500500Y-136421153D01*
X70699500Y-136421153D01*
X70699500Y-136578846D01*
X70730261Y-136733489D01*
X70730264Y-136733501D01*
X70790602Y-136879172D01*
X70790609Y-136879185D01*
X70878210Y-137010288D01*
X70878213Y-137010292D01*
X70989707Y-137121786D01*
X70989711Y-137121789D01*
X71120814Y-137209390D01*
X71120827Y-137209397D01*
X71266498Y-137269735D01*
X71266503Y-137269737D01*
X71421153Y-137300499D01*
X71421156Y-137300500D01*
X71421158Y-137300500D01*
X71578844Y-137300500D01*
X71578845Y-137300499D01*
X71733497Y-137269737D01*
X71879179Y-137209394D01*
X72010289Y-137121789D01*
X72121789Y-137010289D01*
X72209394Y-136879179D01*
X72269737Y-136733497D01*
X72300500Y-136578842D01*
X72300500Y-136421158D01*
X72300500Y-136421155D01*
X72300499Y-136421153D01*
X72269738Y-136266510D01*
X72269737Y-136266503D01*
X72269735Y-136266498D01*
X72209397Y-136120827D01*
X72209390Y-136120814D01*
X72121789Y-135989711D01*
X72121786Y-135989707D01*
X72010292Y-135878213D01*
X72010288Y-135878210D01*
X71879185Y-135790609D01*
X71879172Y-135790602D01*
X71733501Y-135730264D01*
X71733489Y-135730261D01*
X71578845Y-135699500D01*
X71578842Y-135699500D01*
X71421158Y-135699500D01*
X71421155Y-135699500D01*
X71266510Y-135730261D01*
X71266498Y-135730264D01*
X71120827Y-135790602D01*
X71120814Y-135790609D01*
X70989711Y-135878210D01*
X70989707Y-135878213D01*
X70878213Y-135989707D01*
X70878210Y-135989711D01*
X70790609Y-136120814D01*
X70790602Y-136120827D01*
X70730264Y-136266498D01*
X70730261Y-136266510D01*
X70699500Y-136421153D01*
X49500500Y-136421153D01*
X49500500Y-131833847D01*
X57941500Y-131833847D01*
X57941500Y-132166152D01*
X57978701Y-132496333D01*
X57978704Y-132496347D01*
X58052645Y-132820307D01*
X58052649Y-132820319D01*
X58162396Y-133133956D01*
X58306569Y-133433334D01*
X58306571Y-133433337D01*
X58483361Y-133714697D01*
X58690541Y-133974493D01*
X58925507Y-134209459D01*
X59185303Y-134416639D01*
X59466663Y-134593429D01*
X59766047Y-134737605D01*
X60001605Y-134820030D01*
X60079680Y-134847350D01*
X60079692Y-134847354D01*
X60403652Y-134921296D01*
X60403661Y-134921297D01*
X60403666Y-134921298D01*
X60623786Y-134946098D01*
X60733848Y-134958499D01*
X60733851Y-134958500D01*
X60733854Y-134958500D01*
X61066149Y-134958500D01*
X61066150Y-134958499D01*
X61234897Y-134939486D01*
X61396333Y-134921298D01*
X61396336Y-134921297D01*
X61396348Y-134921296D01*
X61720308Y-134847354D01*
X62033953Y-134737605D01*
X62333337Y-134593429D01*
X62614697Y-134416639D01*
X62874493Y-134209459D01*
X63109459Y-133974493D01*
X63316639Y-133714697D01*
X63493429Y-133433337D01*
X63637605Y-133133953D01*
X63712067Y-132921153D01*
X70199500Y-132921153D01*
X70199500Y-133078846D01*
X70230261Y-133233489D01*
X70230264Y-133233501D01*
X70290602Y-133379172D01*
X70290609Y-133379185D01*
X70378210Y-133510288D01*
X70378213Y-133510292D01*
X70489707Y-133621786D01*
X70489711Y-133621789D01*
X70620814Y-133709390D01*
X70620827Y-133709397D01*
X70766498Y-133769735D01*
X70766503Y-133769737D01*
X70921153Y-133800499D01*
X70921156Y-133800500D01*
X70921158Y-133800500D01*
X71078844Y-133800500D01*
X71078845Y-133800499D01*
X71233497Y-133769737D01*
X71379179Y-133709394D01*
X71510289Y-133621789D01*
X71621789Y-133510289D01*
X71709394Y-133379179D01*
X71769737Y-133233497D01*
X71800500Y-133078842D01*
X71800500Y-132921158D01*
X71800500Y-132921155D01*
X71800499Y-132921153D01*
X71791142Y-132874111D01*
X71769737Y-132766503D01*
X71769735Y-132766498D01*
X71709397Y-132620827D01*
X71709390Y-132620814D01*
X71621789Y-132489711D01*
X71621786Y-132489707D01*
X71510292Y-132378213D01*
X71510288Y-132378210D01*
X71379185Y-132290609D01*
X71379172Y-132290602D01*
X71233501Y-132230264D01*
X71233489Y-132230261D01*
X71078845Y-132199500D01*
X71078842Y-132199500D01*
X70921158Y-132199500D01*
X70921155Y-132199500D01*
X70766510Y-132230261D01*
X70766498Y-132230264D01*
X70620827Y-132290602D01*
X70620814Y-132290609D01*
X70489711Y-132378210D01*
X70489707Y-132378213D01*
X70378213Y-132489707D01*
X70378210Y-132489711D01*
X70290609Y-132620814D01*
X70290602Y-132620827D01*
X70230264Y-132766498D01*
X70230261Y-132766510D01*
X70199500Y-132921153D01*
X63712067Y-132921153D01*
X63747354Y-132820308D01*
X63821296Y-132496348D01*
X63822045Y-132489707D01*
X63858499Y-132166152D01*
X63858500Y-132166148D01*
X63858500Y-131833851D01*
X63858499Y-131833847D01*
X63821298Y-131503666D01*
X63821297Y-131503661D01*
X63821296Y-131503652D01*
X63747354Y-131179692D01*
X63637605Y-130866047D01*
X63493429Y-130566663D01*
X63316639Y-130285303D01*
X63109459Y-130025507D01*
X62874493Y-129790541D01*
X62614697Y-129583361D01*
X62333337Y-129406571D01*
X62333334Y-129406569D01*
X62033956Y-129262396D01*
X61720319Y-129152649D01*
X61720307Y-129152645D01*
X61470289Y-129095580D01*
X61396348Y-129078704D01*
X61396345Y-129078703D01*
X61396333Y-129078701D01*
X61066152Y-129041500D01*
X61066146Y-129041500D01*
X60733854Y-129041500D01*
X60733847Y-129041500D01*
X60403666Y-129078701D01*
X60403652Y-129078704D01*
X60079692Y-129152645D01*
X60079680Y-129152649D01*
X59766043Y-129262396D01*
X59466665Y-129406569D01*
X59185304Y-129583360D01*
X58925507Y-129790540D01*
X58690540Y-130025507D01*
X58483360Y-130285304D01*
X58306569Y-130566665D01*
X58162396Y-130866043D01*
X58052649Y-131179680D01*
X58052645Y-131179692D01*
X57978704Y-131503652D01*
X57978701Y-131503666D01*
X57941500Y-131833847D01*
X49500500Y-131833847D01*
X49500500Y-127909448D01*
X50199500Y-127909448D01*
X50199500Y-128090551D01*
X50227829Y-128269410D01*
X50283787Y-128441636D01*
X50283788Y-128441639D01*
X50366006Y-128602997D01*
X50472441Y-128749494D01*
X50472445Y-128749499D01*
X50600500Y-128877554D01*
X50600505Y-128877558D01*
X50728287Y-128970396D01*
X50747006Y-128983996D01*
X50852484Y-129037740D01*
X50908360Y-129066211D01*
X50908363Y-129066212D01*
X50946811Y-129078704D01*
X51080591Y-129122171D01*
X51163429Y-129135291D01*
X51259449Y-129150500D01*
X51259454Y-129150500D01*
X52740551Y-129150500D01*
X52827259Y-129136765D01*
X52919409Y-129122171D01*
X53091639Y-129066211D01*
X53252994Y-128983996D01*
X53399501Y-128877553D01*
X53527553Y-128749501D01*
X53633996Y-128602994D01*
X53716211Y-128441639D01*
X53772171Y-128269409D01*
X53786765Y-128177259D01*
X53800500Y-128090551D01*
X53800500Y-127921153D01*
X79199500Y-127921153D01*
X79199500Y-128078846D01*
X79230261Y-128233489D01*
X79230264Y-128233501D01*
X79290602Y-128379172D01*
X79290609Y-128379185D01*
X79378210Y-128510288D01*
X79378213Y-128510292D01*
X79489707Y-128621786D01*
X79489711Y-128621789D01*
X79620814Y-128709390D01*
X79620827Y-128709397D01*
X79766498Y-128769735D01*
X79766503Y-128769737D01*
X79921153Y-128800499D01*
X79921156Y-128800500D01*
X79921158Y-128800500D01*
X80078844Y-128800500D01*
X80078845Y-128800499D01*
X80233497Y-128769737D01*
X80379179Y-128709394D01*
X80510289Y-128621789D01*
X80621789Y-128510289D01*
X80709394Y-128379179D01*
X80769737Y-128233497D01*
X80800500Y-128078842D01*
X80800500Y-127921158D01*
X80800499Y-127921153D01*
X80800499Y-127921150D01*
X80798171Y-127909448D01*
X91249500Y-127909448D01*
X91249500Y-128090551D01*
X91277829Y-128269410D01*
X91333787Y-128441636D01*
X91333788Y-128441639D01*
X91416006Y-128602997D01*
X91522441Y-128749494D01*
X91522445Y-128749499D01*
X91650500Y-128877554D01*
X91650505Y-128877558D01*
X91778287Y-128970396D01*
X91797006Y-128983996D01*
X91902484Y-129037740D01*
X91958360Y-129066211D01*
X91958363Y-129066212D01*
X91996811Y-129078704D01*
X92130591Y-129122171D01*
X92213429Y-129135291D01*
X92309449Y-129150500D01*
X92309454Y-129150500D01*
X93790551Y-129150500D01*
X93877259Y-129136765D01*
X93969409Y-129122171D01*
X94141639Y-129066211D01*
X94302994Y-128983996D01*
X94449501Y-128877553D01*
X94577553Y-128749501D01*
X94683996Y-128602994D01*
X94766211Y-128441639D01*
X94822171Y-128269409D01*
X94836765Y-128177259D01*
X94850500Y-128090551D01*
X94850500Y-127909448D01*
X94827858Y-127766498D01*
X94822171Y-127730591D01*
X94766211Y-127558361D01*
X94766211Y-127558360D01*
X94731230Y-127489707D01*
X94683996Y-127397006D01*
X94670340Y-127378210D01*
X94577558Y-127250505D01*
X94577554Y-127250500D01*
X94449499Y-127122445D01*
X94449494Y-127122441D01*
X94302997Y-127016006D01*
X94302996Y-127016005D01*
X94302994Y-127016004D01*
X94251300Y-126989664D01*
X94141639Y-126933788D01*
X94141636Y-126933787D01*
X93969410Y-126877829D01*
X93790551Y-126849500D01*
X93790546Y-126849500D01*
X92309454Y-126849500D01*
X92309449Y-126849500D01*
X92130589Y-126877829D01*
X91958363Y-126933787D01*
X91958360Y-126933788D01*
X91797002Y-127016006D01*
X91650505Y-127122441D01*
X91650500Y-127122445D01*
X91522445Y-127250500D01*
X91522441Y-127250505D01*
X91416006Y-127397002D01*
X91333788Y-127558360D01*
X91333787Y-127558363D01*
X91277829Y-127730589D01*
X91249500Y-127909448D01*
X80798171Y-127909448D01*
X80769738Y-127766510D01*
X80769737Y-127766503D01*
X80754861Y-127730589D01*
X80709397Y-127620827D01*
X80709390Y-127620814D01*
X80621789Y-127489711D01*
X80621786Y-127489707D01*
X80510292Y-127378213D01*
X80510288Y-127378210D01*
X80379185Y-127290609D01*
X80379172Y-127290602D01*
X80233501Y-127230264D01*
X80233489Y-127230261D01*
X80078845Y-127199500D01*
X80078842Y-127199500D01*
X79921158Y-127199500D01*
X79921155Y-127199500D01*
X79766510Y-127230261D01*
X79766498Y-127230264D01*
X79620827Y-127290602D01*
X79620814Y-127290609D01*
X79489711Y-127378210D01*
X79489707Y-127378213D01*
X79378213Y-127489707D01*
X79378210Y-127489711D01*
X79290609Y-127620814D01*
X79290602Y-127620827D01*
X79230264Y-127766498D01*
X79230261Y-127766510D01*
X79199500Y-127921153D01*
X53800500Y-127921153D01*
X53800500Y-127909448D01*
X53777858Y-127766498D01*
X53772171Y-127730591D01*
X53716211Y-127558361D01*
X53716211Y-127558360D01*
X53681230Y-127489707D01*
X53633996Y-127397006D01*
X53620340Y-127378210D01*
X53527558Y-127250505D01*
X53527554Y-127250500D01*
X53399499Y-127122445D01*
X53399494Y-127122441D01*
X53252997Y-127016006D01*
X53252996Y-127016005D01*
X53252994Y-127016004D01*
X53201300Y-126989664D01*
X53091639Y-126933788D01*
X53091636Y-126933787D01*
X52919410Y-126877829D01*
X52740551Y-126849500D01*
X52740546Y-126849500D01*
X51259454Y-126849500D01*
X51259449Y-126849500D01*
X51080589Y-126877829D01*
X50908363Y-126933787D01*
X50908360Y-126933788D01*
X50747002Y-127016006D01*
X50600505Y-127122441D01*
X50600500Y-127122445D01*
X50472445Y-127250500D01*
X50472441Y-127250505D01*
X50366006Y-127397002D01*
X50283788Y-127558360D01*
X50283787Y-127558363D01*
X50227829Y-127730589D01*
X50199500Y-127909448D01*
X49500500Y-127909448D01*
X49500500Y-124874038D01*
X80039500Y-124874038D01*
X80039500Y-125125961D01*
X80078910Y-125374785D01*
X80156760Y-125614383D01*
X80271132Y-125838848D01*
X80419201Y-126042649D01*
X80419205Y-126042654D01*
X80597345Y-126220794D01*
X80597350Y-126220798D01*
X80775117Y-126349952D01*
X80801155Y-126368870D01*
X80944184Y-126441747D01*
X81025616Y-126483239D01*
X81025618Y-126483239D01*
X81025621Y-126483241D01*
X81265215Y-126561090D01*
X81514038Y-126600500D01*
X81514039Y-126600500D01*
X81765961Y-126600500D01*
X81765962Y-126600500D01*
X82014785Y-126561090D01*
X82254379Y-126483241D01*
X82478845Y-126368870D01*
X82682656Y-126220793D01*
X82860793Y-126042656D01*
X83008870Y-125838845D01*
X83123241Y-125614379D01*
X83201090Y-125374785D01*
X83240500Y-125125962D01*
X83240500Y-124874038D01*
X83201090Y-124625215D01*
X83123241Y-124385621D01*
X83123239Y-124385618D01*
X83123239Y-124385616D01*
X83008869Y-124161154D01*
X83008865Y-124161148D01*
X82964426Y-124099982D01*
X90199500Y-124099982D01*
X90199500Y-125900017D01*
X90210000Y-126002796D01*
X90265185Y-126169332D01*
X90265186Y-126169335D01*
X90357288Y-126318656D01*
X90481344Y-126442712D01*
X90630665Y-126534814D01*
X90797202Y-126589999D01*
X90899990Y-126600500D01*
X90899995Y-126600500D01*
X92700005Y-126600500D01*
X92700010Y-126600500D01*
X92802798Y-126589999D01*
X92969335Y-126534814D01*
X93118656Y-126442712D01*
X93242712Y-126318656D01*
X93334814Y-126169335D01*
X93389999Y-126002798D01*
X93400500Y-125900010D01*
X93400500Y-124099990D01*
X93389999Y-123997202D01*
X93334814Y-123830665D01*
X93242712Y-123681344D01*
X93118656Y-123557288D01*
X92969335Y-123465186D01*
X92802798Y-123410001D01*
X92802796Y-123410000D01*
X92700017Y-123399500D01*
X92700010Y-123399500D01*
X90899990Y-123399500D01*
X90899982Y-123399500D01*
X90797203Y-123410000D01*
X90797202Y-123410001D01*
X90714669Y-123437349D01*
X90630667Y-123465185D01*
X90630662Y-123465187D01*
X90481342Y-123557289D01*
X90357289Y-123681342D01*
X90265187Y-123830662D01*
X90265186Y-123830665D01*
X90210001Y-123997202D01*
X90210001Y-123997203D01*
X90210000Y-123997203D01*
X90199500Y-124099982D01*
X82964426Y-124099982D01*
X82860798Y-123957350D01*
X82860794Y-123957345D01*
X82682654Y-123779205D01*
X82682649Y-123779201D01*
X82478848Y-123631132D01*
X82478847Y-123631131D01*
X82478845Y-123631130D01*
X82408747Y-123595413D01*
X82254383Y-123516760D01*
X82014785Y-123438910D01*
X81765962Y-123399500D01*
X81514038Y-123399500D01*
X81447738Y-123410001D01*
X81265214Y-123438910D01*
X81025616Y-123516760D01*
X80801151Y-123631132D01*
X80597350Y-123779201D01*
X80597345Y-123779205D01*
X80419205Y-123957345D01*
X80419201Y-123957350D01*
X80271132Y-124161151D01*
X80156760Y-124385616D01*
X80078910Y-124625214D01*
X80039500Y-124874038D01*
X49500500Y-124874038D01*
X49500500Y-117202135D01*
X59799500Y-117202135D01*
X59799500Y-121797870D01*
X59799501Y-121797876D01*
X59805908Y-121857483D01*
X59856202Y-121992328D01*
X59856206Y-121992335D01*
X59942452Y-122107544D01*
X59942455Y-122107547D01*
X60057664Y-122193793D01*
X60057671Y-122193797D01*
X60192517Y-122244091D01*
X60192516Y-122244091D01*
X60199444Y-122244835D01*
X60252127Y-122250500D01*
X62847872Y-122250499D01*
X62907483Y-122244091D01*
X63042331Y-122193796D01*
X63157546Y-122107546D01*
X63243796Y-121992331D01*
X63294091Y-121857483D01*
X63300500Y-121797873D01*
X63300499Y-118385258D01*
X65249500Y-118385258D01*
X65249500Y-120614741D01*
X65274446Y-120804215D01*
X65279452Y-120842238D01*
X65279453Y-120842240D01*
X65338842Y-121063887D01*
X65426650Y-121275876D01*
X65426657Y-121275890D01*
X65541392Y-121474617D01*
X65681081Y-121656661D01*
X65681089Y-121656670D01*
X65843330Y-121818911D01*
X65843338Y-121818918D01*
X66025382Y-121958607D01*
X66025385Y-121958608D01*
X66025388Y-121958611D01*
X66224112Y-122073344D01*
X66224117Y-122073346D01*
X66224123Y-122073349D01*
X66306678Y-122107544D01*
X66436113Y-122161158D01*
X66657762Y-122220548D01*
X66874312Y-122249057D01*
X66885250Y-122250498D01*
X66885266Y-122250500D01*
X66885273Y-122250500D01*
X67114727Y-122250500D01*
X67114734Y-122250500D01*
X67342238Y-122220548D01*
X67563887Y-122161158D01*
X67775888Y-122073344D01*
X67974612Y-121958611D01*
X68156661Y-121818919D01*
X68156665Y-121818914D01*
X68156670Y-121818911D01*
X68318911Y-121656670D01*
X68318914Y-121656665D01*
X68318919Y-121656661D01*
X68458611Y-121474612D01*
X68573344Y-121275888D01*
X68661158Y-121063887D01*
X68720548Y-120842238D01*
X68750500Y-120614734D01*
X68750500Y-118385266D01*
X68750499Y-118385258D01*
X70699500Y-118385258D01*
X70699500Y-120614741D01*
X70724446Y-120804215D01*
X70729452Y-120842238D01*
X70729453Y-120842240D01*
X70788842Y-121063887D01*
X70876650Y-121275876D01*
X70876657Y-121275890D01*
X70991392Y-121474617D01*
X71131081Y-121656661D01*
X71131089Y-121656670D01*
X71293330Y-121818911D01*
X71293338Y-121818918D01*
X71475382Y-121958607D01*
X71475385Y-121958608D01*
X71475388Y-121958611D01*
X71674112Y-122073344D01*
X71674117Y-122073346D01*
X71674123Y-122073349D01*
X71756678Y-122107544D01*
X71886113Y-122161158D01*
X72107762Y-122220548D01*
X72324312Y-122249057D01*
X72335250Y-122250498D01*
X72335266Y-122250500D01*
X72335273Y-122250500D01*
X72564727Y-122250500D01*
X72564734Y-122250500D01*
X72792238Y-122220548D01*
X73013887Y-122161158D01*
X73225888Y-122073344D01*
X73424612Y-121958611D01*
X73606661Y-121818919D01*
X73606665Y-121818914D01*
X73606670Y-121818911D01*
X73768911Y-121656670D01*
X73768914Y-121656665D01*
X73768919Y-121656661D01*
X73908611Y-121474612D01*
X74023344Y-121275888D01*
X74111158Y-121063887D01*
X74170548Y-120842238D01*
X74200500Y-120614734D01*
X74200500Y-118385266D01*
X74170548Y-118157762D01*
X74111158Y-117936113D01*
X74023344Y-117724112D01*
X73908611Y-117525388D01*
X73908608Y-117525385D01*
X73908607Y-117525382D01*
X73768918Y-117343338D01*
X73768911Y-117343330D01*
X73627716Y-117202135D01*
X77749500Y-117202135D01*
X77749500Y-121797870D01*
X77749501Y-121797876D01*
X77755908Y-121857483D01*
X77806202Y-121992328D01*
X77806206Y-121992335D01*
X77892452Y-122107544D01*
X77892455Y-122107547D01*
X78007664Y-122193793D01*
X78007671Y-122193797D01*
X78142517Y-122244091D01*
X78142516Y-122244091D01*
X78149444Y-122244835D01*
X78202127Y-122250500D01*
X80797872Y-122250499D01*
X80857483Y-122244091D01*
X80992331Y-122193796D01*
X81107546Y-122107546D01*
X81193796Y-121992331D01*
X81244091Y-121857483D01*
X81250500Y-121797873D01*
X81250499Y-118385258D01*
X83199500Y-118385258D01*
X83199500Y-120614741D01*
X83224446Y-120804215D01*
X83229452Y-120842238D01*
X83229453Y-120842240D01*
X83288842Y-121063887D01*
X83376650Y-121275876D01*
X83376657Y-121275890D01*
X83491392Y-121474617D01*
X83631081Y-121656661D01*
X83631089Y-121656670D01*
X83793330Y-121818911D01*
X83793338Y-121818918D01*
X83975382Y-121958607D01*
X83975385Y-121958608D01*
X83975388Y-121958611D01*
X84174112Y-122073344D01*
X84174117Y-122073346D01*
X84174123Y-122073349D01*
X84256678Y-122107544D01*
X84386113Y-122161158D01*
X84607762Y-122220548D01*
X84824312Y-122249057D01*
X84835250Y-122250498D01*
X84835266Y-122250500D01*
X84835273Y-122250500D01*
X85064727Y-122250500D01*
X85064734Y-122250500D01*
X85292238Y-122220548D01*
X85513887Y-122161158D01*
X85725888Y-122073344D01*
X85924612Y-121958611D01*
X86106661Y-121818919D01*
X86106665Y-121818914D01*
X86106670Y-121818911D01*
X86268911Y-121656670D01*
X86268914Y-121656665D01*
X86268919Y-121656661D01*
X86408611Y-121474612D01*
X86523344Y-121275888D01*
X86611158Y-121063887D01*
X86670548Y-120842238D01*
X86700500Y-120614734D01*
X86700500Y-118385266D01*
X86670548Y-118157762D01*
X86611158Y-117936113D01*
X86523344Y-117724112D01*
X86408611Y-117525388D01*
X86408608Y-117525385D01*
X86408607Y-117525382D01*
X86268918Y-117343338D01*
X86268911Y-117343330D01*
X86106670Y-117181089D01*
X86106661Y-117181081D01*
X85924617Y-117041392D01*
X85866210Y-117007671D01*
X85725888Y-116926656D01*
X85725876Y-116926650D01*
X85513887Y-116838842D01*
X85292238Y-116779452D01*
X85254215Y-116774446D01*
X85064741Y-116749500D01*
X85064734Y-116749500D01*
X84835266Y-116749500D01*
X84835258Y-116749500D01*
X84618715Y-116778009D01*
X84607762Y-116779452D01*
X84514076Y-116804554D01*
X84386112Y-116838842D01*
X84174123Y-116926650D01*
X84174109Y-116926657D01*
X83975382Y-117041392D01*
X83793338Y-117181081D01*
X83631081Y-117343338D01*
X83491392Y-117525382D01*
X83376657Y-117724109D01*
X83376650Y-117724123D01*
X83288842Y-117936112D01*
X83229453Y-118157759D01*
X83229451Y-118157770D01*
X83199500Y-118385258D01*
X81250499Y-118385258D01*
X81250499Y-117202128D01*
X81244091Y-117142517D01*
X81193796Y-117007669D01*
X81193795Y-117007668D01*
X81193793Y-117007664D01*
X81107547Y-116892455D01*
X81107544Y-116892452D01*
X80992335Y-116806206D01*
X80992328Y-116806202D01*
X80857482Y-116755908D01*
X80857483Y-116755908D01*
X80797883Y-116749501D01*
X80797881Y-116749500D01*
X80797873Y-116749500D01*
X80797864Y-116749500D01*
X78202129Y-116749500D01*
X78202123Y-116749501D01*
X78142516Y-116755908D01*
X78007671Y-116806202D01*
X78007664Y-116806206D01*
X77892455Y-116892452D01*
X77892452Y-116892455D01*
X77806206Y-117007664D01*
X77806202Y-117007671D01*
X77755908Y-117142517D01*
X77749501Y-117202116D01*
X77749501Y-117202123D01*
X77749500Y-117202135D01*
X73627716Y-117202135D01*
X73606670Y-117181089D01*
X73606661Y-117181081D01*
X73424617Y-117041392D01*
X73366210Y-117007671D01*
X73225888Y-116926656D01*
X73225876Y-116926650D01*
X73013887Y-116838842D01*
X72792238Y-116779452D01*
X72754215Y-116774446D01*
X72564741Y-116749500D01*
X72564734Y-116749500D01*
X72335266Y-116749500D01*
X72335258Y-116749500D01*
X72118715Y-116778009D01*
X72107762Y-116779452D01*
X72014076Y-116804554D01*
X71886112Y-116838842D01*
X71674123Y-116926650D01*
X71674109Y-116926657D01*
X71475382Y-117041392D01*
X71293338Y-117181081D01*
X71131081Y-117343338D01*
X70991392Y-117525382D01*
X70876657Y-117724109D01*
X70876650Y-117724123D01*
X70788842Y-117936112D01*
X70729453Y-118157759D01*
X70729451Y-118157770D01*
X70699500Y-118385258D01*
X68750499Y-118385258D01*
X68720548Y-118157762D01*
X68661158Y-117936113D01*
X68573344Y-117724112D01*
X68458611Y-117525388D01*
X68458608Y-117525385D01*
X68458607Y-117525382D01*
X68318918Y-117343338D01*
X68318911Y-117343330D01*
X68156670Y-117181089D01*
X68156661Y-117181081D01*
X67974617Y-117041392D01*
X67916210Y-117007671D01*
X67775888Y-116926656D01*
X67775876Y-116926650D01*
X67563887Y-116838842D01*
X67342238Y-116779452D01*
X67304215Y-116774446D01*
X67114741Y-116749500D01*
X67114734Y-116749500D01*
X66885266Y-116749500D01*
X66885258Y-116749500D01*
X66668715Y-116778009D01*
X66657762Y-116779452D01*
X66564076Y-116804554D01*
X66436112Y-116838842D01*
X66224123Y-116926650D01*
X66224109Y-116926657D01*
X66025382Y-117041392D01*
X65843338Y-117181081D01*
X65681081Y-117343338D01*
X65541392Y-117525382D01*
X65426657Y-117724109D01*
X65426650Y-117724123D01*
X65338842Y-117936112D01*
X65279453Y-118157759D01*
X65279451Y-118157770D01*
X65249500Y-118385258D01*
X63300499Y-118385258D01*
X63300499Y-117202128D01*
X63294091Y-117142517D01*
X63243796Y-117007669D01*
X63243795Y-117007668D01*
X63243793Y-117007664D01*
X63157547Y-116892455D01*
X63157544Y-116892452D01*
X63042335Y-116806206D01*
X63042328Y-116806202D01*
X62907482Y-116755908D01*
X62907483Y-116755908D01*
X62847883Y-116749501D01*
X62847881Y-116749500D01*
X62847873Y-116749500D01*
X62847864Y-116749500D01*
X60252129Y-116749500D01*
X60252123Y-116749501D01*
X60192516Y-116755908D01*
X60057671Y-116806202D01*
X60057664Y-116806206D01*
X59942455Y-116892452D01*
X59942452Y-116892455D01*
X59856206Y-117007664D01*
X59856202Y-117007671D01*
X59805908Y-117142517D01*
X59799501Y-117202116D01*
X59799501Y-117202123D01*
X59799500Y-117202135D01*
X49500500Y-117202135D01*
X49500500Y-109624500D01*
X49520185Y-109557461D01*
X49572989Y-109511706D01*
X49624500Y-109500500D01*
X95375500Y-109500500D01*
X95442539Y-109520185D01*
G37*
%TD.AperFunction*%
%TD*%
M02*
