%TF.GenerationSoftware,KiCad,Pcbnew,9.0.3*%
%TF.CreationDate,2025-12-08T06:42:03-06:00*%
%TF.ProjectId,roboboat bms v2,726f626f-626f-4617-9420-626d73207632,rev?*%
%TF.SameCoordinates,Original*%
%TF.FileFunction,Paste,Top*%
%TF.FilePolarity,Positive*%
%FSLAX46Y46*%
G04 Gerber Fmt 4.6, Leading zero omitted, Abs format (unit mm)*
G04 Created by KiCad (PCBNEW 9.0.3) date 2025-12-08 06:42:03*
%MOMM*%
%LPD*%
G01*
G04 APERTURE LIST*
G04 Aperture macros list*
%AMRoundRect*
0 Rectangle with rounded corners*
0 $1 Rounding radius*
0 $2 $3 $4 $5 $6 $7 $8 $9 X,Y pos of 4 corners*
0 Add a 4 corners polygon primitive as box body*
4,1,4,$2,$3,$4,$5,$6,$7,$8,$9,$2,$3,0*
0 Add four circle primitives for the rounded corners*
1,1,$1+$1,$2,$3*
1,1,$1+$1,$4,$5*
1,1,$1+$1,$6,$7*
1,1,$1+$1,$8,$9*
0 Add four rect primitives between the rounded corners*
20,1,$1+$1,$2,$3,$4,$5,0*
20,1,$1+$1,$4,$5,$6,$7,0*
20,1,$1+$1,$6,$7,$8,$9,0*
20,1,$1+$1,$8,$9,$2,$3,0*%
G04 Aperture macros list end*
%ADD10RoundRect,0.225000X0.250000X-0.225000X0.250000X0.225000X-0.250000X0.225000X-0.250000X-0.225000X0*%
%ADD11RoundRect,0.250000X-0.362500X-1.425000X0.362500X-1.425000X0.362500X1.425000X-0.362500X1.425000X0*%
%ADD12RoundRect,0.250000X-0.312500X-0.625000X0.312500X-0.625000X0.312500X0.625000X-0.312500X0.625000X0*%
%ADD13RoundRect,0.200000X-0.200000X-0.275000X0.200000X-0.275000X0.200000X0.275000X-0.200000X0.275000X0*%
%ADD14RoundRect,0.225000X-0.250000X0.225000X-0.250000X-0.225000X0.250000X-0.225000X0.250000X0.225000X0*%
%ADD15RoundRect,0.250000X-0.650000X0.325000X-0.650000X-0.325000X0.650000X-0.325000X0.650000X0.325000X0*%
%ADD16RoundRect,0.250000X-0.250000X-0.475000X0.250000X-0.475000X0.250000X0.475000X-0.250000X0.475000X0*%
%ADD17RoundRect,0.250000X0.325000X0.650000X-0.325000X0.650000X-0.325000X-0.650000X0.325000X-0.650000X0*%
%ADD18RoundRect,0.250000X0.625000X-0.312500X0.625000X0.312500X-0.625000X0.312500X-0.625000X-0.312500X0*%
%ADD19RoundRect,0.100000X0.637500X0.100000X-0.637500X0.100000X-0.637500X-0.100000X0.637500X-0.100000X0*%
%ADD20RoundRect,0.200000X0.275000X-0.200000X0.275000X0.200000X-0.275000X0.200000X-0.275000X-0.200000X0*%
%ADD21RoundRect,0.200000X0.200000X0.275000X-0.200000X0.275000X-0.200000X-0.275000X0.200000X-0.275000X0*%
%ADD22RoundRect,0.200000X-0.275000X0.200000X-0.275000X-0.200000X0.275000X-0.200000X0.275000X0.200000X0*%
%ADD23RoundRect,0.150000X0.150000X-0.587500X0.150000X0.587500X-0.150000X0.587500X-0.150000X-0.587500X0*%
%ADD24RoundRect,0.225000X-0.225000X-0.250000X0.225000X-0.250000X0.225000X0.250000X-0.225000X0.250000X0*%
G04 APERTURE END LIST*
D10*
%TO.C,C3*%
X77500000Y-133275000D03*
X77500000Y-131725000D03*
%TD*%
D11*
%TO.C,Rsns1*%
X69037500Y-129000000D03*
X74962500Y-129000000D03*
%TD*%
D12*
%TO.C,Rc4*%
X62362500Y-160125000D03*
X65287500Y-160125000D03*
%TD*%
%TO.C,Rc2*%
X62362500Y-154125000D03*
X65287500Y-154125000D03*
%TD*%
D13*
%TO.C,R4*%
X66175000Y-123500000D03*
X67825000Y-123500000D03*
%TD*%
D14*
%TO.C,Cc1*%
X68000000Y-149350000D03*
X68000000Y-150900000D03*
%TD*%
D12*
%TO.C,Rc3*%
X62362500Y-157125000D03*
X65287500Y-157125000D03*
%TD*%
D14*
%TO.C,Cc2*%
X68000000Y-152850000D03*
X68000000Y-154400000D03*
%TD*%
D15*
%TO.C,Cf1*%
X82000000Y-152525000D03*
X82000000Y-155475000D03*
%TD*%
D14*
%TO.C,Cc4*%
X68000000Y-159850000D03*
X68000000Y-161400000D03*
%TD*%
D16*
%TO.C,C5*%
X80550000Y-160500000D03*
X82450000Y-160500000D03*
%TD*%
D17*
%TO.C,C6*%
X84975000Y-158000000D03*
X82025000Y-158000000D03*
%TD*%
D18*
%TO.C,R1*%
X69000000Y-134962500D03*
X69000000Y-132037500D03*
%TD*%
D19*
%TO.C,U1*%
X77962500Y-163925000D03*
X77962500Y-163275000D03*
X77962500Y-162625000D03*
X77962500Y-161975000D03*
X77962500Y-161325000D03*
X77962500Y-160675000D03*
X77962500Y-160025000D03*
X77962500Y-159375000D03*
X77962500Y-158725000D03*
X77962500Y-158075000D03*
X72237500Y-158075000D03*
X72237500Y-158725000D03*
X72237500Y-159375000D03*
X72237500Y-160025000D03*
X72237500Y-160675000D03*
X72237500Y-161325000D03*
X72237500Y-161975000D03*
X72237500Y-162625000D03*
X72237500Y-163275000D03*
X72237500Y-163925000D03*
%TD*%
D12*
%TO.C,Rc5*%
X62362500Y-163125000D03*
X65287500Y-163125000D03*
%TD*%
D14*
%TO.C,Cc5*%
X68000000Y-163350000D03*
X68000000Y-164900000D03*
%TD*%
D12*
%TO.C,Rf1*%
X67037500Y-147000000D03*
X69962500Y-147000000D03*
%TD*%
D20*
%TO.C,R3*%
X76000000Y-120825000D03*
X76000000Y-119175000D03*
%TD*%
D21*
%TO.C,R7*%
X77825000Y-147000000D03*
X76175000Y-147000000D03*
%TD*%
D18*
%TO.C,R2*%
X75000000Y-134962500D03*
X75000000Y-132037500D03*
%TD*%
D22*
%TO.C,R5*%
X94000000Y-121500000D03*
X94000000Y-123150000D03*
%TD*%
D10*
%TO.C,C1*%
X65000000Y-137275000D03*
X65000000Y-135725000D03*
%TD*%
D23*
%TO.C,Q3*%
X76987500Y-125937500D03*
X78887500Y-125937500D03*
X77937500Y-124062500D03*
%TD*%
D14*
%TO.C,Cc3*%
X68000000Y-156350000D03*
X68000000Y-157900000D03*
%TD*%
D24*
%TO.C,C2*%
X71225000Y-135000000D03*
X72775000Y-135000000D03*
%TD*%
D12*
%TO.C,Rc1*%
X62362500Y-151125000D03*
X65287500Y-151125000D03*
%TD*%
M02*
