%TF.GenerationSoftware,KiCad,Pcbnew,9.0.3*%
%TF.CreationDate,2025-12-08T06:40:44-06:00*%
%TF.ProjectId,Hotswap,486f7473-7761-4702-9e6b-696361645f70,rev?*%
%TF.SameCoordinates,Original*%
%TF.FileFunction,Paste,Top*%
%TF.FilePolarity,Positive*%
%FSLAX46Y46*%
G04 Gerber Fmt 4.6, Leading zero omitted, Abs format (unit mm)*
G04 Created by KiCad (PCBNEW 9.0.3) date 2025-12-08 06:40:44*
%MOMM*%
%LPD*%
G01*
G04 APERTURE LIST*
G04 Aperture macros list*
%AMRoundRect*
0 Rectangle with rounded corners*
0 $1 Rounding radius*
0 $2 $3 $4 $5 $6 $7 $8 $9 X,Y pos of 4 corners*
0 Add a 4 corners polygon primitive as box body*
4,1,4,$2,$3,$4,$5,$6,$7,$8,$9,$2,$3,0*
0 Add four circle primitives for the rounded corners*
1,1,$1+$1,$2,$3*
1,1,$1+$1,$4,$5*
1,1,$1+$1,$6,$7*
1,1,$1+$1,$8,$9*
0 Add four rect primitives between the rounded corners*
20,1,$1+$1,$2,$3,$4,$5,0*
20,1,$1+$1,$4,$5,$6,$7,0*
20,1,$1+$1,$6,$7,$8,$9,0*
20,1,$1+$1,$8,$9,$2,$3,0*%
G04 Aperture macros list end*
%ADD10RoundRect,0.225000X0.225000X0.250000X-0.225000X0.250000X-0.225000X-0.250000X0.225000X-0.250000X0*%
%ADD11RoundRect,0.225000X-0.225000X-0.250000X0.225000X-0.250000X0.225000X0.250000X-0.225000X0.250000X0*%
%ADD12RoundRect,0.150000X-0.150000X-0.355000X0.150000X-0.355000X0.150000X0.355000X-0.150000X0.355000X0*%
%ADD13RoundRect,0.062500X-0.375000X-0.062500X0.375000X-0.062500X0.375000X0.062500X-0.375000X0.062500X0*%
%ADD14RoundRect,0.150000X0.150000X0.355000X-0.150000X0.355000X-0.150000X-0.355000X0.150000X-0.355000X0*%
%ADD15RoundRect,0.062500X0.375000X0.062500X-0.375000X0.062500X-0.375000X-0.062500X0.375000X-0.062500X0*%
%ADD16RoundRect,0.250000X0.312500X0.625000X-0.312500X0.625000X-0.312500X-0.625000X0.312500X-0.625000X0*%
%ADD17RoundRect,0.200000X-0.200000X-0.275000X0.200000X-0.275000X0.200000X0.275000X-0.200000X0.275000X0*%
G04 APERTURE END LIST*
D10*
%TO.C,C2*%
X69775000Y-75000000D03*
X68225000Y-75000000D03*
%TD*%
D11*
%TO.C,C1*%
X71425000Y-42750000D03*
X72975000Y-42750000D03*
%TD*%
D10*
%TO.C,C8*%
X72975000Y-44750000D03*
X71425000Y-44750000D03*
%TD*%
D12*
%TO.C,U5*%
X64187500Y-75750000D03*
X64187500Y-77000000D03*
X64937500Y-75750000D03*
X64937500Y-77000000D03*
D13*
X63125000Y-75125000D03*
X63125000Y-75625000D03*
X63125000Y-76125000D03*
X63125000Y-76625000D03*
X63125000Y-77125000D03*
X63125000Y-77625000D03*
X66000000Y-77625000D03*
X66000000Y-77125000D03*
X66000000Y-76625000D03*
X66000000Y-76125000D03*
X66000000Y-75625000D03*
X66000000Y-75125000D03*
%TD*%
D14*
%TO.C,U2*%
X77375000Y-43125000D03*
X77375000Y-41875000D03*
X76625000Y-43125000D03*
X76625000Y-41875000D03*
D15*
X78437500Y-43750000D03*
X78437500Y-43250000D03*
X78437500Y-42750000D03*
X78437500Y-42250000D03*
X78437500Y-41750000D03*
X78437500Y-41250000D03*
X75562500Y-41250000D03*
X75562500Y-41750000D03*
X75562500Y-42250000D03*
X75562500Y-42750000D03*
X75562500Y-43250000D03*
X75562500Y-43750000D03*
%TD*%
D16*
%TO.C,R9*%
X69000000Y-43000000D03*
X66075000Y-43000000D03*
%TD*%
D10*
%TO.C,C7*%
X69775000Y-77000000D03*
X68225000Y-77000000D03*
%TD*%
D17*
%TO.C,R8*%
X80150000Y-42750000D03*
X81800000Y-42750000D03*
%TD*%
M02*
