%TF.GenerationSoftware,KiCad,Pcbnew,9.0.3*%
%TF.CreationDate,2025-12-08T06:40:44-06:00*%
%TF.ProjectId,Hotswap,486f7473-7761-4702-9e6b-696361645f70,rev?*%
%TF.SameCoordinates,Original*%
%TF.FileFunction,Copper,L2,Inr*%
%TF.FilePolarity,Positive*%
%FSLAX46Y46*%
G04 Gerber Fmt 4.6, Leading zero omitted, Abs format (unit mm)*
G04 Created by KiCad (PCBNEW 9.0.3) date 2025-12-08 06:40:44*
%MOMM*%
%LPD*%
G01*
G04 APERTURE LIST*
G04 Aperture macros list*
%AMRoundRect*
0 Rectangle with rounded corners*
0 $1 Rounding radius*
0 $2 $3 $4 $5 $6 $7 $8 $9 X,Y pos of 4 corners*
0 Add a 4 corners polygon primitive as box body*
4,1,4,$2,$3,$4,$5,$6,$7,$8,$9,$2,$3,0*
0 Add four circle primitives for the rounded corners*
1,1,$1+$1,$2,$3*
1,1,$1+$1,$4,$5*
1,1,$1+$1,$6,$7*
1,1,$1+$1,$8,$9*
0 Add four rect primitives between the rounded corners*
20,1,$1+$1,$2,$3,$4,$5,0*
20,1,$1+$1,$4,$5,$6,$7,0*
20,1,$1+$1,$6,$7,$8,$9,0*
20,1,$1+$1,$8,$9,$2,$3,0*%
G04 Aperture macros list end*
%TA.AperFunction,ComponentPad*%
%ADD10R,2.500000X4.500000*%
%TD*%
%TA.AperFunction,ComponentPad*%
%ADD11O,2.500000X4.500000*%
%TD*%
%TA.AperFunction,ComponentPad*%
%ADD12C,4.916000*%
%TD*%
%TA.AperFunction,ComponentPad*%
%ADD13O,2.600000X1.300000*%
%TD*%
%TA.AperFunction,ComponentPad*%
%ADD14R,4.916000X4.916000*%
%TD*%
%TA.AperFunction,ComponentPad*%
%ADD15R,1.500000X1.050000*%
%TD*%
%TA.AperFunction,ComponentPad*%
%ADD16O,1.500000X1.050000*%
%TD*%
%TA.AperFunction,ComponentPad*%
%ADD17RoundRect,0.250001X-0.949999X-0.949999X0.949999X-0.949999X0.949999X0.949999X-0.949999X0.949999X0*%
%TD*%
%TA.AperFunction,ComponentPad*%
%ADD18C,2.400000*%
%TD*%
%TA.AperFunction,ComponentPad*%
%ADD19RoundRect,0.249999X0.850001X0.850001X-0.850001X0.850001X-0.850001X-0.850001X0.850001X-0.850001X0*%
%TD*%
%TA.AperFunction,ComponentPad*%
%ADD20C,2.200000*%
%TD*%
%TA.AperFunction,ViaPad*%
%ADD21C,0.600000*%
%TD*%
G04 APERTURE END LIST*
D10*
%TO.N,Net-(Q2-G)*%
%TO.C,Q2*%
X59950000Y-84815000D03*
D11*
%TO.N,Net-(Q2-D)*%
X54500000Y-84815000D03*
%TO.N,Net-(J1-POS)*%
X49050000Y-84815000D03*
%TD*%
D10*
%TO.N,Net-(Q8-G)*%
%TO.C,Q8*%
X49050000Y-27500000D03*
D11*
%TO.N,Net-(Q8-D)*%
X54500000Y-27500000D03*
%TO.N,Net-(J2-POS)*%
X59950000Y-27500000D03*
%TD*%
D12*
%TO.N,GND*%
%TO.C,J1*%
X57000000Y-62050000D03*
D13*
%TO.N,unconnected-(J1-PadNC)*%
X48100000Y-58050000D03*
%TO.N,unconnected-(J1-PadNC)_1*%
X48100000Y-76950000D03*
D14*
%TO.N,Net-(J1-POS)*%
X57000000Y-72950000D03*
%TD*%
D12*
%TO.N,GND*%
%TO.C,J3*%
X74150000Y-51550000D03*
D13*
%TO.N,unconnected-(J3-PadNC)*%
X83550000Y-66450000D03*
%TO.N,unconnected-(J3-PadNC)_1*%
X83550000Y-47550000D03*
D14*
%TO.N,VBUS*%
X74150000Y-62450000D03*
%TD*%
D12*
%TO.N,GND*%
%TO.C,J2*%
X57000000Y-39550000D03*
D13*
%TO.N,unconnected-(J2-PadNC)*%
X48100000Y-35550000D03*
%TO.N,unconnected-(J2-PadNC)_1*%
X48100000Y-54450000D03*
D14*
%TO.N,Net-(J2-POS)*%
X57000000Y-50450000D03*
%TD*%
D10*
%TO.N,Net-(Q4-G)*%
%TO.C,Q4*%
X78500000Y-84815000D03*
D11*
%TO.N,Net-(Q2-D)*%
X73050000Y-84815000D03*
%TO.N,VBUS*%
X67600000Y-84815000D03*
%TD*%
D15*
%TO.N,Net-(D3-A)*%
%TO.C,Q11*%
X79000000Y-36000000D03*
D16*
%TO.N,Net-(D3-K)*%
X79000000Y-37270000D03*
%TO.N,Net-(Q11-C)*%
X79000000Y-38540000D03*
%TD*%
D17*
%TO.N,VBUS*%
%TO.C,C10*%
X76500000Y-75000000D03*
D18*
%TO.N,GND*%
X81500000Y-75000000D03*
%TD*%
D10*
%TO.N,Net-(D3-A)*%
%TO.C,Q9*%
X67500000Y-27500000D03*
D11*
%TO.N,Net-(Q8-D)*%
X72950000Y-27500000D03*
%TO.N,VBUS*%
X78400000Y-27500000D03*
%TD*%
D19*
%TO.N,Net-(D3-K)*%
%TO.C,D3*%
X78080000Y-32500000D03*
D20*
%TO.N,Net-(D3-A)*%
X67920000Y-32500000D03*
%TD*%
D21*
%TO.N,GND*%
X70500000Y-42500000D03*
X66000000Y-79000000D03*
X62000000Y-77000000D03*
X75562500Y-40337500D03*
%TO.N,Net-(J2-POS)*%
X79475000Y-44250000D03*
%TO.N,Net-(J1-POS)*%
X82000000Y-44500000D03*
X79500000Y-42000000D03*
%TO.N,VBUS*%
X73475000Y-41750000D03*
X68000000Y-78500000D03*
%TO.N,Net-(Q2-G)*%
X62000000Y-74500000D03*
%TO.N,Net-(Q8-G)*%
X78475000Y-44750000D03*
%TD*%
%TA.AperFunction,Conductor*%
%TO.N,GND*%
G36*
X85942539Y-19020185D02*
G01*
X85988294Y-19072989D01*
X85999500Y-19124500D01*
X85999500Y-93375500D01*
X85979815Y-93442539D01*
X85927011Y-93488294D01*
X85875500Y-93499500D01*
X45624500Y-93499500D01*
X45557461Y-93479815D01*
X45511706Y-93427011D01*
X45500500Y-93375500D01*
X45500500Y-83700258D01*
X47299500Y-83700258D01*
X47299500Y-85929741D01*
X47324446Y-86119215D01*
X47329452Y-86157238D01*
X47329453Y-86157240D01*
X47388842Y-86378887D01*
X47476650Y-86590876D01*
X47476657Y-86590890D01*
X47591392Y-86789617D01*
X47731081Y-86971661D01*
X47731089Y-86971670D01*
X47893330Y-87133911D01*
X47893338Y-87133918D01*
X48075382Y-87273607D01*
X48075385Y-87273608D01*
X48075388Y-87273611D01*
X48274112Y-87388344D01*
X48274117Y-87388346D01*
X48274123Y-87388349D01*
X48356678Y-87422544D01*
X48486113Y-87476158D01*
X48707762Y-87535548D01*
X48924312Y-87564057D01*
X48935250Y-87565498D01*
X48935266Y-87565500D01*
X48935273Y-87565500D01*
X49164727Y-87565500D01*
X49164734Y-87565500D01*
X49392238Y-87535548D01*
X49613887Y-87476158D01*
X49825888Y-87388344D01*
X50024612Y-87273611D01*
X50206661Y-87133919D01*
X50206665Y-87133914D01*
X50206670Y-87133911D01*
X50368911Y-86971670D01*
X50368914Y-86971665D01*
X50368919Y-86971661D01*
X50508611Y-86789612D01*
X50623344Y-86590888D01*
X50711158Y-86378887D01*
X50770548Y-86157238D01*
X50800500Y-85929734D01*
X50800500Y-83700266D01*
X50800499Y-83700258D01*
X52749500Y-83700258D01*
X52749500Y-85929741D01*
X52774446Y-86119215D01*
X52779452Y-86157238D01*
X52779453Y-86157240D01*
X52838842Y-86378887D01*
X52926650Y-86590876D01*
X52926657Y-86590890D01*
X53041392Y-86789617D01*
X53181081Y-86971661D01*
X53181089Y-86971670D01*
X53343330Y-87133911D01*
X53343338Y-87133918D01*
X53525382Y-87273607D01*
X53525385Y-87273608D01*
X53525388Y-87273611D01*
X53724112Y-87388344D01*
X53724117Y-87388346D01*
X53724123Y-87388349D01*
X53806678Y-87422544D01*
X53936113Y-87476158D01*
X54157762Y-87535548D01*
X54374312Y-87564057D01*
X54385250Y-87565498D01*
X54385266Y-87565500D01*
X54385273Y-87565500D01*
X54614727Y-87565500D01*
X54614734Y-87565500D01*
X54842238Y-87535548D01*
X55063887Y-87476158D01*
X55275888Y-87388344D01*
X55474612Y-87273611D01*
X55656661Y-87133919D01*
X55656665Y-87133914D01*
X55656670Y-87133911D01*
X55818911Y-86971670D01*
X55818914Y-86971665D01*
X55818919Y-86971661D01*
X55958611Y-86789612D01*
X56073344Y-86590888D01*
X56161158Y-86378887D01*
X56220548Y-86157238D01*
X56250500Y-85929734D01*
X56250500Y-83700266D01*
X56220548Y-83472762D01*
X56161158Y-83251113D01*
X56073344Y-83039112D01*
X55958611Y-82840388D01*
X55958608Y-82840385D01*
X55958607Y-82840382D01*
X55818918Y-82658338D01*
X55818911Y-82658330D01*
X55677716Y-82517135D01*
X58199500Y-82517135D01*
X58199500Y-87112870D01*
X58199501Y-87112876D01*
X58205908Y-87172483D01*
X58256202Y-87307328D01*
X58256206Y-87307335D01*
X58342452Y-87422544D01*
X58342455Y-87422547D01*
X58457664Y-87508793D01*
X58457671Y-87508797D01*
X58592517Y-87559091D01*
X58592516Y-87559091D01*
X58599444Y-87559835D01*
X58652127Y-87565500D01*
X61247872Y-87565499D01*
X61307483Y-87559091D01*
X61442331Y-87508796D01*
X61557546Y-87422546D01*
X61643796Y-87307331D01*
X61694091Y-87172483D01*
X61700500Y-87112873D01*
X61700499Y-83700258D01*
X65849500Y-83700258D01*
X65849500Y-85929741D01*
X65874446Y-86119215D01*
X65879452Y-86157238D01*
X65879453Y-86157240D01*
X65938842Y-86378887D01*
X66026650Y-86590876D01*
X66026657Y-86590890D01*
X66141392Y-86789617D01*
X66281081Y-86971661D01*
X66281089Y-86971670D01*
X66443330Y-87133911D01*
X66443338Y-87133918D01*
X66625382Y-87273607D01*
X66625385Y-87273608D01*
X66625388Y-87273611D01*
X66824112Y-87388344D01*
X66824117Y-87388346D01*
X66824123Y-87388349D01*
X66906678Y-87422544D01*
X67036113Y-87476158D01*
X67257762Y-87535548D01*
X67474312Y-87564057D01*
X67485250Y-87565498D01*
X67485266Y-87565500D01*
X67485273Y-87565500D01*
X67714727Y-87565500D01*
X67714734Y-87565500D01*
X67942238Y-87535548D01*
X68163887Y-87476158D01*
X68375888Y-87388344D01*
X68574612Y-87273611D01*
X68756661Y-87133919D01*
X68756665Y-87133914D01*
X68756670Y-87133911D01*
X68918911Y-86971670D01*
X68918914Y-86971665D01*
X68918919Y-86971661D01*
X69058611Y-86789612D01*
X69173344Y-86590888D01*
X69261158Y-86378887D01*
X69320548Y-86157238D01*
X69350500Y-85929734D01*
X69350500Y-83700266D01*
X69350499Y-83700258D01*
X71299500Y-83700258D01*
X71299500Y-85929741D01*
X71324446Y-86119215D01*
X71329452Y-86157238D01*
X71329453Y-86157240D01*
X71388842Y-86378887D01*
X71476650Y-86590876D01*
X71476657Y-86590890D01*
X71591392Y-86789617D01*
X71731081Y-86971661D01*
X71731089Y-86971670D01*
X71893330Y-87133911D01*
X71893338Y-87133918D01*
X72075382Y-87273607D01*
X72075385Y-87273608D01*
X72075388Y-87273611D01*
X72274112Y-87388344D01*
X72274117Y-87388346D01*
X72274123Y-87388349D01*
X72356678Y-87422544D01*
X72486113Y-87476158D01*
X72707762Y-87535548D01*
X72924312Y-87564057D01*
X72935250Y-87565498D01*
X72935266Y-87565500D01*
X72935273Y-87565500D01*
X73164727Y-87565500D01*
X73164734Y-87565500D01*
X73392238Y-87535548D01*
X73613887Y-87476158D01*
X73825888Y-87388344D01*
X74024612Y-87273611D01*
X74206661Y-87133919D01*
X74206665Y-87133914D01*
X74206670Y-87133911D01*
X74368911Y-86971670D01*
X74368914Y-86971665D01*
X74368919Y-86971661D01*
X74508611Y-86789612D01*
X74623344Y-86590888D01*
X74711158Y-86378887D01*
X74770548Y-86157238D01*
X74800500Y-85929734D01*
X74800500Y-83700266D01*
X74770548Y-83472762D01*
X74711158Y-83251113D01*
X74623344Y-83039112D01*
X74508611Y-82840388D01*
X74508608Y-82840385D01*
X74508607Y-82840382D01*
X74368918Y-82658338D01*
X74368911Y-82658330D01*
X74227716Y-82517135D01*
X76749500Y-82517135D01*
X76749500Y-87112870D01*
X76749501Y-87112876D01*
X76755908Y-87172483D01*
X76806202Y-87307328D01*
X76806206Y-87307335D01*
X76892452Y-87422544D01*
X76892455Y-87422547D01*
X77007664Y-87508793D01*
X77007671Y-87508797D01*
X77142517Y-87559091D01*
X77142516Y-87559091D01*
X77149444Y-87559835D01*
X77202127Y-87565500D01*
X79797872Y-87565499D01*
X79857483Y-87559091D01*
X79992331Y-87508796D01*
X80107546Y-87422546D01*
X80193796Y-87307331D01*
X80244091Y-87172483D01*
X80250500Y-87112873D01*
X80250499Y-82517128D01*
X80244091Y-82457517D01*
X80193796Y-82322669D01*
X80193795Y-82322668D01*
X80193793Y-82322664D01*
X80107547Y-82207455D01*
X80107544Y-82207452D01*
X79992335Y-82121206D01*
X79992328Y-82121202D01*
X79857482Y-82070908D01*
X79857483Y-82070908D01*
X79797883Y-82064501D01*
X79797881Y-82064500D01*
X79797873Y-82064500D01*
X79797864Y-82064500D01*
X77202129Y-82064500D01*
X77202123Y-82064501D01*
X77142516Y-82070908D01*
X77007671Y-82121202D01*
X77007664Y-82121206D01*
X76892455Y-82207452D01*
X76892452Y-82207455D01*
X76806206Y-82322664D01*
X76806202Y-82322671D01*
X76755908Y-82457517D01*
X76749501Y-82517116D01*
X76749501Y-82517123D01*
X76749500Y-82517135D01*
X74227716Y-82517135D01*
X74206670Y-82496089D01*
X74206661Y-82496081D01*
X74024617Y-82356392D01*
X73966210Y-82322671D01*
X73825888Y-82241656D01*
X73825876Y-82241650D01*
X73613887Y-82153842D01*
X73392238Y-82094452D01*
X73354215Y-82089446D01*
X73164741Y-82064500D01*
X73164734Y-82064500D01*
X72935266Y-82064500D01*
X72935258Y-82064500D01*
X72718715Y-82093009D01*
X72707762Y-82094452D01*
X72614076Y-82119554D01*
X72486112Y-82153842D01*
X72274123Y-82241650D01*
X72274109Y-82241657D01*
X72075382Y-82356392D01*
X71893338Y-82496081D01*
X71731081Y-82658338D01*
X71591392Y-82840382D01*
X71476657Y-83039109D01*
X71476650Y-83039123D01*
X71388842Y-83251112D01*
X71329453Y-83472759D01*
X71329451Y-83472770D01*
X71299500Y-83700258D01*
X69350499Y-83700258D01*
X69320548Y-83472762D01*
X69261158Y-83251113D01*
X69173344Y-83039112D01*
X69058611Y-82840388D01*
X69058608Y-82840385D01*
X69058607Y-82840382D01*
X68918918Y-82658338D01*
X68918911Y-82658330D01*
X68756670Y-82496089D01*
X68756661Y-82496081D01*
X68574617Y-82356392D01*
X68516210Y-82322671D01*
X68375888Y-82241656D01*
X68375876Y-82241650D01*
X68163887Y-82153842D01*
X67942238Y-82094452D01*
X67904215Y-82089446D01*
X67714741Y-82064500D01*
X67714734Y-82064500D01*
X67485266Y-82064500D01*
X67485258Y-82064500D01*
X67268715Y-82093009D01*
X67257762Y-82094452D01*
X67164076Y-82119554D01*
X67036112Y-82153842D01*
X66824123Y-82241650D01*
X66824109Y-82241657D01*
X66625382Y-82356392D01*
X66443338Y-82496081D01*
X66281081Y-82658338D01*
X66141392Y-82840382D01*
X66026657Y-83039109D01*
X66026650Y-83039123D01*
X65938842Y-83251112D01*
X65879453Y-83472759D01*
X65879451Y-83472770D01*
X65849500Y-83700258D01*
X61700499Y-83700258D01*
X61700499Y-82517128D01*
X61694091Y-82457517D01*
X61643796Y-82322669D01*
X61643795Y-82322668D01*
X61643793Y-82322664D01*
X61557547Y-82207455D01*
X61557544Y-82207452D01*
X61442335Y-82121206D01*
X61442328Y-82121202D01*
X61307482Y-82070908D01*
X61307483Y-82070908D01*
X61247883Y-82064501D01*
X61247881Y-82064500D01*
X61247873Y-82064500D01*
X61247864Y-82064500D01*
X58652129Y-82064500D01*
X58652123Y-82064501D01*
X58592516Y-82070908D01*
X58457671Y-82121202D01*
X58457664Y-82121206D01*
X58342455Y-82207452D01*
X58342452Y-82207455D01*
X58256206Y-82322664D01*
X58256202Y-82322671D01*
X58205908Y-82457517D01*
X58199501Y-82517116D01*
X58199501Y-82517123D01*
X58199500Y-82517135D01*
X55677716Y-82517135D01*
X55656670Y-82496089D01*
X55656661Y-82496081D01*
X55474617Y-82356392D01*
X55416210Y-82322671D01*
X55275888Y-82241656D01*
X55275876Y-82241650D01*
X55063887Y-82153842D01*
X54842238Y-82094452D01*
X54804215Y-82089446D01*
X54614741Y-82064500D01*
X54614734Y-82064500D01*
X54385266Y-82064500D01*
X54385258Y-82064500D01*
X54168715Y-82093009D01*
X54157762Y-82094452D01*
X54064076Y-82119554D01*
X53936112Y-82153842D01*
X53724123Y-82241650D01*
X53724109Y-82241657D01*
X53525382Y-82356392D01*
X53343338Y-82496081D01*
X53181081Y-82658338D01*
X53041392Y-82840382D01*
X52926657Y-83039109D01*
X52926650Y-83039123D01*
X52838842Y-83251112D01*
X52779453Y-83472759D01*
X52779451Y-83472770D01*
X52749500Y-83700258D01*
X50800499Y-83700258D01*
X50770548Y-83472762D01*
X50711158Y-83251113D01*
X50623344Y-83039112D01*
X50508611Y-82840388D01*
X50508608Y-82840385D01*
X50508607Y-82840382D01*
X50368918Y-82658338D01*
X50368911Y-82658330D01*
X50206670Y-82496089D01*
X50206661Y-82496081D01*
X50024617Y-82356392D01*
X49966210Y-82322671D01*
X49825888Y-82241656D01*
X49825876Y-82241650D01*
X49613887Y-82153842D01*
X49392238Y-82094452D01*
X49354215Y-82089446D01*
X49164741Y-82064500D01*
X49164734Y-82064500D01*
X48935266Y-82064500D01*
X48935258Y-82064500D01*
X48718715Y-82093009D01*
X48707762Y-82094452D01*
X48614076Y-82119554D01*
X48486112Y-82153842D01*
X48274123Y-82241650D01*
X48274109Y-82241657D01*
X48075382Y-82356392D01*
X47893338Y-82496081D01*
X47731081Y-82658338D01*
X47591392Y-82840382D01*
X47476657Y-83039109D01*
X47476650Y-83039123D01*
X47388842Y-83251112D01*
X47329453Y-83472759D01*
X47329451Y-83472770D01*
X47299500Y-83700258D01*
X45500500Y-83700258D01*
X45500500Y-78421153D01*
X67199500Y-78421153D01*
X67199500Y-78578846D01*
X67230261Y-78733489D01*
X67230264Y-78733501D01*
X67290602Y-78879172D01*
X67290609Y-78879185D01*
X67378210Y-79010288D01*
X67378213Y-79010292D01*
X67489707Y-79121786D01*
X67489711Y-79121789D01*
X67620814Y-79209390D01*
X67620827Y-79209397D01*
X67766498Y-79269735D01*
X67766503Y-79269737D01*
X67921153Y-79300499D01*
X67921156Y-79300500D01*
X67921158Y-79300500D01*
X68078844Y-79300500D01*
X68078845Y-79300499D01*
X68233497Y-79269737D01*
X68379179Y-79209394D01*
X68510289Y-79121789D01*
X68621789Y-79010289D01*
X68709394Y-78879179D01*
X68769737Y-78733497D01*
X68800500Y-78578842D01*
X68800500Y-78421158D01*
X68800500Y-78421155D01*
X68800499Y-78421153D01*
X68769738Y-78266510D01*
X68769737Y-78266503D01*
X68769735Y-78266498D01*
X68709397Y-78120827D01*
X68709390Y-78120814D01*
X68621789Y-77989711D01*
X68621786Y-77989707D01*
X68510292Y-77878213D01*
X68510288Y-77878210D01*
X68379185Y-77790609D01*
X68379172Y-77790602D01*
X68233501Y-77730264D01*
X68233489Y-77730261D01*
X68078845Y-77699500D01*
X68078842Y-77699500D01*
X67921158Y-77699500D01*
X67921155Y-77699500D01*
X67766510Y-77730261D01*
X67766498Y-77730264D01*
X67620827Y-77790602D01*
X67620814Y-77790609D01*
X67489711Y-77878210D01*
X67489707Y-77878213D01*
X67378213Y-77989707D01*
X67378210Y-77989711D01*
X67290609Y-78120814D01*
X67290602Y-78120827D01*
X67230264Y-78266498D01*
X67230261Y-78266510D01*
X67199500Y-78421153D01*
X45500500Y-78421153D01*
X45500500Y-76859448D01*
X46299500Y-76859448D01*
X46299500Y-77040551D01*
X46327829Y-77219410D01*
X46383787Y-77391636D01*
X46383788Y-77391639D01*
X46466006Y-77552997D01*
X46572441Y-77699494D01*
X46572445Y-77699499D01*
X46700500Y-77827554D01*
X46700505Y-77827558D01*
X46828287Y-77920396D01*
X46847006Y-77933996D01*
X46952484Y-77987740D01*
X47008360Y-78016211D01*
X47008363Y-78016212D01*
X47094476Y-78044191D01*
X47180591Y-78072171D01*
X47263429Y-78085291D01*
X47359449Y-78100500D01*
X47359454Y-78100500D01*
X48840551Y-78100500D01*
X48927259Y-78086765D01*
X49019409Y-78072171D01*
X49191639Y-78016211D01*
X49352994Y-77933996D01*
X49499501Y-77827553D01*
X49627553Y-77699501D01*
X49733996Y-77552994D01*
X49816211Y-77391639D01*
X49872171Y-77219409D01*
X49886765Y-77127259D01*
X49900500Y-77040551D01*
X49900500Y-76859448D01*
X49875324Y-76700499D01*
X49872171Y-76680591D01*
X49844191Y-76594476D01*
X49816212Y-76508363D01*
X49816211Y-76508360D01*
X49770501Y-76418651D01*
X49733996Y-76347006D01*
X49720396Y-76328287D01*
X49627558Y-76200505D01*
X49627554Y-76200500D01*
X49499499Y-76072445D01*
X49499494Y-76072441D01*
X49352997Y-75966006D01*
X49352996Y-75966005D01*
X49352994Y-75966004D01*
X49301300Y-75939664D01*
X49191639Y-75883788D01*
X49191636Y-75883787D01*
X49019410Y-75827829D01*
X48840551Y-75799500D01*
X48840546Y-75799500D01*
X47359454Y-75799500D01*
X47359449Y-75799500D01*
X47180589Y-75827829D01*
X47008363Y-75883787D01*
X47008360Y-75883788D01*
X46847002Y-75966006D01*
X46700505Y-76072441D01*
X46700500Y-76072445D01*
X46572445Y-76200500D01*
X46572441Y-76200505D01*
X46466006Y-76347002D01*
X46383788Y-76508360D01*
X46383787Y-76508363D01*
X46327829Y-76680589D01*
X46299500Y-76859448D01*
X45500500Y-76859448D01*
X45500500Y-70444135D01*
X54041500Y-70444135D01*
X54041500Y-75455870D01*
X54041501Y-75455876D01*
X54047908Y-75515483D01*
X54098202Y-75650328D01*
X54098206Y-75650335D01*
X54184452Y-75765544D01*
X54184455Y-75765547D01*
X54299664Y-75851793D01*
X54299671Y-75851797D01*
X54434517Y-75902091D01*
X54434516Y-75902091D01*
X54441444Y-75902835D01*
X54494127Y-75908500D01*
X59505872Y-75908499D01*
X59565483Y-75902091D01*
X59700331Y-75851796D01*
X59815546Y-75765546D01*
X59901796Y-75650331D01*
X59952091Y-75515483D01*
X59958500Y-75455873D01*
X59958500Y-74421153D01*
X61199500Y-74421153D01*
X61199500Y-74578846D01*
X61230261Y-74733489D01*
X61230264Y-74733501D01*
X61290602Y-74879172D01*
X61290609Y-74879185D01*
X61378210Y-75010288D01*
X61378213Y-75010292D01*
X61489707Y-75121786D01*
X61489711Y-75121789D01*
X61620814Y-75209390D01*
X61620827Y-75209397D01*
X61766498Y-75269735D01*
X61766503Y-75269737D01*
X61921153Y-75300499D01*
X61921156Y-75300500D01*
X61921158Y-75300500D01*
X62078844Y-75300500D01*
X62078845Y-75300499D01*
X62233497Y-75269737D01*
X62379179Y-75209394D01*
X62510289Y-75121789D01*
X62621789Y-75010289D01*
X62709394Y-74879179D01*
X62769737Y-74733497D01*
X62800500Y-74578842D01*
X62800500Y-74421158D01*
X62800500Y-74421155D01*
X62800499Y-74421153D01*
X62769738Y-74266510D01*
X62769737Y-74266503D01*
X62769735Y-74266498D01*
X62709397Y-74120827D01*
X62709390Y-74120814D01*
X62672581Y-74065726D01*
X62628653Y-73999984D01*
X74799500Y-73999984D01*
X74799500Y-76000015D01*
X74810000Y-76102795D01*
X74810001Y-76102796D01*
X74865186Y-76269335D01*
X74865187Y-76269337D01*
X74957286Y-76418651D01*
X74957289Y-76418655D01*
X75081344Y-76542710D01*
X75081348Y-76542713D01*
X75230662Y-76634812D01*
X75230664Y-76634813D01*
X75230666Y-76634814D01*
X75397203Y-76689999D01*
X75499992Y-76700500D01*
X75499997Y-76700500D01*
X77500003Y-76700500D01*
X77500008Y-76700500D01*
X77602797Y-76689999D01*
X77769334Y-76634814D01*
X77918655Y-76542711D01*
X78042711Y-76418655D01*
X78134814Y-76269334D01*
X78189999Y-76102797D01*
X78200500Y-76000008D01*
X78200500Y-73999992D01*
X78189999Y-73897203D01*
X78134814Y-73730666D01*
X78134566Y-73730264D01*
X78042713Y-73581348D01*
X78042710Y-73581344D01*
X77918655Y-73457289D01*
X77918651Y-73457286D01*
X77769337Y-73365187D01*
X77769335Y-73365186D01*
X77686065Y-73337593D01*
X77602797Y-73310001D01*
X77602795Y-73310000D01*
X77500015Y-73299500D01*
X77500008Y-73299500D01*
X75499992Y-73299500D01*
X75499984Y-73299500D01*
X75397204Y-73310000D01*
X75397203Y-73310001D01*
X75230664Y-73365186D01*
X75230662Y-73365187D01*
X75081348Y-73457286D01*
X75081344Y-73457289D01*
X74957289Y-73581344D01*
X74957286Y-73581348D01*
X74865187Y-73730662D01*
X74865186Y-73730664D01*
X74810001Y-73897203D01*
X74810000Y-73897204D01*
X74799500Y-73999984D01*
X62628653Y-73999984D01*
X62621789Y-73989711D01*
X62621786Y-73989707D01*
X62510292Y-73878213D01*
X62510288Y-73878210D01*
X62379185Y-73790609D01*
X62379172Y-73790602D01*
X62233501Y-73730264D01*
X62233489Y-73730261D01*
X62078845Y-73699500D01*
X62078842Y-73699500D01*
X61921158Y-73699500D01*
X61921155Y-73699500D01*
X61766510Y-73730261D01*
X61766498Y-73730264D01*
X61620827Y-73790602D01*
X61620814Y-73790609D01*
X61489711Y-73878210D01*
X61489707Y-73878213D01*
X61378213Y-73989707D01*
X61378210Y-73989711D01*
X61290609Y-74120814D01*
X61290602Y-74120827D01*
X61230264Y-74266498D01*
X61230261Y-74266510D01*
X61199500Y-74421153D01*
X59958500Y-74421153D01*
X59958499Y-70444128D01*
X59952091Y-70384517D01*
X59901796Y-70249669D01*
X59901795Y-70249668D01*
X59901793Y-70249664D01*
X59815547Y-70134455D01*
X59815544Y-70134452D01*
X59700335Y-70048206D01*
X59700328Y-70048202D01*
X59565482Y-69997908D01*
X59565483Y-69997908D01*
X59505883Y-69991501D01*
X59505881Y-69991500D01*
X59505873Y-69991500D01*
X59505864Y-69991500D01*
X54494129Y-69991500D01*
X54494123Y-69991501D01*
X54434516Y-69997908D01*
X54299671Y-70048202D01*
X54299664Y-70048206D01*
X54184455Y-70134452D01*
X54184452Y-70134455D01*
X54098206Y-70249664D01*
X54098202Y-70249671D01*
X54047908Y-70384517D01*
X54041501Y-70444116D01*
X54041501Y-70444123D01*
X54041500Y-70444135D01*
X45500500Y-70444135D01*
X45500500Y-66359448D01*
X81749500Y-66359448D01*
X81749500Y-66540551D01*
X81777829Y-66719410D01*
X81833787Y-66891636D01*
X81833788Y-66891639D01*
X81916006Y-67052997D01*
X82022441Y-67199494D01*
X82022445Y-67199499D01*
X82150500Y-67327554D01*
X82150505Y-67327558D01*
X82278287Y-67420396D01*
X82297006Y-67433996D01*
X82402484Y-67487740D01*
X82458360Y-67516211D01*
X82458363Y-67516212D01*
X82544476Y-67544191D01*
X82630591Y-67572171D01*
X82713429Y-67585291D01*
X82809449Y-67600500D01*
X82809454Y-67600500D01*
X84290551Y-67600500D01*
X84377259Y-67586765D01*
X84469409Y-67572171D01*
X84641639Y-67516211D01*
X84802994Y-67433996D01*
X84949501Y-67327553D01*
X85077553Y-67199501D01*
X85183996Y-67052994D01*
X85266211Y-66891639D01*
X85322171Y-66719409D01*
X85336765Y-66627259D01*
X85350500Y-66540551D01*
X85350500Y-66359448D01*
X85334019Y-66255397D01*
X85322171Y-66180591D01*
X85266211Y-66008361D01*
X85266211Y-66008360D01*
X85237740Y-65952484D01*
X85183996Y-65847006D01*
X85170396Y-65828287D01*
X85077558Y-65700505D01*
X85077554Y-65700500D01*
X84949499Y-65572445D01*
X84949494Y-65572441D01*
X84802997Y-65466006D01*
X84802996Y-65466005D01*
X84802994Y-65466004D01*
X84751300Y-65439664D01*
X84641639Y-65383788D01*
X84641636Y-65383787D01*
X84469410Y-65327829D01*
X84290551Y-65299500D01*
X84290546Y-65299500D01*
X82809454Y-65299500D01*
X82809449Y-65299500D01*
X82630589Y-65327829D01*
X82458363Y-65383787D01*
X82458360Y-65383788D01*
X82297002Y-65466006D01*
X82150505Y-65572441D01*
X82150500Y-65572445D01*
X82022445Y-65700500D01*
X82022441Y-65700505D01*
X81916006Y-65847002D01*
X81833788Y-66008360D01*
X81833787Y-66008363D01*
X81777829Y-66180589D01*
X81749500Y-66359448D01*
X45500500Y-66359448D01*
X45500500Y-59944135D01*
X71191500Y-59944135D01*
X71191500Y-64955870D01*
X71191501Y-64955876D01*
X71197908Y-65015483D01*
X71248202Y-65150328D01*
X71248206Y-65150335D01*
X71334452Y-65265544D01*
X71334455Y-65265547D01*
X71449664Y-65351793D01*
X71449671Y-65351797D01*
X71584517Y-65402091D01*
X71584516Y-65402091D01*
X71591444Y-65402835D01*
X71644127Y-65408500D01*
X76655872Y-65408499D01*
X76715483Y-65402091D01*
X76850331Y-65351796D01*
X76965546Y-65265546D01*
X77051796Y-65150331D01*
X77102091Y-65015483D01*
X77108500Y-64955873D01*
X77108499Y-59944128D01*
X77102091Y-59884517D01*
X77051796Y-59749669D01*
X77051795Y-59749668D01*
X77051793Y-59749664D01*
X76965547Y-59634455D01*
X76965544Y-59634452D01*
X76850335Y-59548206D01*
X76850328Y-59548202D01*
X76715482Y-59497908D01*
X76715483Y-59497908D01*
X76655883Y-59491501D01*
X76655881Y-59491500D01*
X76655873Y-59491500D01*
X76655864Y-59491500D01*
X71644129Y-59491500D01*
X71644123Y-59491501D01*
X71584516Y-59497908D01*
X71449671Y-59548202D01*
X71449664Y-59548206D01*
X71334455Y-59634452D01*
X71334452Y-59634455D01*
X71248206Y-59749664D01*
X71248202Y-59749671D01*
X71197908Y-59884517D01*
X71191501Y-59944116D01*
X71191501Y-59944123D01*
X71191500Y-59944135D01*
X45500500Y-59944135D01*
X45500500Y-57959448D01*
X46299500Y-57959448D01*
X46299500Y-58140551D01*
X46327829Y-58319410D01*
X46383787Y-58491636D01*
X46383788Y-58491639D01*
X46466006Y-58652997D01*
X46572441Y-58799494D01*
X46572445Y-58799499D01*
X46700500Y-58927554D01*
X46700505Y-58927558D01*
X46828287Y-59020396D01*
X46847006Y-59033996D01*
X46952484Y-59087740D01*
X47008360Y-59116211D01*
X47008363Y-59116212D01*
X47094476Y-59144191D01*
X47180591Y-59172171D01*
X47263429Y-59185291D01*
X47359449Y-59200500D01*
X47359454Y-59200500D01*
X48840551Y-59200500D01*
X48927259Y-59186765D01*
X49019409Y-59172171D01*
X49191639Y-59116211D01*
X49352994Y-59033996D01*
X49499501Y-58927553D01*
X49627553Y-58799501D01*
X49733996Y-58652994D01*
X49816211Y-58491639D01*
X49872171Y-58319409D01*
X49886765Y-58227259D01*
X49900500Y-58140551D01*
X49900500Y-57959448D01*
X49884019Y-57855397D01*
X49872171Y-57780591D01*
X49816211Y-57608361D01*
X49816211Y-57608360D01*
X49787740Y-57552484D01*
X49733996Y-57447006D01*
X49720396Y-57428287D01*
X49627558Y-57300505D01*
X49627554Y-57300500D01*
X49499499Y-57172445D01*
X49499494Y-57172441D01*
X49352997Y-57066006D01*
X49352996Y-57066005D01*
X49352994Y-57066004D01*
X49301300Y-57039664D01*
X49191639Y-56983788D01*
X49191636Y-56983787D01*
X49019410Y-56927829D01*
X48840551Y-56899500D01*
X48840546Y-56899500D01*
X47359454Y-56899500D01*
X47359449Y-56899500D01*
X47180589Y-56927829D01*
X47008363Y-56983787D01*
X47008360Y-56983788D01*
X46847002Y-57066006D01*
X46700505Y-57172441D01*
X46700500Y-57172445D01*
X46572445Y-57300500D01*
X46572441Y-57300505D01*
X46466006Y-57447002D01*
X46383788Y-57608360D01*
X46383787Y-57608363D01*
X46327829Y-57780589D01*
X46299500Y-57959448D01*
X45500500Y-57959448D01*
X45500500Y-54359448D01*
X46299500Y-54359448D01*
X46299500Y-54540551D01*
X46327829Y-54719410D01*
X46383787Y-54891636D01*
X46383788Y-54891639D01*
X46466006Y-55052997D01*
X46572441Y-55199494D01*
X46572445Y-55199499D01*
X46700500Y-55327554D01*
X46700505Y-55327558D01*
X46828287Y-55420396D01*
X46847006Y-55433996D01*
X46952484Y-55487740D01*
X47008360Y-55516211D01*
X47008363Y-55516212D01*
X47094476Y-55544191D01*
X47180591Y-55572171D01*
X47263429Y-55585291D01*
X47359449Y-55600500D01*
X47359454Y-55600500D01*
X48840551Y-55600500D01*
X48927259Y-55586765D01*
X49019409Y-55572171D01*
X49191639Y-55516211D01*
X49352994Y-55433996D01*
X49499501Y-55327553D01*
X49627553Y-55199501D01*
X49733996Y-55052994D01*
X49816211Y-54891639D01*
X49872171Y-54719409D01*
X49886765Y-54627259D01*
X49900500Y-54540551D01*
X49900500Y-54359448D01*
X49884019Y-54255397D01*
X49872171Y-54180591D01*
X49816211Y-54008361D01*
X49816211Y-54008360D01*
X49787740Y-53952484D01*
X49733996Y-53847006D01*
X49720396Y-53828287D01*
X49627558Y-53700505D01*
X49627554Y-53700500D01*
X49499499Y-53572445D01*
X49499494Y-53572441D01*
X49352997Y-53466006D01*
X49352996Y-53466005D01*
X49352994Y-53466004D01*
X49301300Y-53439664D01*
X49191639Y-53383788D01*
X49191636Y-53383787D01*
X49019410Y-53327829D01*
X48840551Y-53299500D01*
X48840546Y-53299500D01*
X47359454Y-53299500D01*
X47359449Y-53299500D01*
X47180589Y-53327829D01*
X47008363Y-53383787D01*
X47008360Y-53383788D01*
X46847002Y-53466006D01*
X46700505Y-53572441D01*
X46700500Y-53572445D01*
X46572445Y-53700500D01*
X46572441Y-53700505D01*
X46466006Y-53847002D01*
X46383788Y-54008360D01*
X46383787Y-54008363D01*
X46327829Y-54180589D01*
X46299500Y-54359448D01*
X45500500Y-54359448D01*
X45500500Y-47944135D01*
X54041500Y-47944135D01*
X54041500Y-52955870D01*
X54041501Y-52955876D01*
X54047908Y-53015483D01*
X54098202Y-53150328D01*
X54098206Y-53150335D01*
X54184452Y-53265544D01*
X54184455Y-53265547D01*
X54299664Y-53351793D01*
X54299671Y-53351797D01*
X54434517Y-53402091D01*
X54434516Y-53402091D01*
X54441444Y-53402835D01*
X54494127Y-53408500D01*
X59505872Y-53408499D01*
X59565483Y-53402091D01*
X59700331Y-53351796D01*
X59815546Y-53265546D01*
X59901796Y-53150331D01*
X59952091Y-53015483D01*
X59958500Y-52955873D01*
X59958499Y-47944128D01*
X59952091Y-47884517D01*
X59927807Y-47819409D01*
X59901797Y-47749671D01*
X59901793Y-47749664D01*
X59815547Y-47634455D01*
X59707871Y-47553848D01*
X59707870Y-47553846D01*
X59700335Y-47548206D01*
X59700328Y-47548202D01*
X59565482Y-47497908D01*
X59565483Y-47497908D01*
X59505883Y-47491501D01*
X59505881Y-47491500D01*
X59505873Y-47491500D01*
X59505864Y-47491500D01*
X54494129Y-47491500D01*
X54494123Y-47491501D01*
X54434516Y-47497908D01*
X54299671Y-47548202D01*
X54299664Y-47548206D01*
X54184455Y-47634452D01*
X54184452Y-47634455D01*
X54098206Y-47749664D01*
X54098202Y-47749671D01*
X54047908Y-47884517D01*
X54041501Y-47944116D01*
X54041501Y-47944123D01*
X54041500Y-47944135D01*
X45500500Y-47944135D01*
X45500500Y-47459448D01*
X81749500Y-47459448D01*
X81749500Y-47640551D01*
X81777829Y-47819410D01*
X81833787Y-47991636D01*
X81833788Y-47991639D01*
X81916006Y-48152997D01*
X82022441Y-48299494D01*
X82022445Y-48299499D01*
X82150500Y-48427554D01*
X82150505Y-48427558D01*
X82278287Y-48520396D01*
X82297006Y-48533996D01*
X82402484Y-48587740D01*
X82458360Y-48616211D01*
X82458363Y-48616212D01*
X82544476Y-48644191D01*
X82630591Y-48672171D01*
X82713429Y-48685291D01*
X82809449Y-48700500D01*
X82809454Y-48700500D01*
X84290551Y-48700500D01*
X84377259Y-48686765D01*
X84469409Y-48672171D01*
X84641639Y-48616211D01*
X84802994Y-48533996D01*
X84949501Y-48427553D01*
X85077553Y-48299501D01*
X85183996Y-48152994D01*
X85266211Y-47991639D01*
X85322171Y-47819409D01*
X85336765Y-47727259D01*
X85350500Y-47640551D01*
X85350500Y-47459448D01*
X85334019Y-47355397D01*
X85322171Y-47280591D01*
X85266211Y-47108361D01*
X85266211Y-47108360D01*
X85237740Y-47052484D01*
X85183996Y-46947006D01*
X85170396Y-46928287D01*
X85077558Y-46800505D01*
X85077554Y-46800500D01*
X84949499Y-46672445D01*
X84949494Y-46672441D01*
X84802997Y-46566006D01*
X84802996Y-46566005D01*
X84802994Y-46566004D01*
X84751300Y-46539664D01*
X84641639Y-46483788D01*
X84641636Y-46483787D01*
X84469410Y-46427829D01*
X84290551Y-46399500D01*
X84290546Y-46399500D01*
X82809454Y-46399500D01*
X82809449Y-46399500D01*
X82630589Y-46427829D01*
X82458363Y-46483787D01*
X82458360Y-46483788D01*
X82297002Y-46566006D01*
X82150505Y-46672441D01*
X82150500Y-46672445D01*
X82022445Y-46800500D01*
X82022441Y-46800505D01*
X81916006Y-46947002D01*
X81833788Y-47108360D01*
X81833787Y-47108363D01*
X81777829Y-47280589D01*
X81749500Y-47459448D01*
X45500500Y-47459448D01*
X45500500Y-44671153D01*
X77674500Y-44671153D01*
X77674500Y-44828846D01*
X77705261Y-44983489D01*
X77705264Y-44983501D01*
X77765602Y-45129172D01*
X77765609Y-45129185D01*
X77853210Y-45260288D01*
X77853213Y-45260292D01*
X77964707Y-45371786D01*
X77964711Y-45371789D01*
X78095814Y-45459390D01*
X78095827Y-45459397D01*
X78241498Y-45519735D01*
X78241503Y-45519737D01*
X78396153Y-45550499D01*
X78396156Y-45550500D01*
X78396158Y-45550500D01*
X78553844Y-45550500D01*
X78553845Y-45550499D01*
X78708497Y-45519737D01*
X78854179Y-45459394D01*
X78985289Y-45371789D01*
X79096789Y-45260289D01*
X79184394Y-45129179D01*
X79191677Y-45111593D01*
X79235514Y-45057190D01*
X79301807Y-45035122D01*
X79330431Y-45037426D01*
X79396155Y-45050500D01*
X79396158Y-45050500D01*
X79553844Y-45050500D01*
X79553845Y-45050499D01*
X79708497Y-45019737D01*
X79854179Y-44959394D01*
X79985289Y-44871789D01*
X80096789Y-44760289D01*
X80184394Y-44629179D01*
X80244737Y-44483497D01*
X80257138Y-44421153D01*
X81199500Y-44421153D01*
X81199500Y-44578846D01*
X81230261Y-44733489D01*
X81230264Y-44733501D01*
X81290602Y-44879172D01*
X81290609Y-44879185D01*
X81378210Y-45010288D01*
X81378213Y-45010292D01*
X81489707Y-45121786D01*
X81489711Y-45121789D01*
X81620814Y-45209390D01*
X81620827Y-45209397D01*
X81766498Y-45269735D01*
X81766503Y-45269737D01*
X81921153Y-45300499D01*
X81921156Y-45300500D01*
X81921158Y-45300500D01*
X82078844Y-45300500D01*
X82078845Y-45300499D01*
X82233497Y-45269737D01*
X82379179Y-45209394D01*
X82510289Y-45121789D01*
X82621789Y-45010289D01*
X82709394Y-44879179D01*
X82769737Y-44733497D01*
X82800500Y-44578842D01*
X82800500Y-44421158D01*
X82800500Y-44421155D01*
X82800499Y-44421153D01*
X82769738Y-44266510D01*
X82769737Y-44266503D01*
X82769735Y-44266498D01*
X82709397Y-44120827D01*
X82709390Y-44120814D01*
X82621789Y-43989711D01*
X82621786Y-43989707D01*
X82510292Y-43878213D01*
X82510288Y-43878210D01*
X82379185Y-43790609D01*
X82379172Y-43790602D01*
X82233501Y-43730264D01*
X82233489Y-43730261D01*
X82078845Y-43699500D01*
X82078842Y-43699500D01*
X81921158Y-43699500D01*
X81921155Y-43699500D01*
X81766510Y-43730261D01*
X81766498Y-43730264D01*
X81620827Y-43790602D01*
X81620814Y-43790609D01*
X81489711Y-43878210D01*
X81489707Y-43878213D01*
X81378213Y-43989707D01*
X81378210Y-43989711D01*
X81290609Y-44120814D01*
X81290602Y-44120827D01*
X81230264Y-44266498D01*
X81230261Y-44266510D01*
X81199500Y-44421153D01*
X80257138Y-44421153D01*
X80275500Y-44328842D01*
X80275500Y-44171158D01*
X80275500Y-44171155D01*
X80275499Y-44171153D01*
X80249531Y-44040606D01*
X80244737Y-44016503D01*
X80244735Y-44016498D01*
X80184397Y-43870827D01*
X80184390Y-43870814D01*
X80096789Y-43739711D01*
X80096786Y-43739707D01*
X79985292Y-43628213D01*
X79985288Y-43628210D01*
X79854185Y-43540609D01*
X79854172Y-43540602D01*
X79708501Y-43480264D01*
X79708489Y-43480261D01*
X79553845Y-43449500D01*
X79553842Y-43449500D01*
X79396158Y-43449500D01*
X79396155Y-43449500D01*
X79241510Y-43480261D01*
X79241498Y-43480264D01*
X79095827Y-43540602D01*
X79095814Y-43540609D01*
X78964711Y-43628210D01*
X78964707Y-43628213D01*
X78853213Y-43739707D01*
X78853210Y-43739711D01*
X78765609Y-43870814D01*
X78765603Y-43870826D01*
X78758319Y-43888411D01*
X78714477Y-43942814D01*
X78648182Y-43964877D01*
X78619568Y-43962573D01*
X78553846Y-43949500D01*
X78553842Y-43949500D01*
X78396158Y-43949500D01*
X78396155Y-43949500D01*
X78241510Y-43980261D01*
X78241498Y-43980264D01*
X78095827Y-44040602D01*
X78095814Y-44040609D01*
X77964711Y-44128210D01*
X77964707Y-44128213D01*
X77853213Y-44239707D01*
X77853210Y-44239711D01*
X77765609Y-44370814D01*
X77765602Y-44370827D01*
X77705264Y-44516498D01*
X77705261Y-44516510D01*
X77674500Y-44671153D01*
X45500500Y-44671153D01*
X45500500Y-41671153D01*
X72674500Y-41671153D01*
X72674500Y-41828846D01*
X72705261Y-41983489D01*
X72705264Y-41983501D01*
X72765602Y-42129172D01*
X72765609Y-42129185D01*
X72853210Y-42260288D01*
X72853213Y-42260292D01*
X72964707Y-42371786D01*
X72964711Y-42371789D01*
X73095814Y-42459390D01*
X73095827Y-42459397D01*
X73241498Y-42519735D01*
X73241503Y-42519737D01*
X73396153Y-42550499D01*
X73396156Y-42550500D01*
X73396158Y-42550500D01*
X73553844Y-42550500D01*
X73553845Y-42550499D01*
X73708497Y-42519737D01*
X73854179Y-42459394D01*
X73985289Y-42371789D01*
X74096789Y-42260289D01*
X74184394Y-42129179D01*
X74244737Y-41983497D01*
X74257138Y-41921153D01*
X78699500Y-41921153D01*
X78699500Y-42078846D01*
X78730261Y-42233489D01*
X78730264Y-42233501D01*
X78790602Y-42379172D01*
X78790609Y-42379185D01*
X78878210Y-42510288D01*
X78878213Y-42510292D01*
X78989707Y-42621786D01*
X78989711Y-42621789D01*
X79120814Y-42709390D01*
X79120827Y-42709397D01*
X79266498Y-42769735D01*
X79266503Y-42769737D01*
X79421153Y-42800499D01*
X79421156Y-42800500D01*
X79421158Y-42800500D01*
X79578844Y-42800500D01*
X79578845Y-42800499D01*
X79733497Y-42769737D01*
X79879179Y-42709394D01*
X80010289Y-42621789D01*
X80121789Y-42510289D01*
X80209394Y-42379179D01*
X80269737Y-42233497D01*
X80300500Y-42078842D01*
X80300500Y-41921158D01*
X80300500Y-41921155D01*
X80300499Y-41921153D01*
X80269738Y-41766510D01*
X80269737Y-41766503D01*
X80230242Y-41671153D01*
X80209397Y-41620827D01*
X80209390Y-41620814D01*
X80121789Y-41489711D01*
X80121786Y-41489707D01*
X80010292Y-41378213D01*
X80010288Y-41378210D01*
X79879185Y-41290609D01*
X79879172Y-41290602D01*
X79733501Y-41230264D01*
X79733489Y-41230261D01*
X79578845Y-41199500D01*
X79578842Y-41199500D01*
X79421158Y-41199500D01*
X79421155Y-41199500D01*
X79266510Y-41230261D01*
X79266498Y-41230264D01*
X79120827Y-41290602D01*
X79120814Y-41290609D01*
X78989711Y-41378210D01*
X78989707Y-41378213D01*
X78878213Y-41489707D01*
X78878210Y-41489711D01*
X78790609Y-41620814D01*
X78790602Y-41620827D01*
X78730264Y-41766498D01*
X78730261Y-41766510D01*
X78699500Y-41921153D01*
X74257138Y-41921153D01*
X74263161Y-41890874D01*
X74275500Y-41828844D01*
X74275500Y-41671155D01*
X74275499Y-41671153D01*
X74244738Y-41516510D01*
X74244737Y-41516503D01*
X74244735Y-41516498D01*
X74184397Y-41370827D01*
X74184390Y-41370814D01*
X74096789Y-41239711D01*
X74096786Y-41239707D01*
X73985292Y-41128213D01*
X73985288Y-41128210D01*
X73854185Y-41040609D01*
X73854172Y-41040602D01*
X73708501Y-40980264D01*
X73708489Y-40980261D01*
X73553845Y-40949500D01*
X73553842Y-40949500D01*
X73396158Y-40949500D01*
X73396155Y-40949500D01*
X73241510Y-40980261D01*
X73241498Y-40980264D01*
X73095827Y-41040602D01*
X73095814Y-41040609D01*
X72964711Y-41128210D01*
X72964707Y-41128213D01*
X72853213Y-41239707D01*
X72853210Y-41239711D01*
X72765609Y-41370814D01*
X72765602Y-41370827D01*
X72705264Y-41516498D01*
X72705261Y-41516510D01*
X72674500Y-41671153D01*
X45500500Y-41671153D01*
X45500500Y-35459448D01*
X46299500Y-35459448D01*
X46299500Y-35640551D01*
X46327829Y-35819410D01*
X46383787Y-35991636D01*
X46383788Y-35991639D01*
X46466006Y-36152997D01*
X46572441Y-36299494D01*
X46572445Y-36299499D01*
X46700500Y-36427554D01*
X46700505Y-36427558D01*
X46828287Y-36520396D01*
X46847006Y-36533996D01*
X46923304Y-36572872D01*
X47008360Y-36616211D01*
X47008363Y-36616212D01*
X47094476Y-36644191D01*
X47180591Y-36672171D01*
X47263429Y-36685291D01*
X47359449Y-36700500D01*
X47359454Y-36700500D01*
X48840551Y-36700500D01*
X48927259Y-36686765D01*
X49019409Y-36672171D01*
X49191639Y-36616211D01*
X49352994Y-36533996D01*
X49499501Y-36427553D01*
X49627553Y-36299501D01*
X49733996Y-36152994D01*
X49816211Y-35991639D01*
X49872171Y-35819409D01*
X49886765Y-35727259D01*
X49900500Y-35640551D01*
X49900500Y-35459448D01*
X49897927Y-35443204D01*
X49895382Y-35427135D01*
X77749500Y-35427135D01*
X77749500Y-36572870D01*
X77749501Y-36572876D01*
X77755908Y-36632483D01*
X77806202Y-36767328D01*
X77806203Y-36767330D01*
X77806204Y-36767331D01*
X77807028Y-36768432D01*
X77807509Y-36769721D01*
X77810454Y-36775114D01*
X77809678Y-36775537D01*
X77831448Y-36833895D01*
X77822325Y-36890198D01*
X77788910Y-36970868D01*
X77788907Y-36970880D01*
X77749500Y-37168992D01*
X77749500Y-37371007D01*
X77788907Y-37569119D01*
X77788909Y-37569127D01*
X77866213Y-37755755D01*
X77919904Y-37836109D01*
X77940782Y-37902787D01*
X77922297Y-37970167D01*
X77919904Y-37973891D01*
X77866213Y-38054244D01*
X77788909Y-38240872D01*
X77788907Y-38240880D01*
X77749500Y-38438992D01*
X77749500Y-38641007D01*
X77788907Y-38839119D01*
X77788909Y-38839127D01*
X77866212Y-39025752D01*
X77866217Y-39025762D01*
X77978441Y-39193718D01*
X78121281Y-39336558D01*
X78289237Y-39448782D01*
X78289241Y-39448784D01*
X78289244Y-39448786D01*
X78475873Y-39526091D01*
X78673992Y-39565499D01*
X78673996Y-39565500D01*
X78673997Y-39565500D01*
X79326004Y-39565500D01*
X79326005Y-39565499D01*
X79524127Y-39526091D01*
X79710756Y-39448786D01*
X79878718Y-39336558D01*
X80021558Y-39193718D01*
X80133786Y-39025756D01*
X80211091Y-38839127D01*
X80250500Y-38641003D01*
X80250500Y-38438997D01*
X80211091Y-38240873D01*
X80133786Y-38054244D01*
X80080094Y-37973889D01*
X80059217Y-37907214D01*
X80077701Y-37839834D01*
X80080078Y-37836134D01*
X80133786Y-37755756D01*
X80211091Y-37569127D01*
X80250500Y-37371003D01*
X80250500Y-37168997D01*
X80211091Y-36970873D01*
X80177673Y-36890198D01*
X80170205Y-36820730D01*
X80189964Y-36775340D01*
X80189547Y-36775112D01*
X80192095Y-36770444D01*
X80192972Y-36768431D01*
X80193796Y-36767331D01*
X80244091Y-36632483D01*
X80250500Y-36572873D01*
X80250499Y-35427128D01*
X80244091Y-35367517D01*
X80193796Y-35232669D01*
X80193795Y-35232668D01*
X80193793Y-35232664D01*
X80107547Y-35117455D01*
X80107544Y-35117452D01*
X79992335Y-35031206D01*
X79992328Y-35031202D01*
X79857482Y-34980908D01*
X79857483Y-34980908D01*
X79797883Y-34974501D01*
X79797881Y-34974500D01*
X79797873Y-34974500D01*
X79797864Y-34974500D01*
X78202129Y-34974500D01*
X78202123Y-34974501D01*
X78142516Y-34980908D01*
X78007671Y-35031202D01*
X78007664Y-35031206D01*
X77892455Y-35117452D01*
X77892452Y-35117455D01*
X77806206Y-35232664D01*
X77806202Y-35232671D01*
X77755908Y-35367517D01*
X77749501Y-35427116D01*
X77749501Y-35427123D01*
X77749500Y-35427135D01*
X49895382Y-35427135D01*
X49884564Y-35358840D01*
X49872171Y-35280591D01*
X49819166Y-35117455D01*
X49816212Y-35108363D01*
X49816211Y-35108360D01*
X49776896Y-35031202D01*
X49733996Y-34947006D01*
X49720396Y-34928287D01*
X49627558Y-34800505D01*
X49627554Y-34800500D01*
X49499499Y-34672445D01*
X49499494Y-34672441D01*
X49352997Y-34566006D01*
X49352996Y-34566005D01*
X49352994Y-34566004D01*
X49301300Y-34539664D01*
X49191639Y-34483788D01*
X49191636Y-34483787D01*
X49019410Y-34427829D01*
X48840551Y-34399500D01*
X48840546Y-34399500D01*
X47359454Y-34399500D01*
X47359449Y-34399500D01*
X47180589Y-34427829D01*
X47008363Y-34483787D01*
X47008360Y-34483788D01*
X46847002Y-34566006D01*
X46700505Y-34672441D01*
X46700500Y-34672445D01*
X46572445Y-34800500D01*
X46572441Y-34800505D01*
X46466006Y-34947002D01*
X46383788Y-35108360D01*
X46383787Y-35108363D01*
X46327829Y-35280589D01*
X46299500Y-35459448D01*
X45500500Y-35459448D01*
X45500500Y-32374038D01*
X66319500Y-32374038D01*
X66319500Y-32625961D01*
X66358910Y-32874785D01*
X66436760Y-33114383D01*
X66551132Y-33338848D01*
X66699201Y-33542649D01*
X66699205Y-33542654D01*
X66877345Y-33720794D01*
X66877350Y-33720798D01*
X67055117Y-33849952D01*
X67081155Y-33868870D01*
X67224184Y-33941747D01*
X67305616Y-33983239D01*
X67305618Y-33983239D01*
X67305621Y-33983241D01*
X67545215Y-34061090D01*
X67794038Y-34100500D01*
X67794039Y-34100500D01*
X68045961Y-34100500D01*
X68045962Y-34100500D01*
X68294785Y-34061090D01*
X68534379Y-33983241D01*
X68758845Y-33868870D01*
X68962656Y-33720793D01*
X69140793Y-33542656D01*
X69288870Y-33338845D01*
X69403241Y-33114379D01*
X69481090Y-32874785D01*
X69520500Y-32625962D01*
X69520500Y-32374038D01*
X69481090Y-32125215D01*
X69403241Y-31885621D01*
X69403239Y-31885618D01*
X69403239Y-31885616D01*
X69288869Y-31661154D01*
X69288865Y-31661148D01*
X69244426Y-31599982D01*
X76479500Y-31599982D01*
X76479500Y-33400017D01*
X76490000Y-33502796D01*
X76545185Y-33669332D01*
X76545186Y-33669335D01*
X76637288Y-33818656D01*
X76761344Y-33942712D01*
X76910665Y-34034814D01*
X77077202Y-34089999D01*
X77179990Y-34100500D01*
X77179995Y-34100500D01*
X78980005Y-34100500D01*
X78980010Y-34100500D01*
X79082798Y-34089999D01*
X79249335Y-34034814D01*
X79398656Y-33942712D01*
X79522712Y-33818656D01*
X79614814Y-33669335D01*
X79669999Y-33502798D01*
X79680500Y-33400010D01*
X79680500Y-31599990D01*
X79669999Y-31497202D01*
X79614814Y-31330665D01*
X79522712Y-31181344D01*
X79398656Y-31057288D01*
X79249335Y-30965186D01*
X79082798Y-30910001D01*
X79082796Y-30910000D01*
X78980017Y-30899500D01*
X78980010Y-30899500D01*
X77179990Y-30899500D01*
X77179982Y-30899500D01*
X77077203Y-30910000D01*
X77077202Y-30910001D01*
X76994669Y-30937349D01*
X76910667Y-30965185D01*
X76910662Y-30965187D01*
X76761342Y-31057289D01*
X76637289Y-31181342D01*
X76545187Y-31330662D01*
X76545186Y-31330665D01*
X76490001Y-31497202D01*
X76490001Y-31497203D01*
X76490000Y-31497203D01*
X76479500Y-31599982D01*
X69244426Y-31599982D01*
X69140798Y-31457350D01*
X69140794Y-31457345D01*
X68962654Y-31279205D01*
X68962649Y-31279201D01*
X68758848Y-31131132D01*
X68758847Y-31131131D01*
X68758845Y-31131130D01*
X68688747Y-31095413D01*
X68534383Y-31016760D01*
X68294785Y-30938910D01*
X68045962Y-30899500D01*
X67794038Y-30899500D01*
X67727738Y-30910001D01*
X67545214Y-30938910D01*
X67305616Y-31016760D01*
X67081151Y-31131132D01*
X66877350Y-31279201D01*
X66877345Y-31279205D01*
X66699205Y-31457345D01*
X66699201Y-31457350D01*
X66551132Y-31661151D01*
X66436760Y-31885616D01*
X66358910Y-32125214D01*
X66319500Y-32374038D01*
X45500500Y-32374038D01*
X45500500Y-25202135D01*
X47299500Y-25202135D01*
X47299500Y-29797870D01*
X47299501Y-29797876D01*
X47305908Y-29857483D01*
X47356202Y-29992328D01*
X47356206Y-29992335D01*
X47442452Y-30107544D01*
X47442455Y-30107547D01*
X47557664Y-30193793D01*
X47557671Y-30193797D01*
X47692517Y-30244091D01*
X47692516Y-30244091D01*
X47699444Y-30244835D01*
X47752127Y-30250500D01*
X50347872Y-30250499D01*
X50407483Y-30244091D01*
X50542331Y-30193796D01*
X50657546Y-30107546D01*
X50743796Y-29992331D01*
X50794091Y-29857483D01*
X50800500Y-29797873D01*
X50800499Y-26385258D01*
X52749500Y-26385258D01*
X52749500Y-28614741D01*
X52774446Y-28804215D01*
X52779452Y-28842238D01*
X52779453Y-28842240D01*
X52838842Y-29063887D01*
X52926650Y-29275876D01*
X52926657Y-29275890D01*
X53041392Y-29474617D01*
X53181081Y-29656661D01*
X53181089Y-29656670D01*
X53343330Y-29818911D01*
X53343338Y-29818918D01*
X53525382Y-29958607D01*
X53525385Y-29958608D01*
X53525388Y-29958611D01*
X53724112Y-30073344D01*
X53724117Y-30073346D01*
X53724123Y-30073349D01*
X53806678Y-30107544D01*
X53936113Y-30161158D01*
X54157762Y-30220548D01*
X54374312Y-30249057D01*
X54385250Y-30250498D01*
X54385266Y-30250500D01*
X54385273Y-30250500D01*
X54614727Y-30250500D01*
X54614734Y-30250500D01*
X54842238Y-30220548D01*
X55063887Y-30161158D01*
X55275888Y-30073344D01*
X55474612Y-29958611D01*
X55656661Y-29818919D01*
X55656665Y-29818914D01*
X55656670Y-29818911D01*
X55818911Y-29656670D01*
X55818914Y-29656665D01*
X55818919Y-29656661D01*
X55958611Y-29474612D01*
X56073344Y-29275888D01*
X56161158Y-29063887D01*
X56220548Y-28842238D01*
X56250500Y-28614734D01*
X56250500Y-26385266D01*
X56250499Y-26385258D01*
X58199500Y-26385258D01*
X58199500Y-28614741D01*
X58224446Y-28804215D01*
X58229452Y-28842238D01*
X58229453Y-28842240D01*
X58288842Y-29063887D01*
X58376650Y-29275876D01*
X58376657Y-29275890D01*
X58491392Y-29474617D01*
X58631081Y-29656661D01*
X58631089Y-29656670D01*
X58793330Y-29818911D01*
X58793338Y-29818918D01*
X58975382Y-29958607D01*
X58975385Y-29958608D01*
X58975388Y-29958611D01*
X59174112Y-30073344D01*
X59174117Y-30073346D01*
X59174123Y-30073349D01*
X59256678Y-30107544D01*
X59386113Y-30161158D01*
X59607762Y-30220548D01*
X59824312Y-30249057D01*
X59835250Y-30250498D01*
X59835266Y-30250500D01*
X59835273Y-30250500D01*
X60064727Y-30250500D01*
X60064734Y-30250500D01*
X60292238Y-30220548D01*
X60513887Y-30161158D01*
X60725888Y-30073344D01*
X60924612Y-29958611D01*
X61106661Y-29818919D01*
X61106665Y-29818914D01*
X61106670Y-29818911D01*
X61268911Y-29656670D01*
X61268914Y-29656665D01*
X61268919Y-29656661D01*
X61408611Y-29474612D01*
X61523344Y-29275888D01*
X61611158Y-29063887D01*
X61670548Y-28842238D01*
X61700500Y-28614734D01*
X61700500Y-26385266D01*
X61670548Y-26157762D01*
X61611158Y-25936113D01*
X61523344Y-25724112D01*
X61408611Y-25525388D01*
X61408608Y-25525385D01*
X61408607Y-25525382D01*
X61268918Y-25343338D01*
X61268911Y-25343330D01*
X61127716Y-25202135D01*
X65749500Y-25202135D01*
X65749500Y-29797870D01*
X65749501Y-29797876D01*
X65755908Y-29857483D01*
X65806202Y-29992328D01*
X65806206Y-29992335D01*
X65892452Y-30107544D01*
X65892455Y-30107547D01*
X66007664Y-30193793D01*
X66007671Y-30193797D01*
X66142517Y-30244091D01*
X66142516Y-30244091D01*
X66149444Y-30244835D01*
X66202127Y-30250500D01*
X68797872Y-30250499D01*
X68857483Y-30244091D01*
X68992331Y-30193796D01*
X69107546Y-30107546D01*
X69193796Y-29992331D01*
X69244091Y-29857483D01*
X69250500Y-29797873D01*
X69250499Y-26385258D01*
X71199500Y-26385258D01*
X71199500Y-28614741D01*
X71224446Y-28804215D01*
X71229452Y-28842238D01*
X71229453Y-28842240D01*
X71288842Y-29063887D01*
X71376650Y-29275876D01*
X71376657Y-29275890D01*
X71491392Y-29474617D01*
X71631081Y-29656661D01*
X71631089Y-29656670D01*
X71793330Y-29818911D01*
X71793338Y-29818918D01*
X71975382Y-29958607D01*
X71975385Y-29958608D01*
X71975388Y-29958611D01*
X72174112Y-30073344D01*
X72174117Y-30073346D01*
X72174123Y-30073349D01*
X72256678Y-30107544D01*
X72386113Y-30161158D01*
X72607762Y-30220548D01*
X72824312Y-30249057D01*
X72835250Y-30250498D01*
X72835266Y-30250500D01*
X72835273Y-30250500D01*
X73064727Y-30250500D01*
X73064734Y-30250500D01*
X73292238Y-30220548D01*
X73513887Y-30161158D01*
X73725888Y-30073344D01*
X73924612Y-29958611D01*
X74106661Y-29818919D01*
X74106665Y-29818914D01*
X74106670Y-29818911D01*
X74268911Y-29656670D01*
X74268914Y-29656665D01*
X74268919Y-29656661D01*
X74408611Y-29474612D01*
X74523344Y-29275888D01*
X74611158Y-29063887D01*
X74670548Y-28842238D01*
X74700500Y-28614734D01*
X74700500Y-26385266D01*
X74700499Y-26385258D01*
X76649500Y-26385258D01*
X76649500Y-28614741D01*
X76674446Y-28804215D01*
X76679452Y-28842238D01*
X76679453Y-28842240D01*
X76738842Y-29063887D01*
X76826650Y-29275876D01*
X76826657Y-29275890D01*
X76941392Y-29474617D01*
X77081081Y-29656661D01*
X77081089Y-29656670D01*
X77243330Y-29818911D01*
X77243338Y-29818918D01*
X77425382Y-29958607D01*
X77425385Y-29958608D01*
X77425388Y-29958611D01*
X77624112Y-30073344D01*
X77624117Y-30073346D01*
X77624123Y-30073349D01*
X77706678Y-30107544D01*
X77836113Y-30161158D01*
X78057762Y-30220548D01*
X78274312Y-30249057D01*
X78285250Y-30250498D01*
X78285266Y-30250500D01*
X78285273Y-30250500D01*
X78514727Y-30250500D01*
X78514734Y-30250500D01*
X78742238Y-30220548D01*
X78963887Y-30161158D01*
X79175888Y-30073344D01*
X79374612Y-29958611D01*
X79556661Y-29818919D01*
X79556665Y-29818914D01*
X79556670Y-29818911D01*
X79718911Y-29656670D01*
X79718914Y-29656665D01*
X79718919Y-29656661D01*
X79858611Y-29474612D01*
X79973344Y-29275888D01*
X80061158Y-29063887D01*
X80120548Y-28842238D01*
X80150500Y-28614734D01*
X80150500Y-26385266D01*
X80120548Y-26157762D01*
X80061158Y-25936113D01*
X79973344Y-25724112D01*
X79858611Y-25525388D01*
X79858608Y-25525385D01*
X79858607Y-25525382D01*
X79718918Y-25343338D01*
X79718911Y-25343330D01*
X79556670Y-25181089D01*
X79556661Y-25181081D01*
X79374617Y-25041392D01*
X79316210Y-25007671D01*
X79175888Y-24926656D01*
X79175876Y-24926650D01*
X78963887Y-24838842D01*
X78742238Y-24779452D01*
X78704215Y-24774446D01*
X78514741Y-24749500D01*
X78514734Y-24749500D01*
X78285266Y-24749500D01*
X78285258Y-24749500D01*
X78068715Y-24778009D01*
X78057762Y-24779452D01*
X77964076Y-24804554D01*
X77836112Y-24838842D01*
X77624123Y-24926650D01*
X77624109Y-24926657D01*
X77425382Y-25041392D01*
X77243338Y-25181081D01*
X77081081Y-25343338D01*
X76941392Y-25525382D01*
X76826657Y-25724109D01*
X76826650Y-25724123D01*
X76738842Y-25936112D01*
X76679453Y-26157759D01*
X76679451Y-26157770D01*
X76649500Y-26385258D01*
X74700499Y-26385258D01*
X74670548Y-26157762D01*
X74611158Y-25936113D01*
X74523344Y-25724112D01*
X74408611Y-25525388D01*
X74408608Y-25525385D01*
X74408607Y-25525382D01*
X74268918Y-25343338D01*
X74268911Y-25343330D01*
X74106670Y-25181089D01*
X74106661Y-25181081D01*
X73924617Y-25041392D01*
X73866210Y-25007671D01*
X73725888Y-24926656D01*
X73725876Y-24926650D01*
X73513887Y-24838842D01*
X73292238Y-24779452D01*
X73254215Y-24774446D01*
X73064741Y-24749500D01*
X73064734Y-24749500D01*
X72835266Y-24749500D01*
X72835258Y-24749500D01*
X72618715Y-24778009D01*
X72607762Y-24779452D01*
X72514076Y-24804554D01*
X72386112Y-24838842D01*
X72174123Y-24926650D01*
X72174109Y-24926657D01*
X71975382Y-25041392D01*
X71793338Y-25181081D01*
X71631081Y-25343338D01*
X71491392Y-25525382D01*
X71376657Y-25724109D01*
X71376650Y-25724123D01*
X71288842Y-25936112D01*
X71229453Y-26157759D01*
X71229451Y-26157770D01*
X71199500Y-26385258D01*
X69250499Y-26385258D01*
X69250499Y-25202128D01*
X69244091Y-25142517D01*
X69193796Y-25007669D01*
X69193795Y-25007668D01*
X69193793Y-25007664D01*
X69107547Y-24892455D01*
X69107544Y-24892452D01*
X68992335Y-24806206D01*
X68992328Y-24806202D01*
X68857482Y-24755908D01*
X68857483Y-24755908D01*
X68797883Y-24749501D01*
X68797881Y-24749500D01*
X68797873Y-24749500D01*
X68797864Y-24749500D01*
X66202129Y-24749500D01*
X66202123Y-24749501D01*
X66142516Y-24755908D01*
X66007671Y-24806202D01*
X66007664Y-24806206D01*
X65892455Y-24892452D01*
X65892452Y-24892455D01*
X65806206Y-25007664D01*
X65806202Y-25007671D01*
X65755908Y-25142517D01*
X65749501Y-25202116D01*
X65749501Y-25202123D01*
X65749500Y-25202135D01*
X61127716Y-25202135D01*
X61106670Y-25181089D01*
X61106661Y-25181081D01*
X60924617Y-25041392D01*
X60866210Y-25007671D01*
X60725888Y-24926656D01*
X60725876Y-24926650D01*
X60513887Y-24838842D01*
X60292238Y-24779452D01*
X60254215Y-24774446D01*
X60064741Y-24749500D01*
X60064734Y-24749500D01*
X59835266Y-24749500D01*
X59835258Y-24749500D01*
X59618715Y-24778009D01*
X59607762Y-24779452D01*
X59514076Y-24804554D01*
X59386112Y-24838842D01*
X59174123Y-24926650D01*
X59174109Y-24926657D01*
X58975382Y-25041392D01*
X58793338Y-25181081D01*
X58631081Y-25343338D01*
X58491392Y-25525382D01*
X58376657Y-25724109D01*
X58376650Y-25724123D01*
X58288842Y-25936112D01*
X58229453Y-26157759D01*
X58229451Y-26157770D01*
X58199500Y-26385258D01*
X56250499Y-26385258D01*
X56220548Y-26157762D01*
X56161158Y-25936113D01*
X56073344Y-25724112D01*
X55958611Y-25525388D01*
X55958608Y-25525385D01*
X55958607Y-25525382D01*
X55818918Y-25343338D01*
X55818911Y-25343330D01*
X55656670Y-25181089D01*
X55656661Y-25181081D01*
X55474617Y-25041392D01*
X55416210Y-25007671D01*
X55275888Y-24926656D01*
X55275876Y-24926650D01*
X55063887Y-24838842D01*
X54842238Y-24779452D01*
X54804215Y-24774446D01*
X54614741Y-24749500D01*
X54614734Y-24749500D01*
X54385266Y-24749500D01*
X54385258Y-24749500D01*
X54168715Y-24778009D01*
X54157762Y-24779452D01*
X54064076Y-24804554D01*
X53936112Y-24838842D01*
X53724123Y-24926650D01*
X53724109Y-24926657D01*
X53525382Y-25041392D01*
X53343338Y-25181081D01*
X53181081Y-25343338D01*
X53041392Y-25525382D01*
X52926657Y-25724109D01*
X52926650Y-25724123D01*
X52838842Y-25936112D01*
X52779453Y-26157759D01*
X52779451Y-26157770D01*
X52749500Y-26385258D01*
X50800499Y-26385258D01*
X50800499Y-25202128D01*
X50794091Y-25142517D01*
X50743796Y-25007669D01*
X50743795Y-25007668D01*
X50743793Y-25007664D01*
X50657547Y-24892455D01*
X50657544Y-24892452D01*
X50542335Y-24806206D01*
X50542328Y-24806202D01*
X50407482Y-24755908D01*
X50407483Y-24755908D01*
X50347883Y-24749501D01*
X50347881Y-24749500D01*
X50347873Y-24749500D01*
X50347864Y-24749500D01*
X47752129Y-24749500D01*
X47752123Y-24749501D01*
X47692516Y-24755908D01*
X47557671Y-24806202D01*
X47557664Y-24806206D01*
X47442455Y-24892452D01*
X47442452Y-24892455D01*
X47356206Y-25007664D01*
X47356202Y-25007671D01*
X47305908Y-25142517D01*
X47299501Y-25202116D01*
X47299501Y-25202123D01*
X47299500Y-25202135D01*
X45500500Y-25202135D01*
X45500500Y-19124500D01*
X45520185Y-19057461D01*
X45572989Y-19011706D01*
X45624500Y-19000500D01*
X85875500Y-19000500D01*
X85942539Y-19020185D01*
G37*
%TD.AperFunction*%
%TD*%
M02*
